<?xml version="1.0" encoding="UTF-8" standalone="no"?>
<!-- Created with Inkscape (http://www.inkscape.org/) -->

<svg
   id="svg7384"
   height="16"
   width="16"
   version="1.1"
   sodipodi:docname="hicolor_status_scalable_hb-pm-dcard-symbolic.svg"
   inkscape:version="1.2.2 (b0a8486541, 2022-12-01)"
   xmlns:inkscape="http://www.inkscape.org/namespaces/inkscape"
   xmlns:sodipodi="http://sodipodi.sourceforge.net/DTD/sodipodi-0.dtd"
   xmlns="http://www.w3.org/2000/svg"
   xmlns:svg="http://www.w3.org/2000/svg"
   xmlns:rdf="http://www.w3.org/1999/02/22-rdf-syntax-ns#"
   xmlns:cc="http://creativecommons.org/ns#"
   xmlns:dc="http://purl.org/dc/elements/1.1/">
  <defs
     id="defs12" />
  <sodipodi:namedview
     pagecolor="#ffffff"
     bordercolor="#666666"
     borderopacity="1"
     objecttolerance="10"
     gridtolerance="10"
     guidetolerance="10"
     inkscape:pageopacity="0"
     inkscape:pageshadow="2"
     inkscape:window-width="1920"
     inkscape:window-height="1003"
     id="namedview10"
     showgrid="true"
     showguides="false"
     inkscape:zoom="18.715409"
     inkscape:cx="4.4615643"
     inkscape:cy="9.5108795"
     inkscape:window-x="1440"
     inkscape:window-y="0"
     inkscape:window-maximized="1"
     inkscape:current-layer="g4565"
     inkscape:showpageshadow="0"
     inkscape:pagecheckerboard="1"
     inkscape:deskcolor="#d1d1d1">
    <inkscape:grid
       type="xygrid"
       id="grid4489" />
  </sodipodi:namedview>
  <metadata
     id="metadata90">
    <rdf:RDF>
      <cc:Work
         rdf:about="">
        <dc:format>image/svg+xml</dc:format>
        <dc:type
           rdf:resource="http://purl.org/dc/dcmitype/StillImage" />
        <dc:title>Payment Debit Card</dc:title>
        <dc:creator>
          <cc:Agent>
            <dc:title>Maxime DOYEN</dc:title>
          </cc:Agent>
        </dc:creator>
        <dc:source>https://www.gethomebank.org</dc:source>
      </cc:Work>
    </rdf:RDF>
  </metadata>
  <title
     id="title9167">Payment Debit Card</title>
  <g
     id="g4565"
     transform="matrix(0.0356211,0,0,0.04422235,0.049368,-2.1598844)"
     style="stroke-width:25.19564247">
    <path
       id="path4491"
       d="m 289.05508,277.76347 c 0.554,0.85 1.498,1.361 2.514,1.361 h 21.525 c 1.246,0 2.363,-0.771 2.806,-1.936 2.646,-6.979 4.343,-11.426 4.903,-12.862 1.429,0 8.04,0.008 15.128,0.019 h 0.4 c 8.146,0.01 16.8,0.021 18.871,0.021 v 0 c 0.611,2.615 2.126,9.541 2.751,12.396 0.301,1.379 1.521,2.36 2.931,2.36 h 18.771 c 0.909,0 1.77,-0.412 2.339,-1.121 0.568,-0.709 0.785,-1.638 0.591,-2.524 l -20.414,-92.478 c -0.304,-1.375 -1.521,-2.354 -2.93,-2.354 h -18.337 c -7.334,0 -11.542,2.445 -14.069,8.174 l -38.011,86.091 c -0.41,0.931 -0.322,2.002 0.231,2.853 z m 53.759,-70.553 1.815,8.512 6.217,28.437 h -22.312 -0.002 z"
       inkscape:connector-curvature="0"
       style="color:#000000;fill:#bebebe;stroke-width:25.19564247;enable-background:new" />
    <path
       id="path4493"
       d="m 215.99208,274.59847 c 7.083,2.484 16.974,4.029 26.456,4.131 0.011,0 0.021,0 0.032,0 27.188,-0.006 44.881,-12.748 45.075,-32.463 0.104,-10.84 -6.811,-19.038 -21.678,-25.764 -9.101,-4.421 -14.676,-7.357 -14.623,-11.853 0,-4.042 5.098,-8.133 14.893,-8.134 0.236,-0.004 0.516,-0.006 0.79,-0.006 8.134,0 13.879,1.844 17.492,3.231 0.84,0.322 1.778,0.251 2.561,-0.194 0.782,-0.445 1.321,-1.217 1.473,-2.104 l 2.428,-14.277 c 0.25,-1.473 -0.621,-2.905 -2.044,-3.36 -4.464,-1.428 -11.682,-3.13 -20.723,-3.13 -25.626,0 -43.623,12.892 -43.766,31.339 -0.162,13.66 12.867,21.281 22.688,25.826 10.073,4.646 13.457,7.619 13.411,11.781 -0.071,6.372 -8.075,9.273 -15.483,9.273 -10.543,0 -16.225,-1.59 -24.263,-4.933 -0.842,-0.351 -1.8,-0.298 -2.6,0.144 -0.799,0.439 -1.354,1.221 -1.509,2.121 l -2.573,15.033 c -0.248,1.444 0.582,2.855 1.963,3.339 z"
       inkscape:connector-curvature="0"
       style="color:#000000;fill:#bebebe;stroke-width:25.19564247;enable-background:new" />
    <path
       id="path4495"
       d="m 65.72808,186.18947 c 17.185,6.185 31.242,15.999 40.652,28.382 0.582,0.766 1.475,1.185 2.39,1.185 0.421,0 0.846,-0.088 1.247,-0.271 1.276,-0.584 1.978,-1.976 1.688,-3.349 l -5.001,-23.645 c -0.011,-0.051 -0.023,-0.101 -0.036,-0.151 -1.798,-6.753 -7.491,-7.757 -11.617,-7.924 -0.039,-0.001 -0.078,-0.002 -0.117,-0.002 l -28.185,-0.046 c -0.002,0 -0.003,0 -0.005,0 -1.457,0 -2.703,1.047 -2.955,2.482 -0.252,1.435 0.566,2.845 1.939,3.339 z"
       inkscape:connector-curvature="0"
       style="color:#000000;fill:#bebebe;stroke-width:25.19564247;enable-background:new" />
    <path
       id="path4497"
       d="m 169.76808,278.01847 c 0.57,0.676 1.409,1.065 2.293,1.065 h 20.766 c 1.462,0 2.712,-1.054 2.957,-2.496 l 15.78,-92.537 c 0.149,-0.871 -0.094,-1.764 -0.664,-2.439 -0.57,-0.675 -1.408,-1.065 -2.292,-1.065 h -20.781 c -1.463,0 -2.712,1.055 -2.957,2.496 l -15.766,92.537 c -0.148,0.872 0.095,1.766 0.664,2.439 z"
       inkscape:connector-curvature="0"
       style="color:#000000;fill:#bebebe;stroke-width:25.19564247;enable-background:new" />
    <path
       id="path4499"
       d="m 86.79908,201.85647 c -1.031,-0.792 -2.452,-0.83 -3.522,-0.097 -1.071,0.733 -1.55,2.072 -1.185,3.318 l 21.008,71.777 c 0.374,1.279 1.547,2.158 2.879,2.158 0.001,0 0.003,0 0.003,0 l 24.193,-0.035 c 1.197,0 2.279,-0.715 2.752,-1.814 l 39.711,-92.351 c 0.398,-0.927 0.305,-1.993 -0.251,-2.835 -0.555,-0.843 -1.496,-1.35 -2.505,-1.35 h -0.002 l -21.845,0.011 c -1.233,0 -2.342,0.757 -2.792,1.906 l -25.557,65.288 -2.749,-9.95 c -0.036,-0.132 -0.082,-0.262 -0.137,-0.388 -4.034,-9.363 -14.875,-24.014 -30.001,-35.638 z"
       inkscape:connector-curvature="0"
       style="fill:#bebebe;stroke-width:25.19564247" />
    <path
       style="color:#bebebe;fill:#bebebe"
       d="m 73.113281,94.068359 c -19.616703,0 -37.578245,5.659567 -51.242187,15.642581 -13.6639427,9.98301 -23.2578127,25.02493 -23.2578128,42.17968 v 155.70899 c 10e-8,17.15475 9.5938701,32.19863 23.2578128,42.18164 13.663942,9.98301 31.625484,15.64258 51.242187,15.64258 H 373.28711 c 19.6167,0 37.57824,-5.65957 51.24219,-15.64258 13.66394,-9.98301 23.25586,-25.02689 23.25586,-42.18164 V 151.89062 c 0,-17.15475 -9.59192,-32.19667 -23.25586,-42.17968 -13.66395,-9.983014 -31.62549,-15.642581 -51.24219,-15.642581 z m 0,25.195311 H 373.28711 c 14.67684,0 27.66538,4.42483 36.37891,10.79102 8.71352,6.36618 12.92382,13.93549 12.92382,21.83593 v 155.70899 c 0,7.90045 -4.2103,15.46975 -12.92382,21.83594 -8.71353,6.36618 -21.70207,10.79297 -36.37891,10.79297 H 73.113281 c -14.67684,0 -27.665383,-4.42679 -36.378906,-10.79297 -8.713523,-6.36619 -12.923828,-13.93549 -12.923828,-21.83594 V 151.89062 c 0,-7.90044 4.210305,-15.46975 12.923828,-21.83593 8.713523,-6.36619 21.702066,-10.79102 36.378906,-10.79102 z"
       id="rect4491"
       inkscape:connector-curvature="0" />
  </g>
</svg>
