<?xml version="1.0" encoding="UTF-8" standalone="no"?>
<svg
   width="16"
   height="16"
   version="1.1"
   id="svg4"
   sodipodi:docname="hicolor_actions_scalable_hb-help-symbolic.svg"
   inkscape:version="1.1.2 (0a00cf5339, 2022-02-04)"
   xmlns:inkscape="http://www.inkscape.org/namespaces/inkscape"
   xmlns:sodipodi="http://sodipodi.sourceforge.net/DTD/sodipodi-0.dtd"
   xmlns="http://www.w3.org/2000/svg"
   xmlns:svg="http://www.w3.org/2000/svg"
   xmlns:rdf="http://www.w3.org/1999/02/22-rdf-syntax-ns#"
   xmlns:cc="http://creativecommons.org/ns#"
   xmlns:dc="http://purl.org/dc/elements/1.1/">
  <metadata
     id="metadata10">
    <rdf:RDF>
      <cc:Work
         rdf:about="">
        <dc:format>image/svg+xml</dc:format>
        <dc:type
           rdf:resource="http://purl.org/dc/dcmitype/StillImage" />
      </cc:Work>
    </rdf:RDF>
  </metadata>
  <defs
     id="defs8" />
  <sodipodi:namedview
     pagecolor="#ffffff"
     bordercolor="#666666"
     borderopacity="1"
     objecttolerance="10"
     gridtolerance="10"
     guidetolerance="10"
     inkscape:pageopacity="0"
     inkscape:pageshadow="2"
     inkscape:window-width="1920"
     inkscape:window-height="1043"
     id="namedview6"
     showgrid="true"
     inkscape:zoom="29.5"
     inkscape:cx="12.661017"
     inkscape:cy="11.677966"
     inkscape:window-x="0"
     inkscape:window-y="0"
     inkscape:window-maximized="1"
     inkscape:current-layer="svg4"
     inkscape:pagecheckerboard="0"
     inkscape:snap-global="false">
    <inkscape:grid
       type="xygrid"
       id="grid7" />
  </sodipodi:namedview>
  <path
     d="m 7.9999998,12.666667 q 0.4083337,0 0.6902781,-0.281945 0.2819444,-0.281944 0.2819444,-0.690278 0,-0.408333 -0.2819444,-0.690277 -0.2819444,-0.281945 -0.6902781,-0.281945 -0.4083333,0 -0.6902777,0.281945 -0.2819445,0.281944 -0.2819445,0.690277 0,0.408334 0.2819445,0.690278 0.2819444,0.281945 0.6902777,0.281945 z m -0.7,-2.9944447 H 8.738889 q 0,-0.7 0.1555556,-1.0305556 Q 9.0500001,8.3111111 9.5555557,7.8055555 10.236111,7.125 10.518055,6.6680555 10.8,6.2111111 10.8,5.6277778 q 0,-1.0305556 -0.7,-1.6625 -0.6999999,-0.6319445 -1.8861113,-0.6319445 -1.0694444,0 -1.8180555,0.525 -0.7486111,0.525 -1.0402778,1.4583333 l 1.2833334,0.5055556 q 0.1361111,-0.525 0.5444444,-0.8458333 0.4083333,-0.3208334 0.9527777,-0.3208334 0.5250003,0 0.8750003,0.2819445 0.35,0.2819444 0.35,0.7486111 0,0.3305555 -0.2138889,0.7 Q 8.9333335,6.7555555 8.4277779,7.2027777 7.7861109,7.7666666 7.5430554,8.2819445 7.2999998,8.7972223 7.2999998,9.6722223 Z M 2.5555555,15 Q 1.9138889,15 1.4569444,14.543055 1,14.086111 1,13.444444 V 2.5555555 Q 1,1.9138889 1.4569444,1.4569444 1.9138889,1 2.5555555,1 H 13.444444 Q 14.086111,1 14.543055,1.4569444 15,1.9138889 15,2.5555555 V 13.444444 q 0,0.641667 -0.456945,1.098611 Q 14.086111,15 13.444444,15 Z m 0,-1.555556 H 13.444444 V 2.5555555 H 2.5555555 Z m 0,-10.8888885 V 13.444444 Z"
     id="path2"
     style="fill:#bebebe;stroke-width:0.0194444" />
</svg>
