<?xml version="1.0" encoding="UTF-8" standalone="no"?>
<svg
   viewBox="0 0 16 16"
   version="1.1"
   id="svg13"
   sodipodi:docname="hicolor_status_scalable_hb-item-recon-symbolic.svg"
   inkscape:version="1.2.2 (b0a8486541, 2022-12-01)"
   width="16"
   height="16"
   xmlns:inkscape="http://www.inkscape.org/namespaces/inkscape"
   xmlns:sodipodi="http://sodipodi.sourceforge.net/DTD/sodipodi-0.dtd"
   xmlns="http://www.w3.org/2000/svg"
   xmlns:svg="http://www.w3.org/2000/svg"
   xmlns:rdf="http://www.w3.org/1999/02/22-rdf-syntax-ns#"
   xmlns:cc="http://creativecommons.org/ns#"
   xmlns:dc="http://purl.org/dc/elements/1.1/">
  <title
     id="title686">Item Reconciled</title>
  <metadata
     id="metadata17">
    <rdf:RDF>
      <cc:Work
         rdf:about="">
        <dc:format>image/svg+xml</dc:format>
        <dc:type
           rdf:resource="http://purl.org/dc/dcmitype/StillImage" />
        <dc:title>Item Reconciled</dc:title>
        <dc:creator>
          <cc:Agent>
            <dc:title>Maxime DOYEN</dc:title>
          </cc:Agent>
        </dc:creator>
        <dc:source>https://www.gethomebank.org</dc:source>
      </cc:Work>
    </rdf:RDF>
  </metadata>
  <sodipodi:namedview
     pagecolor="#ffffff"
     bordercolor="#666666"
     borderopacity="1"
     objecttolerance="10"
     gridtolerance="10"
     guidetolerance="10"
     inkscape:pageopacity="0"
     inkscape:pageshadow="2"
     inkscape:window-width="1920"
     inkscape:window-height="1003"
     id="namedview15"
     showgrid="true"
     inkscape:zoom="20.518133"
     inkscape:cx="7.7248744"
     inkscape:cy="8.3340916"
     inkscape:window-x="1440"
     inkscape:window-y="0"
     inkscape:window-maximized="1"
     inkscape:current-layer="svg13"
     fit-margin-top="0"
     fit-margin-left="0"
     fit-margin-right="0"
     fit-margin-bottom="0"
     inkscape:pagecheckerboard="0"
     inkscape:snap-global="false"
     inkscape:showpageshadow="0"
     inkscape:deskcolor="#d1d1d1">
    <inkscape:grid
       type="xygrid"
       id="grid818" />
  </sodipodi:namedview>
  <defs
     id="defs4">
    <style
       id="style2">
.cls-1 { 
    fill:#bebebe;
}
</style>
  </defs>
  <path
     d="M 8.0000001,15 Q 6.5474999,15 5.2699999,14.44875 3.9925,13.8975 3.0475,12.9525 2.1025,12.0075 1.55125,10.729999 1,9.4524999 1,7.9999999 q 0,-1.4525 0.55125,-2.73 Q 2.1025,3.9925 3.0475,3.0475 3.9925,2.1024999 5.2699999,1.55125 6.5474999,1 8.0000001,1 9.1375003,1 10.1525,1.3325 11.1675,1.665 12.025,2.2599999 L 11.01,3.2925 Q 10.345,2.8724999 9.5925003,2.6362499 q -0.7525,-0.23625 -1.5925002,-0.23625 -2.3275002,0 -3.9637501,1.63625 Q 2.4,5.6724999 2.4,7.9999999 2.4,10.327499 4.03625,11.96375 5.6724999,13.6 8.0000001,13.6 10.3275,13.6 11.96375,11.96375 13.6,10.327499 13.6,7.9999999 q 0,-0.315 -0.035,-0.63 -0.035,-0.315 -0.105,-0.6125 l 1.1375,-1.1375 q 0.1925,0.56 0.2975,1.155 0.105,0.595 0.105,1.225 0,1.4525 -0.55125,2.7299991 Q 13.8975,12.0075 12.9525,12.9525 12.0075,13.8975 10.73,14.44875 9.4525003,15 8.0000001,15 Z M 7.0199999,11.22 4.045,8.2449999 l 0.9799999,-0.98 1.995,1.995 L 14.02,2.2424999 15,3.2225 Z"
     id="path133"
     style="stroke-width:0.025;fill:#bebebe" />
</svg>
