<?xml version="1.0" encoding="UTF-8" standalone="no"?>
<!-- Created with Inkscape (http://www.inkscape.org/) -->

<svg
   id="svg7384"
   height="16"
   width="16"
   version="1.1"
   inkscape:version="1.2.2 (b0a8486541, 2022-12-01)"
   sodipodi:docname="hicolor_actions_scalable_hb-legend-symbolic.svg"
   xmlns:inkscape="http://www.inkscape.org/namespaces/inkscape"
   xmlns:sodipodi="http://sodipodi.sourceforge.net/DTD/sodipodi-0.dtd"
   xmlns="http://www.w3.org/2000/svg"
   xmlns:svg="http://www.w3.org/2000/svg"
   xmlns:rdf="http://www.w3.org/1999/02/22-rdf-syntax-ns#"
   xmlns:cc="http://creativecommons.org/ns#"
   xmlns:dc="http://purl.org/dc/elements/1.1/">
  <title
     id="title1158">View Legend</title>
  <defs
     id="defs12">
    <inkscape:path-effect
       effect="bspline"
       id="path-effect436"
       is_visible="true"
       lpeversion="1"
       weight="33.333333"
       steps="2"
       helper_size="0"
       apply_no_weight="true"
       apply_with_weight="true"
       only_selected="false" />
    <inkscape:path-effect
       effect="bspline"
       id="path-effect436-7"
       is_visible="true"
       lpeversion="1"
       weight="33.333333"
       steps="2"
       helper_size="0"
       apply_no_weight="true"
       apply_with_weight="true"
       only_selected="false" />
    <inkscape:path-effect
       effect="bspline"
       id="path-effect436-5"
       is_visible="true"
       lpeversion="1"
       weight="33.333333"
       steps="2"
       helper_size="0"
       apply_no_weight="true"
       apply_with_weight="true"
       only_selected="false" />
  </defs>
  <sodipodi:namedview
     pagecolor="#ffffff"
     bordercolor="#666666"
     borderopacity="1"
     objecttolerance="10"
     gridtolerance="10"
     guidetolerance="10"
     inkscape:pageopacity="0"
     inkscape:pageshadow="2"
     inkscape:window-width="1920"
     inkscape:window-height="1003"
     id="namedview10"
     showgrid="true"
     inkscape:zoom="33.125"
     inkscape:cx="6.2037736"
     inkscape:cy="8"
     inkscape:window-x="1440"
     inkscape:window-y="0"
     inkscape:window-maximized="1"
     inkscape:current-layer="svg7384"
     inkscape:pagecheckerboard="0"
     inkscape:showpageshadow="0"
     inkscape:deskcolor="#d1d1d1">
    <inkscape:grid
       type="xygrid"
       id="grid3212" />
  </sodipodi:namedview>
  <metadata
     id="metadata90">
    <rdf:RDF>
      <cc:Work
         rdf:about="">
        <dc:format>image/svg+xml</dc:format>
        <dc:type
           rdf:resource="http://purl.org/dc/dcmitype/StillImage" />
        <dc:creator>
          <cc:Agent>
            <dc:title>Maxime DOYEN</dc:title>
          </cc:Agent>
        </dc:creator>
        <dc:source>https://www.gethomebank.org</dc:source>
        <dc:title>View Legend</dc:title>
      </cc:Work>
    </rdf:RDF>
  </metadata>
  <path
     style="color:#000000;fill:#bebebe;stroke-linecap:round;stroke-linejoin:round;stroke-miterlimit:0;-inkscape-stroke:none"
     d="M 2,1 C 1.4085466,1.0291994 1.5014051,1.6560026 1.5,2.0630498 1.5,2.8753665 1.5,3.6876833 1.5,4.5 1.5349264,5.1047422 2.1833645,4.9926735 2.6005864,5 3.4003909,5 4.2001955,5 5,5 5.6047422,4.9650736 5.4926735,4.3166355 5.5,3.8994136 5.5,3.0996091 5.5,2.2998045 5.5,1.5 5.4650736,0.89525776 4.8166355,1.0073265 4.3994136,1 3.5996091,1 2.7998045,1 2,1 Z m 0.5,1 c 0.6666667,0 1.3333333,0 2,0 0,0.6666667 0,1.3333333 0,2 -0.6666667,0 -1.3333333,0 -2,0 0,-0.6666667 0,-1.3333333 0,-2 z M 7,2.5 c 0,0.3333333 0,0.6666667 0,1 2.3333333,0 4.666667,0 7,0 0,-0.3333333 0,-0.6666667 0,-1 -2.333333,0 -4.6666667,0 -7,0 z M 2,6 C 1.4085466,6.0291994 1.5014051,6.6560026 1.5,7.0630498 1.5,7.8753665 1.5,8.6876833 1.5,9.5 1.5349264,10.104742 2.1833645,9.9926735 2.6005864,10 3.4003909,10 4.2001955,10 5,10 5.6047422,9.9650736 5.4926735,9.3166355 5.5,8.8994136 5.5,8.0996091 5.5,7.2998045 5.5,6.5 5.4650736,5.8952578 4.8166355,6.0073265 4.3994136,6 3.5996091,6 2.7998045,6 2,6 Z m 0.5,1 c 0.6666667,0 1.3333333,0 2,0 0,0.6666667 0,1.3333333 0,2 -0.6666667,0 -1.3333333,0 -2,0 0,-0.6666667 0,-1.3333333 0,-2 z M 7,7.5 c 0,0.3333333 0,0.6666667 0,1 2.3333333,0 4.666667,0 7,0 0,-0.3333333 0,-0.6666667 0,-1 -2.333333,0 -4.6666667,0 -7,0 z M 2,11 c -0.5914534,0.0292 -0.4985949,0.656003 -0.5,1.06305 0,0.812317 0,1.624633 0,2.43695 0.034926,0.604742 0.6833645,0.492673 1.1005864,0.5 C 3.4003909,15 4.2001955,15 5,15 5.6047422,14.965074 5.4926735,14.316635 5.5,13.899414 5.5,13.099609 5.5,12.299805 5.5,11.5 5.4650736,10.895258 4.8166355,11.007327 4.3994136,11 3.5996091,11 2.7998045,11 2,11 Z m 0.5,1 c 0.6666667,0 1.3333333,0 2,0 0,0.666667 0,1.333333 0,2 -0.6666667,0 -1.3333333,0 -2,0 0,-0.666667 0,-1.333333 0,-2 z M 7,12.5 c 0,0.333333 0,0.666667 0,1 2.3333333,0 4.666667,0 7,0 0,-0.333333 0,-0.666667 0,-1 -2.333333,0 -4.6666667,0 -7,0 z"
     id="rect288" />
</svg>
