<?xml version="1.0" encoding="UTF-8" standalone="no"?>
<svg
   id="Layer_1"
   version="1.1"
   viewBox="0 0 16 16"
   xml:space="preserve"
   sodipodi:docname="hicolor_actions_scalable_hb-donate-symbolic.svg"
   width="16"
   height="16"
   inkscape:version="1.1.2 (0a00cf5339, 2022-02-04)"
   xmlns:inkscape="http://www.inkscape.org/namespaces/inkscape"
   xmlns:sodipodi="http://sodipodi.sourceforge.net/DTD/sodipodi-0.dtd"
   xmlns="http://www.w3.org/2000/svg"
   xmlns:svg="http://www.w3.org/2000/svg"
   xmlns:rdf="http://www.w3.org/1999/02/22-rdf-syntax-ns#"
   xmlns:cc="http://creativecommons.org/ns#"
   xmlns:dc="http://purl.org/dc/elements/1.1/"><metadata
     id="metadata13"><rdf:RDF><cc:Work
         rdf:about=""><dc:format>image/svg+xml</dc:format><dc:type
           rdf:resource="http://purl.org/dc/dcmitype/StillImage" /><dc:title /></cc:Work></rdf:RDF></metadata><defs
     id="defs11" /><sodipodi:namedview
     pagecolor="#ffffff"
     bordercolor="#666666"
     borderopacity="1"
     objecttolerance="10"
     gridtolerance="10"
     guidetolerance="10"
     inkscape:pageopacity="0"
     inkscape:pageshadow="2"
     inkscape:window-width="1920"
     inkscape:window-height="1044"
     id="namedview9"
     showgrid="true"
     inkscape:zoom="41.7193"
     inkscape:cx="4.3385196"
     inkscape:cy="7.8380989"
     inkscape:window-x="0"
     inkscape:window-y="0"
     inkscape:window-maximized="1"
     inkscape:current-layer="Layer_1"
     inkscape:snap-global="false"
     inkscape:pagecheckerboard="0"><inkscape:grid
       type="xygrid"
       id="grid815" /></sodipodi:namedview><style
     type="text/css"
     id="style2">
	.st0{fill:#bebebe;}
</style><path
     d="M 7.9999994,15.36 7.1799993,14.62 Q 5.0600008,12.68 3.6800007,11.27 2.3000005,9.86 1.4800006,8.75 0.66000053,7.64 0.32999944,6.7400001 0,5.84 0,4.92 0,3.12 1.2100001,1.91 2.4200001,0.7 4.2000007,0.7 5.3399998,0.7 6.3100006,1.2400001 7.2799998,1.7799999 7.9999994,2.7999999 8.8399998,1.72 9.7799999,1.2100001 10.72,0.7 11.799999,0.7 13.58,0.7 14.79,1.91 16,3.12 16,4.92 16,5.84 15.669999,6.7400001 15.34,7.64 14.52,8.75 13.7,9.86 12.319999,11.27 10.94,12.68 8.8199999,14.62 Z m 0,-1.58 Q 10.02,11.92 11.33,10.59 q 1.309999,-1.33 2.08,-2.33 0.77,-1 1.080001,-1.78 0.31,-0.78 0.31,-1.56 0,-1.32 -0.840001,-2.17 Q 13.12,1.9 11.799999,1.9 10.78,1.9 9.8999999,2.5299999 9.0199998,3.16 8.4799999,4.3 H 7.5 Q 6.9799999,3.1799999 6.0999994,2.54 5.2200003,1.9 4.2000009,1.9 2.8799998,1.9 2.0400006,2.75 1.1999998,3.6 1.1999998,4.92 q 0,0.78 0.3100003,1.57 0.3100003,0.79 1.0800001,1.8 Q 3.36,9.3 4.6799995,10.62 q 1.3200009,1.32 3.3199999,3.16 z m 0,-5.9400001 z"
     id="path91"
     style="stroke-width:0.4;fill:#bebebe" /></svg>
