<?xml version="1.0" encoding="UTF-8" standalone="no"?>
<!-- Created with Inkscape (http://www.inkscape.org/) -->

<svg
   id="svg7384"
   height="16"
   width="16"
   version="1.1"
   inkscape:version="1.2.2 (b0a8486541, 2022-12-01)"
   sodipodi:docname="hicolor_actions_scalable_hb-rep-stats-symbolic.svg"
   xmlns:inkscape="http://www.inkscape.org/namespaces/inkscape"
   xmlns:sodipodi="http://sodipodi.sourceforge.net/DTD/sodipodi-0.dtd"
   xmlns="http://www.w3.org/2000/svg"
   xmlns:svg="http://www.w3.org/2000/svg"
   xmlns:rdf="http://www.w3.org/1999/02/22-rdf-syntax-ns#"
   xmlns:cc="http://creativecommons.org/ns#"
   xmlns:dc="http://purl.org/dc/elements/1.1/">
  <title
     id="title1050">Report Stats</title>
  <path
     id="path92"
     style="fill:#bebebe;stroke-width:0.349999"
     d="M 8.5250002,7.4749995 H 13.932499 C 13.804166,6.0516663 13.229584,4.8179165 12.208749,3.7737498 11.187916,2.7295832 9.9600001,2.1608333 8.5250002,2.0675 Z M 7.4750003,13.932499 V 2.0675 C 5.9466668,2.1958334 4.6604165,2.8316666 3.6162494,3.975 2.5720834,5.1183333 2.0500003,6.4599997 2.0500003,7.9999995 c 0,1.5399995 0.5220831,2.8816665 1.5662491,4.0250015 1.0441671,1.143332 2.3304174,1.779165 3.8587509,1.907498 z m 1.0499999,0 c 1.4349999,-0.09333 2.6629158,-0.66208 3.6837488,-1.706251 1.020835,-1.044165 1.595417,-2.2779152 1.72375,-3.7012486 H 8.5250002 Z M 8.0000002,15 C 7.0316669,15 6.1216669,14.81625 5.2700006,14.448748 4.4183335,14.081248 3.6774999,13.582498 3.0475,12.952499 2.4174998,12.322501 1.9187498,11.581667 1.5512503,10.729999 1.1837502,9.878332 1,8.9683324 1,7.9999995 1,7.0316662 1.1837502,6.1216663 1.5512503,5.2699997 1.9187498,4.418333 2.4174998,3.6774997 3.0475,3.0474998 3.6774999,2.4174999 4.4183335,1.91875 5.2700006,1.5512499 6.1216669,1.1837498 7.0316669,1 8.0000002,1 c 0.9683339,0 1.878334,0.1837498 2.7300008,0.5512499 0.851665,0.3675001 1.5925,0.86625 2.222499,1.4962499 0.629998,0.6299999 1.128751,1.3708332 1.496249,2.2224999 C 14.81625,6.1216663 15,7.0316662 15,7.9999995 c 0,0.9683329 -0.18375,1.8783325 -0.551251,2.7299995 -0.367498,0.851668 -0.866251,1.592502 -1.496249,2.2225 -0.629999,0.629999 -1.370834,1.128749 -2.222499,1.496249 C 9.8783342,14.81625 8.9683341,15 8.0000002,15 Z"
     sodipodi:nodetypes="ccsccccsssccscccsssssssssssssssss" />
  <defs
     id="defs9" />
  <sodipodi:namedview
     pagecolor="#ffffff"
     bordercolor="#666666"
     borderopacity="1"
     objecttolerance="10"
     gridtolerance="10"
     guidetolerance="10"
     inkscape:pageopacity="0"
     inkscape:pageshadow="2"
     inkscape:window-width="1920"
     inkscape:window-height="1003"
     id="namedview7"
     showgrid="true"
     inkscape:zoom="32"
     inkscape:cx="10.796875"
     inkscape:cy="8.3125"
     inkscape:window-x="1440"
     inkscape:window-y="0"
     inkscape:window-maximized="1"
     inkscape:current-layer="svg7384"
     inkscape:snap-global="false"
     inkscape:pagecheckerboard="0"
     inkscape:showpageshadow="0"
     inkscape:deskcolor="#d1d1d1">
    <inkscape:grid
       type="xygrid"
       id="grid814"
       empspacing="2" />
  </sodipodi:namedview>
  <metadata
     id="metadata90">
    <rdf:RDF>
      <cc:Work
         rdf:about="">
        <dc:format>image/svg+xml</dc:format>
        <dc:type
           rdf:resource="http://purl.org/dc/dcmitype/StillImage" />
        <dc:creator>
          <cc:Agent>
            <dc:title>Maxime DOYEN</dc:title>
          </cc:Agent>
        </dc:creator>
        <dc:source>https://www.gethomebank.org</dc:source>
        <dc:title>Report Stats</dc:title>
      </cc:Work>
    </rdf:RDF>
  </metadata>
  <g
     id="g831"
     transform="matrix(0.02222222,0,0,0.02222222,-2.6666667,18.666667)" />
</svg>
