<?xml version="1.0" encoding="UTF-8" standalone="no"?>
<!-- Created with Inkscape (http://www.inkscape.org/) -->

<svg
   width="16"
   height="16"
   id="svg2"
   sodipodi:version="0.32"
   inkscape:version="1.2.2 (b0a8486541, 2022-12-01)"
   version="1.0"
   sodipodi:docname="hicolor_status_scalable_prf-interface-color-symbolic.svg"
   inkscape:output_extension="org.inkscape.output.svg.inkscape"
   xml:space="preserve"
   xmlns:inkscape="http://www.inkscape.org/namespaces/inkscape"
   xmlns:sodipodi="http://sodipodi.sourceforge.net/DTD/sodipodi-0.dtd"
   xmlns="http://www.w3.org/2000/svg"
   xmlns:svg="http://www.w3.org/2000/svg"
   xmlns:rdf="http://www.w3.org/1999/02/22-rdf-syntax-ns#"
   xmlns:cc="http://creativecommons.org/ns#"
   xmlns:dc="http://purl.org/dc/elements/1.1/"><defs
     id="defs4"><inkscape:perspective
       sodipodi:type="inkscape:persp3d"
       inkscape:vp_x="0 : 494.18109 : 1"
       inkscape:vp_y="0 : 1000 : 0"
       inkscape:vp_z="744.09448 : 494.18109 : 1"
       inkscape:persp3d-origin="372.04724 : 318.78739 : 1"
       id="perspective10" /></defs><sodipodi:namedview
     id="base"
     pagecolor="#ffffff"
     bordercolor="#666666"
     borderopacity="1.0"
     gridtolerance="10000"
     guidetolerance="10"
     objecttolerance="10"
     inkscape:pageopacity="0.0"
     inkscape:pageshadow="2"
     inkscape:zoom="10.291667"
     inkscape:cx="11.222672"
     inkscape:cy="24.291497"
     inkscape:document-units="px"
     inkscape:current-layer="layer1"
     showgrid="true"
     inkscape:window-width="1920"
     inkscape:window-height="1003"
     inkscape:window-x="1280"
     inkscape:window-y="0"
     inkscape:pagecheckerboard="0"
     inkscape:window-maximized="1"
     inkscape:showpageshadow="0"
     inkscape:deskcolor="#d1d1d1"><inkscape:grid
       type="xygrid"
       id="grid133"
       originx="0"
       originy="0" /></sodipodi:namedview><metadata
     id="metadata7"><rdf:RDF><cc:Work
         rdf:about=""><dc:format>image/svg+xml</dc:format><dc:type
           rdf:resource="http://purl.org/dc/dcmitype/StillImage" /></cc:Work></rdf:RDF></metadata><g
     inkscape:label="Layer 1"
     inkscape:groupmode="layer"
     id="layer1"><g
       style="fill:#5f6368;stroke-width:1.42857"
       id="g248"
       transform="matrix(0.0175,0,0,0.0175,-0.4,16.4)"><path
         d="m 480,-80 q -82,0 -155,-31.5 -73,-31.5 -127.5,-86 Q 143,-252 111.5,-325 80,-398 80,-480 q 0,-83 32.5,-156 32.5,-73 88,-127 55.5,-54 129.5,-85.5 74,-31.5 158,-31.5 80,0 151,27.5 71,27.5 124.5,76 53.5,48.5 85,115 31.5,66.5 31.5,143.5 0,115 -70,176.5 -70,61.5 -170,61.5 h -74 q -9,0 -12.5,5 -3.5,5 -3.5,11 0,12 15,34.5 15,22.5 15,51.5 0,50 -27.5,74 -27.5,24 -72.5,24 z m 0,-400 z m -220,40 q 26,0 43,-17 17,-17 17,-43 0,-26 -17,-43 -17,-17 -43,-17 -26,0 -43,17 -17,17 -17,43 0,26 17,43 17,17 43,17 z m 120,-160 q 26,0 43,-17 17,-17 17,-43 0,-26 -17,-43 -17,-17 -43,-17 -26,0 -43,17 -17,17 -17,43 0,26 17,43 17,17 43,17 z m 200,0 q 26,0 43,-17 17,-17 17,-43 0,-26 -17,-43 -17,-17 -43,-17 -26,0 -43,17 -17,17 -17,43 0,26 17,43 17,17 43,17 z m 120,160 q 26,0 43,-17 17,-17 17,-43 0,-26 -17,-43 -17,-17 -43,-17 -26,0 -43,17 -17,17 -17,43 0,26 17,43 17,17 43,17 z m -220,280 q 9,0 14.5,-5 5.5,-5 5.5,-13 0,-14 -15,-33 -15,-19 -15,-57 0,-42 29,-67 29,-25 71,-25 h 70 q 66,0 113,-38.5 47,-38.5 47,-119.5 0,-121 -92.5,-201.5 Q 615,-800 488,-800 q -136,0 -232,93 -96,93 -96,227 0,133 93.5,226.5 Q 347,-160 480,-160 Z"
         id="path239"
         style="fill:#bebebe;stroke-width:1.42857" /></g></g></svg>
