<?xml version="1.0" encoding="UTF-8" standalone="no"?>
<!-- Created with Inkscape (http://www.inkscape.org/) -->

<svg
   id="svg7384"
   height="16"
   width="16"
   version="1.1"
   inkscape:version="1.2.2 (b0a8486541, 2022-12-01)"
   sodipodi:docname="hicolor_actions_scalable_hb-category-symbolic.svg"
   xmlns:inkscape="http://www.inkscape.org/namespaces/inkscape"
   xmlns:sodipodi="http://sodipodi.sourceforge.net/DTD/sodipodi-0.dtd"
   xmlns="http://www.w3.org/2000/svg"
   xmlns:svg="http://www.w3.org/2000/svg"
   xmlns:rdf="http://www.w3.org/1999/02/22-rdf-syntax-ns#"
   xmlns:cc="http://creativecommons.org/ns#"
   xmlns:dc="http://purl.org/dc/elements/1.1/">
  <title
     id="title1049">Category</title>
  <defs
     id="defs10" />
  <sodipodi:namedview
     pagecolor="#ffffff"
     bordercolor="#666666"
     borderopacity="1"
     objecttolerance="10"
     gridtolerance="10"
     guidetolerance="10"
     inkscape:pageopacity="0"
     inkscape:pageshadow="2"
     inkscape:window-width="1920"
     inkscape:window-height="1003"
     id="namedview8"
     showgrid="true"
     inkscape:zoom="24.28894"
     inkscape:cx="1.0910316"
     inkscape:cy="6.4226763"
     inkscape:window-x="1440"
     inkscape:window-y="0"
     inkscape:window-maximized="1"
     inkscape:current-layer="svg7384"
     inkscape:lockguides="false"
     inkscape:pagecheckerboard="0"
     inkscape:showpageshadow="0"
     inkscape:deskcolor="#d1d1d1">
    <inkscape:grid
       type="xygrid"
       id="grid3207"
       originx="0"
       originy="0"
       spacingx="1.0666667"
       spacingy="1.0666667" />
  </sodipodi:namedview>
  <metadata
     id="metadata90">
    <rdf:RDF>
      <cc:Work
         rdf:about="">
        <dc:format>image/svg+xml</dc:format>
        <dc:type
           rdf:resource="http://purl.org/dc/dcmitype/StillImage" />
        <dc:creator>
          <cc:Agent>
            <dc:title>Maxime DOYEN</dc:title>
          </cc:Agent>
        </dc:creator>
        <dc:source>https://www.gethomebank.org</dc:source>
        <dc:title>Category</dc:title>
      </cc:Work>
    </rdf:RDF>
  </metadata>
  <path
     d="M 3.7675004,7.095 7.6175002,0.9 11.4675,7.095 Z m 7.7874986,7.805001 q -1.295,0 -2.169999,-0.874999 -0.8749999,-0.875001 -0.8749999,-2.17 0,-1.295001 0.8749999,-2.1700015 0.874999,-0.8750003 2.169999,-0.8750003 1.295001,0 2.170001,0.8750003 0.874999,0.8750005 0.874999,2.1700015 0,1.294999 -0.874999,2.17 -0.875,0.874999 -2.170001,0.874999 z M 1.3,14.462501 V 9.1425001 H 6.6200001 V 14.462501 Z M 11.554999,13.85 q 0.84,0 1.4175,-0.577501 0.5775,-0.5775 0.5775,-1.417498 0,-0.840002 -0.5775,-1.417501 -0.5775,-0.5775 -1.4175,-0.5775 -0.839999,0 -1.417499,0.5775 -0.5775003,0.577501 -0.5775003,1.417501 0,0.84 0.5775003,1.417499 0.5775,0.5775 1.417499,0.5775 z M 2.3500002,13.412502 H 5.5700001 V 10.192501 H 2.3500002 Z M 5.6575001,6.0449999 H 9.5774995 L 7.6175002,2.8774996 Z m 1.9600001,0 z M 5.5700001,10.192501 Z m 5.9849989,1.662501 z"
     id="path89"
     style="fill:#bebebe;stroke-width:0.35" />
</svg>
