<?xml version="1.0" encoding="UTF-8" standalone="no"?>
<!-- Created with Inkscape (http://www.inkscape.org/) -->

<svg
   id="svg7384"
   height="16"
   width="16"
   version="1.1"
   inkscape:version="1.2.2 (b0a8486541, 2022-12-01)"
   sodipodi:docname="hicolor_status_scalable_hb-item-budget-symbolic.svg"
   xmlns:inkscape="http://www.inkscape.org/namespaces/inkscape"
   xmlns:sodipodi="http://sodipodi.sourceforge.net/DTD/sodipodi-0.dtd"
   xmlns="http://www.w3.org/2000/svg"
   xmlns:svg="http://www.w3.org/2000/svg"
   xmlns:rdf="http://www.w3.org/1999/02/22-rdf-syntax-ns#"
   xmlns:cc="http://creativecommons.org/ns#"
   xmlns:dc="http://purl.org/dc/elements/1.1/">
  <title
     id="title1155">Item Budget</title>
  <defs
     id="defs9" />
  <sodipodi:namedview
     pagecolor="#ffffff"
     bordercolor="#666666"
     borderopacity="1"
     objecttolerance="10"
     gridtolerance="10"
     guidetolerance="10"
     inkscape:pageopacity="0"
     inkscape:pageshadow="2"
     inkscape:window-width="1920"
     inkscape:window-height="1003"
     id="namedview7"
     showgrid="true"
     inkscape:zoom="33.122931"
     inkscape:cx="5.7814932"
     inkscape:cy="8.7854544"
     inkscape:window-x="1440"
     inkscape:window-y="0"
     inkscape:window-maximized="1"
     inkscape:current-layer="svg7384"
     inkscape:snap-global="false"
     inkscape:showpageshadow="0"
     inkscape:pagecheckerboard="1"
     inkscape:deskcolor="#d1d1d1">
    <inkscape:grid
       type="xygrid"
       id="grid4488" />
  </sodipodi:namedview>
  <metadata
     id="metadata90">
    <rdf:RDF>
      <cc:Work
         rdf:about="">
        <dc:format>image/svg+xml</dc:format>
        <dc:type
           rdf:resource="http://purl.org/dc/dcmitype/StillImage" />
        <dc:creator>
          <cc:Agent>
            <dc:title>Maxime DOYEN</dc:title>
          </cc:Agent>
        </dc:creator>
        <dc:source>https://www.gethomebank.org</dc:source>
        <dc:title>Item Budget</dc:title>
      </cc:Work>
    </rdf:RDF>
  </metadata>
  <path
     style="color:#000000;font-style:normal;font-variant:normal;font-weight:normal;font-stretch:normal;font-size:medium;line-height:normal;font-family:sans-serif;font-variant-ligatures:normal;font-variant-position:normal;font-variant-caps:normal;font-variant-numeric:normal;font-variant-alternates:normal;font-feature-settings:normal;text-indent:0;text-align:start;text-decoration:none;text-decoration-line:none;text-decoration-style:solid;text-decoration-color:#000000;letter-spacing:normal;word-spacing:normal;text-transform:none;writing-mode:lr-tb;direction:ltr;text-orientation:mixed;dominant-baseline:auto;baseline-shift:baseline;text-anchor:start;white-space:normal;shape-padding:0;clip-rule:nonzero;display:inline;overflow:visible;visibility:visible;opacity:1;isolation:auto;mix-blend-mode:normal;color-interpolation:sRGB;color-interpolation-filters:linearRGB;solid-color:#000000;solid-opacity:1;vector-effect:none;fill:#bebebe;fill-opacity:1;fill-rule:nonzero;stroke:none;stroke-width:1;stroke-linecap:butt;stroke-linejoin:miter;stroke-miterlimit:4;stroke-dasharray:none;stroke-dashoffset:0;stroke-opacity:1;paint-order:normal;color-rendering:auto;image-rendering:auto;shape-rendering:auto;text-rendering:auto;enable-background:accumulate"
     d="M 8.0078125 0 C 7.8844907 -0.0018213358 7.7648478 0.041797985 7.671875 0.12304688 L 6.6621094 1 L 9.3378906 1 L 8.328125 0.12304688 C 8.239256 0.045336485 8.1257543 0.0019572142 8.0078125 0 z M 2 5.0527344 L 0.171875 6.640625 C 0.07134155 6.7287698 0.010155555 6.8526838 0.001953125 6.9863281 L 0 6.9863281 L 0 13.769531 C 0 14.948905 0.80760652 16 1.9199219 16 L 14.080078 16 C 15.192393 16 16 14.948906 16 13.769531 L 16 6.9863281 L 15.998047 6.9863281 C 15.989847 6.8526838 15.928657 6.7287698 15.828125 6.640625 L 14 5.0527344 L 14 6.3789062 L 14.666016 6.9570312 L 9.8535156 11.027344 L 6.1464844 11.027344 L 1.3339844 6.9570312 L 2 6.3789062 L 2 5.0527344 z M 1 7.9296875 L 5.1777344 11.597656 L 1.0859375 14.287109 C 1.0322316 14.133543 1 13.960312 1 13.769531 L 1 7.9296875 z M 15 7.9296875 L 15 13.769531 C 15 13.960311 14.967773 14.133543 14.914062 14.287109 L 10.822266 11.597656 L 15 7.9296875 z M 6.1914062 12.03125 L 9.8085938 12.03125 L 14.179688 14.972656 C 14.146017 14.977856 14.113928 14.998047 14.080078 14.998047 L 1.9199219 14.998047 C 1.8860709 14.998047 1.8539805 14.977886 1.8203125 14.972656 L 6.1914062 12.03125 z "
     id="rect846" />
  <path
     style="color:#000000;font-style:normal;font-variant:normal;font-weight:normal;font-stretch:normal;font-size:medium;line-height:normal;font-family:sans-serif;font-variant-ligatures:normal;font-variant-position:normal;font-variant-caps:normal;font-variant-numeric:normal;font-variant-alternates:normal;font-feature-settings:normal;text-indent:0;text-align:start;text-decoration:none;text-decoration-line:none;text-decoration-style:solid;text-decoration-color:#000000;letter-spacing:normal;word-spacing:normal;text-transform:none;writing-mode:lr-tb;direction:ltr;text-orientation:mixed;dominant-baseline:auto;baseline-shift:baseline;text-anchor:start;white-space:normal;shape-padding:0;clip-rule:nonzero;display:inline;overflow:visible;visibility:visible;opacity:1;isolation:auto;mix-blend-mode:normal;color-interpolation:sRGB;color-interpolation-filters:linearRGB;solid-color:#000000;solid-opacity:1;vector-effect:none;fill:#bebebe;fill-opacity:1;fill-rule:nonzero;stroke:none;stroke-width:1;stroke-linecap:butt;stroke-linejoin:miter;stroke-miterlimit:4;stroke-dasharray:none;stroke-dashoffset:0;stroke-opacity:1;paint-order:normal;color-rendering:auto;image-rendering:auto;shape-rendering:auto;text-rendering:auto;enable-background:accumulate"
     d="M 3.5410156,1 C 3.0701149,1 2.6606168,1.2629222 2.4003906,1.6171875 2.1401644,1.9714528 2,2.4250579 2,2.9160156 V 8.5 H 3 V 2.9160156 C 3,2.6221759 3.0910922,2.368774 3.2070312,2.2109375 3.3229703,2.053101 3.4354414,2 3.5410156,2 h 8.9179684 c 0.105575,0 0.218046,0.053101 0.333985,0.2109375 C 12.908908,2.3687739 13,2.6221759 13,2.9160156 V 8.5 h 1 V 2.9160156 C 14,2.4250579 13.859836,1.9714528 13.599609,1.6171875 13.339383,1.2629222 12.929885,1 12.458984,1 Z"
     id="path851"
     inkscape:connector-curvature="0" />
  <path
     style="font-style:normal;font-weight:normal;font-size:18.95904922px;line-height:125%;font-family:sans-serif;letter-spacing:0px;word-spacing:0px;fill:#bebebe;fill-opacity:1;stroke:none;stroke-width:1.06666672px;stroke-linecap:butt;stroke-linejoin:miter;stroke-opacity:1;opacity:0.35"
     d="M 9.6078736,7.7900962 C 9.7385829,8.1046698 9.8692909,8.4192433 9.9999999,8.7338171 9.2314742,9.2370101 8.3511491,8.9106496 7.5563607,8.698314 7.0504809,8.381358 6.3810211,9.44046 6.25491,8.6204232 5.9313866,8.1586574 6.1290463,7.8815201 6.5126205,7.5556536 6.8017591,7.1708441 7.036764,6.2352645 6.3393828,6.4577834 5.9435407,6.5990101 6.0221691,6.2220653 6.0279086,5.9247215 5.8993472,5.4922131 6.2412956,5.5735535 6.5160135,5.5814713 6.5606071,5.1575837 6.2642312,4.2226355 6.7205404,3.7138542 7.4553205,2.6293795 9.4009813,2.7753084 9.7324558,4.1874495 10.009746,4.7218121 9.3333395,4.5413369 9.0540484,4.6549479 8.5745961,4.812304 8.6788817,3.5775509 7.9728819,3.9096366 7.2644117,3.9791011 7.2653631,5.5162655 7.8400636,5.5814713 c 0.3036468,0 0.607295,0 0.9109418,0 0,0.2921033 0,0.5842077 0,0.8763121 -0.3219294,0 -0.64386,0 -0.9657894,0 C 7.9999106,6.9703622 7.281474,7.7660416 7.3467967,7.8604789 8.0642669,7.6016685 8.8010348,8.2986742 9.496227,7.8421433 l 0.1116529,-0.052046 z"
     id="text3268"
     inkscape:connector-curvature="0" />
</svg>
