<?xml version="1.0" encoding="UTF-8" standalone="no"?>
<!-- Created with Inkscape (http://www.inkscape.org/) -->

<svg
   id="svg7384"
   height="16"
   width="16"
   version="1.1"
   sodipodi:docname="hicolor_actions_scalable_hb-ope-delete-symbolic.svg"
   inkscape:version="1.2.2 (b0a8486541, 2022-12-01)"
   xmlns:inkscape="http://www.inkscape.org/namespaces/inkscape"
   xmlns:sodipodi="http://sodipodi.sourceforge.net/DTD/sodipodi-0.dtd"
   xmlns="http://www.w3.org/2000/svg"
   xmlns:svg="http://www.w3.org/2000/svg"
   xmlns:rdf="http://www.w3.org/1999/02/22-rdf-syntax-ns#"
   xmlns:cc="http://creativecommons.org/ns#"
   xmlns:dc="http://purl.org/dc/elements/1.1/">
  <title
     id="title1153">Txn Delete</title>
  <defs
     id="defs9" />
  <sodipodi:namedview
     pagecolor="#ffffff"
     bordercolor="#666666"
     borderopacity="1"
     objecttolerance="10"
     gridtolerance="10"
     guidetolerance="10"
     inkscape:pageopacity="0"
     inkscape:pageshadow="2"
     inkscape:window-width="1920"
     inkscape:window-height="1003"
     id="namedview7"
     showgrid="true"
     inkscape:zoom="83.4386"
     inkscape:cx="10.121215"
     inkscape:cy="10.79836"
     inkscape:window-x="1440"
     inkscape:window-y="0"
     inkscape:window-maximized="1"
     inkscape:current-layer="svg7384"
     inkscape:snap-global="false"
     inkscape:pagecheckerboard="0"
     inkscape:showpageshadow="0"
     inkscape:deskcolor="#d1d1d1">
    <inkscape:grid
       type="xygrid"
       id="grid825" />
  </sodipodi:namedview>
  <metadata
     id="metadata90">
    <rdf:RDF>
      <cc:Work
         rdf:about="">
        <dc:format>image/svg+xml</dc:format>
        <dc:type
           rdf:resource="http://purl.org/dc/dcmitype/StillImage" />
        <dc:creator>
          <cc:Agent>
            <dc:title>Maxime DOYEN</dc:title>
          </cc:Agent>
        </dc:creator>
        <dc:source>https://www.gethomebank.org</dc:source>
        <dc:title>Txn Delete</dc:title>
      </cc:Work>
    </rdf:RDF>
  </metadata>
  <path
     id="path2"
     style="fill:#bebebe;stroke-width:0.0175"
     d="m 3.4003906,0.69921875 c -0.3849996,0 -0.7141149,0.13794294 -0.9882812,0.41210935 C 2.1379428,1.3854945 2,1.7146097 2,2.0996094 v 9.8007816 c 0,0.384999 0.1379428,0.714114 0.4121094,0.988281 0.2741663,0.274166 0.6032816,0.412109 0.9882812,0.412109 h 4.671875 C 7.9672655,13.090782 7.8766144,12.868099 7.8007812,12.634766 7.7249481,12.401432 7.6697656,12.157056 7.6347656,11.900391 H 3.4003906 V 11.199219 6.3515625 6.3007812 2.0996094 h 9.7988284 v 4.2519531 c 0.245,0.035 0.485417,0.092135 0.71875,0.1679687 0.233334,0.075833 0.459975,0.1645313 0.68164,0.2695313 V 2.0996094 c 0,-0.3849997 -0.135989,-0.7141149 -0.410156,-0.9882813 C 13.915286,0.83716169 13.584218,0.69921875 13.199219,0.69921875 Z M 4.8007812,3.5 V 4.9003906 H 11.800781 V 3.5 Z M 0,5.3007812 V 14.054688 C 0,14.398631 0.12239604,14.69257 0.3671875,14.9375 0.61197996,15.182429 0.90625047,15.304687 1.25,15.304688 H 10 v -1.25 H 1.25 V 5.3007812 Z m 4.8007812,1 V 7.6992188 H 9.0703125 C 9.4436454,7.3492192 9.85948,7.0575518 10.320312,6.8242188 10.781146,6.5908855 11.275783,6.433229 11.800781,6.3515625 V 6.3007812 Z M 12.5,7.6992188 c -0.968332,0 -1.794062,0.3409381 -2.476562,1.0234374 C 9.3409372,9.4051555 9,10.230887 9,11.199219 c 0,0.968332 0.3409372,1.794063 1.023438,2.476562 0.6825,0.6825 1.50823,1.023438 2.476562,1.023438 0.968332,0 1.794064,-0.340938 2.476562,-1.023438 C 15.659064,12.993282 16,12.167551 16,11.199219 16,10.230887 15.659064,9.4051555 14.976562,8.7226562 14.294065,8.0401569 13.468332,7.6992187 12.5,7.6992188 Z M 4.8007812,9.0996094 V 10.5 h 2.8515626 c 0.035,-0.244999 0.090182,-0.483464 0.1660156,-0.7167969 0.075833,-0.2333329 0.1605729,-0.4619272 0.2539062,-0.6835937 z m 7.1718748,0.070312 h 1.050782 v 0.5234375 h 1.3125 v 0.7890626 h -0.325384 v 2.099609 c 0,0.21875 -0.07734,0.403516 -0.230469,0.556641 -0.153125,0.153128 -0.337892,0.230469 -0.55664,0.230469 h -1.45089 c -0.218752,0 -0.403516,-0.07734 -0.55664,-0.230469 -0.153137,-0.153125 -0.230469,-0.337891 -0.230469,-0.556641 v -2.099609 h -0.32529 V 9.6933594 h 1.3125 z m -0.200101,1.3125001 v 2.099609 h 1.45089 v -2.099609 z"
     sodipodi:nodetypes="sssssscsccccccccscssssccccccsscccccccccscccssssssscscccsccccccccsssscscccccccccc" />
</svg>
