<?xml version="1.0" encoding="UTF-8" standalone="no"?>
<!-- Created with Inkscape (http://www.inkscape.org/) -->

<svg
   width="16"
   height="16"
   viewBox="0 0 4.2333332 4.2333332"
   version="1.1"
   id="svg829"
   sodipodi:docname="hicolor_status_scalable_prf-locale-symbolic.svg"
   inkscape:version="1.1.2 (0a00cf5339, 2022-02-04)"
   xmlns:inkscape="http://www.inkscape.org/namespaces/inkscape"
   xmlns:sodipodi="http://sodipodi.sourceforge.net/DTD/sodipodi-0.dtd"
   xmlns="http://www.w3.org/2000/svg"
   xmlns:svg="http://www.w3.org/2000/svg"
   xmlns:rdf="http://www.w3.org/1999/02/22-rdf-syntax-ns#"
   xmlns:cc="http://creativecommons.org/ns#"
   xmlns:dc="http://purl.org/dc/elements/1.1/">
  <defs
     id="defs823" />
  <sodipodi:namedview
     id="base"
     pagecolor="#ffffff"
     bordercolor="#666666"
     borderopacity="1.0"
     inkscape:pageopacity="0.0"
     inkscape:pageshadow="2"
     inkscape:zoom="31.678384"
     inkscape:cx="-1.894036"
     inkscape:cy="8.5389457"
     inkscape:document-units="mm"
     inkscape:current-layer="layer1"
     showgrid="true"
     units="px"
     inkscape:snap-global="false"
     inkscape:window-width="1920"
     inkscape:window-height="1043"
     inkscape:window-x="0"
     inkscape:window-y="0"
     inkscape:window-maximized="1"
     inkscape:pagecheckerboard="0">
    <inkscape:grid
       type="xygrid"
       id="grid1374" />
  </sodipodi:namedview>
  <metadata
     id="metadata826">
    <rdf:RDF>
      <cc:Work
         rdf:about="">
        <dc:format>image/svg+xml</dc:format>
        <dc:type
           rdf:resource="http://purl.org/dc/dcmitype/StillImage" />
      </cc:Work>
    </rdf:RDF>
  </metadata>
  <g
     inkscape:label="Layer 1"
     inkscape:groupmode="layer"
     id="layer1"
     transform="translate(0,-292.76667)">
    <path
       d="m 2.1166667,296.73542 q -0.3796772,0 -0.7176823,-0.14586 -0.3380052,-0.14584 -0.59035157,-0.39819 -0.2523464,-0.25234 -0.39819792,-0.59035 -0.14585158,-0.33801 -0.14585158,-0.71769 0,-0.3843 0.14585158,-0.72 0.14585152,-0.33568 0.39819792,-0.58803 0.25234637,-0.25235 0.59035157,-0.3982 0.3380051,-0.14585 0.7176823,-0.14585 0.3843072,0 0.7199974,0.14585 0.33569,0.14585 0.5880364,0.3982 0.2523464,0.25235 0.3981979,0.58803 0.1458516,0.3357 0.1458516,0.72 0,0.37968 -0.1458516,0.71769 -0.1458515,0.33801 -0.3981979,0.59035 -0.2523464,0.25235 -0.5880364,0.39819 -0.3356902,0.14586 -0.7199974,0.14586 z m 0,-0.37968 Q 2.2370521,296.18905 2.325026,296.00847 2.413,295.8279 2.4685625,295.62417 H 1.7647708 q 0.055562,0.20373 0.1435365,0.3843 0.087974,0.18058 0.2083594,0.34727 z m -0.4815417,-0.0741 q -0.083344,-0.1528 -0.1458516,-0.31717 -0.062508,-0.16437 -0.1041796,-0.34032 H 0.83872913 q 0.13427603,0.23151 0.33569017,0.40282 0.201414,0.17132 0.4607057,0.25467 z m 0.9630833,0 q 0.2592917,-0.0833 0.4607057,-0.25467 0.2014141,-0.17131 0.3356902,-0.40282 H 2.8482395 q -0.041672,0.17595 -0.1041796,0.34032 -0.062508,0.16437 -0.1458516,0.31717 z M 0.68130208,295.25375 H 1.3110104 q -0.013891,-0.0926 -0.020836,-0.18289 -0.00694,-0.0903 -0.00694,-0.18753 0,-0.0972 0.00694,-0.18752 0.00694,-0.0903 0.020836,-0.18289 H 0.68130208 q -0.0231511,0.0926 -0.0347263,0.18289 -0.0115752,0.0903 -0.0115752,0.18752 0,0.0972 0.0115752,0.18753 0.0115752,0.0903 0.0347263,0.18289 z m 1.00012502,0 h 0.8704791 q 0.013891,-0.0926 0.020836,-0.18289 0.00694,-0.0903 0.00694,-0.18753 0,-0.0972 -0.00694,-0.18752 -0.00694,-0.0903 -0.020836,-0.18289 H 1.6814271 q -0.013891,0.0926 -0.020836,0.18289 -0.00694,0.0903 -0.00694,0.18752 0,0.0972 0.00694,0.18753 0.00694,0.0903 0.020836,0.18289 z m 1.2408958,0 h 0.6297083 q 0.023151,-0.0926 0.034726,-0.18289 0.011576,-0.0903 0.011576,-0.18753 0,-0.0972 -0.011576,-0.18752 -0.011575,-0.0903 -0.034726,-0.18289 H 2.9223229 q 0.013891,0.0926 0.020836,0.18289 0.00694,0.0903 0.00694,0.18752 0,0.0972 -0.00694,0.18753 -0.00694,0.0903 -0.020836,0.18289 z m -0.074083,-1.11125 h 0.5463647 q -0.1342761,-0.23151 -0.3356902,-0.40283 -0.201414,-0.17132 -0.4607057,-0.25466 0.083344,0.1528 0.1458516,0.31717 0.062508,0.16437 0.1041796,0.34032 z m -1.0834687,0 H 2.4685625 Q 2.413,293.93877 2.325026,293.75819 q -0.087974,-0.18058 -0.2083593,-0.34726 -0.1203855,0.16668 -0.2083594,0.34726 -0.087974,0.18058 -0.1435361,0.38431 z m -0.92604167,0 H 1.3850938 q 0.041672,-0.17595 0.1041796,-0.34032 0.062508,-0.16437 0.1458516,-0.31717 -0.2592917,0.0833 -0.4607057,0.25466 -0.20141414,0.17132 -0.33568977,0.40283 z"
       id="path2"
       style="fill:#bebebe;stroke-width:0.00463021;" />
  </g>
</svg>
