<?xml version="1.0" encoding="UTF-8" standalone="no"?>
<!-- Created with Inkscape (http://www.inkscape.org/) -->

<svg
   id="svg7384"
   height="16"
   width="16"
   version="1.1"
   inkscape:version="1.2.2 (b0a8486541, 2022-12-01)"
   sodipodi:docname="hicolor_actions_scalable_hb-rep-time-symbolic.svg"
   xml:space="preserve"
   xmlns:inkscape="http://www.inkscape.org/namespaces/inkscape"
   xmlns:sodipodi="http://sodipodi.sourceforge.net/DTD/sodipodi-0.dtd"
   xmlns="http://www.w3.org/2000/svg"
   xmlns:svg="http://www.w3.org/2000/svg"
   xmlns:rdf="http://www.w3.org/1999/02/22-rdf-syntax-ns#"
   xmlns:cc="http://creativecommons.org/ns#"
   xmlns:dc="http://purl.org/dc/elements/1.1/"><title
     id="title1049">Report Trend Time</title><defs
     id="defs12" /><sodipodi:namedview
     pagecolor="#ffffff"
     bordercolor="#666666"
     borderopacity="1"
     objecttolerance="10"
     gridtolerance="10"
     guidetolerance="10"
     inkscape:pageopacity="0"
     inkscape:pageshadow="2"
     inkscape:window-width="1920"
     inkscape:window-height="1003"
     id="namedview10"
     showgrid="true"
     inkscape:zoom="30.635061"
     inkscape:cx="14.150453"
     inkscape:cy="11.131037"
     inkscape:window-x="1440"
     inkscape:window-y="0"
     inkscape:window-maximized="1"
     inkscape:current-layer="svg7384"
     inkscape:pagecheckerboard="0"
     inkscape:showpageshadow="0"
     inkscape:deskcolor="#d1d1d1"><inkscape:grid
       type="xygrid"
       id="grid3168"
       originx="0"
       originy="0"
       spacingx="1.0666667"
       spacingy="1.0666667" /></sodipodi:namedview><metadata
     id="metadata90"><rdf:RDF><cc:Work
         rdf:about=""><dc:format>image/svg+xml</dc:format><dc:type
           rdf:resource="http://purl.org/dc/dcmitype/StillImage" /><dc:creator><cc:Agent><dc:title>Maxime DOYEN</dc:title></cc:Agent></dc:creator><dc:source>https://www.gethomebank.org</dc:source><dc:title>Report Trend Time</dc:title></cc:Work></rdf:RDF></metadata><path
     id="path2301"
     style="color:#000000;fill:#bebebe;stroke-linejoin:round;stroke-miterlimit:0;-inkscape-stroke:none"
     d="M 14.189453 1 C 13.19783 1.0000005 12.376953 1.8071074 12.376953 2.796875 C 12.376953 3.3379296 12.623417 3.8238847 13.007812 4.1542969 L 10.6875 8.5761719 C 10.562111 8.5485937 10.431944 8.5332032 10.298828 8.5332031 C 9.9225899 8.5332031 9.5724687 8.6493866 9.28125 8.8476562 L 6.7011719 6.6054688 C 6.7897805 6.3942906 6.8378906 6.1621271 6.8378906 5.9199219 C 6.8378906 4.9301539 6.0189676 4.1210938 5.0273438 4.1210938 C 4.0357201 4.1210938 3.2167969 4.930154 3.2167969 5.9199219 C 3.2167969 6.2706586 3.3191808 6.5979249 3.4960938 6.875 L 2.5195312 8.0234375 C 2.3009744 7.9301622 2.0615182 7.8789063 1.8105469 7.8789062 C 0.81892313 7.8789062 -1.4802959e-16 8.6860132 0 9.6757812 C 3.0822378e-07 10.665549 0.81892334 11.474609 1.8105469 11.474609 C 2.8021703 11.474609 3.6230466 10.665549 3.6230469 9.6757812 C 3.6230469 9.2961171 3.5017488 8.9430092 3.296875 8.6523438 L 4.2460938 7.5390625 C 4.4832892 7.6528569 4.7484496 7.7167968 5.0273438 7.7167969 C 5.4149771 7.7167969 5.7760145 7.5941307 6.0722656 7.3847656 L 8.6386719 9.6132812 C 8.5415005 9.8328873 8.4882811 10.075759 8.4882812 10.330078 C 8.4882812 11.319846 9.3072046 12.128906 10.298828 12.128906 C 11.290451 12.128906 12.111328 11.319846 12.111328 10.330078 C 12.111328 9.8302859 11.901318 9.3770206 11.566406 9.0507812 L 13.916016 4.5742188 C 14.005443 4.5879228 14.096488 4.5957031 14.189453 4.5957031 C 15.181077 4.5957033 16 3.7866431 16 2.796875 C 16 1.8071069 15.181077 0.99999978 14.189453 1 z M 14.189453 2 C 14.646181 1.9999999 15 2.3531464 15 2.796875 C 15 3.2406036 14.646181 3.5957032 14.189453 3.5957031 C 13.732726 3.5957029 13.376953 3.2406034 13.376953 2.796875 C 13.376953 2.3531466 13.732726 2.0000002 14.189453 2 z M 5.0273438 5.1210938 C 5.4840715 5.1210938 5.8378906 5.4761933 5.8378906 5.9199219 C 5.8378906 6.3636503 5.4840714 6.7167969 5.0273438 6.7167969 C 4.5706162 6.7167968 4.2167969 6.3636503 4.2167969 5.9199219 C 4.2167969 5.4761933 4.5706162 5.1210938 5.0273438 5.1210938 z M 1.8105469 8.8789062 C 2.2672745 8.8789062 2.6230469 9.2320527 2.6230469 9.6757812 C 2.6230467 10.11951 2.2672744 10.474609 1.8105469 10.474609 C 1.3538193 10.474609 1.0000001 10.11951 1 9.6757812 C 1 9.2320527 1.3538192 8.8789062 1.8105469 8.8789062 z M 10.298828 9.5332031 C 10.755556 9.5332034 11.111328 9.8863498 11.111328 10.330078 C 11.111328 10.773807 10.755556 11.128906 10.298828 11.128906 C 9.8421006 11.128906 9.4882812 10.773807 9.4882812 10.330078 C 9.4882811 9.8863497 9.8421005 9.5332031 10.298828 9.5332031 z " /></svg>
