<?xml version="1.0" encoding="UTF-8" standalone="no"?>
<svg
   width="16"
   height="16"
   version="1.1"
   id="svg7"
   sodipodi:docname="hicolor_status_scalable_hb-ope-remind-symbolic.svg"
   inkscape:version="1.1.2 (0a00cf5339, 2022-02-04)"
   xmlns:inkscape="http://www.inkscape.org/namespaces/inkscape"
   xmlns:sodipodi="http://sodipodi.sourceforge.net/DTD/sodipodi-0.dtd"
   xmlns="http://www.w3.org/2000/svg"
   xmlns:svg="http://www.w3.org/2000/svg"
   xmlns:rdf="http://www.w3.org/1999/02/22-rdf-syntax-ns#"
   xmlns:cc="http://creativecommons.org/ns#"
   xmlns:dc="http://purl.org/dc/elements/1.1/">
  <metadata
     id="metadata11">
    <rdf:RDF>
      <cc:Work
         rdf:about="">
        <dc:format>image/svg+xml</dc:format>
        <dc:type
           rdf:resource="http://purl.org/dc/dcmitype/StillImage" />
      </cc:Work>
    </rdf:RDF>
  </metadata>
  <sodipodi:namedview
     pagecolor="#ffffff"
     bordercolor="#666666"
     borderopacity="1"
     objecttolerance="10"
     gridtolerance="10"
     guidetolerance="10"
     inkscape:pageopacity="0"
     inkscape:pageshadow="2"
     inkscape:window-width="1920"
     inkscape:window-height="1043"
     id="namedview9"
     showgrid="true"
     inkscape:zoom="29.5"
     inkscape:cx="1.779661"
     inkscape:cy="5.0677966"
     inkscape:window-x="0"
     inkscape:window-y="0"
     inkscape:window-maximized="1"
     inkscape:current-layer="svg7"
     inkscape:pagecheckerboard="0"
     inkscape:snap-global="false">
    <inkscape:grid
       type="xygrid"
       id="grid88" />
  </sodipodi:namedview>
  <defs
     id="defs3">
    <style
       id="current-color-scheme"
       type="text/css">
   .ColorScheme-Text { color:#dfdfdf; } .ColorScheme-Highlight { color:#4285f4; }
  </style>
  </defs>
  <path
     d="M 1.6,13.599998 V 12.399999 H 3.2799999 V 6.2799998 q 0,-1.6799999 0.9900001,-2.99 Q 5.2599999,1.9799998 6.8799999,1.64 V 1.06 q 0,-0.46 0.33,-0.76 Q 7.5399998,0 7.9999994,0 q 0.460001,0 0.79,0.3 0.33,0.3 0.33,0.76 v 0.58 q 1.6199996,0.3399998 2.6199996,1.6499998 1,1.3100001 1,2.99 V 12.399999 H 14.4 v 1.199999 z M 7.9999994,7.6999997 Z m 0,8.3000003 Q 7.3599999,16 6.8799999,15.529998 6.3999998,15.059999 6.3999998,14.399999 h 3.2000006 q 0,0.66 -0.470001,1.129999 Q 8.6599994,16 7.9999994,16 Z M 4.4799999,12.399999 H 11.54 V 6.2799998 q 0,-1.48 -1.02,-2.52 -1.0199996,-1.04 -2.5000006,-1.04 -1.4799996,0 -2.5099996,1.04 -1.0299999,1.04 -1.0299999,2.52 z"
     id="path90"
     style="stroke-width:0.400001;fill:#bebebe" />
</svg>
