<?xml version="1.0" encoding="UTF-8" standalone="no"?>
<!-- Created with Inkscape (http://www.inkscape.org/) -->

<svg
   id="svg7384"
   sodipodi:docname="hicolor_status_scalable_prf-general-symbolic.svg"
   version="1.1"
   inkscape:version="1.2.2 (b0a8486541, 2022-12-01)"
   height="16"
   width="16"
   xml:space="preserve"
   xmlns:inkscape="http://www.inkscape.org/namespaces/inkscape"
   xmlns:sodipodi="http://sodipodi.sourceforge.net/DTD/sodipodi-0.dtd"
   xmlns="http://www.w3.org/2000/svg"
   xmlns:svg="http://www.w3.org/2000/svg"
   xmlns:rdf="http://www.w3.org/1999/02/22-rdf-syntax-ns#"
   xmlns:cc="http://creativecommons.org/ns#"
   xmlns:dc="http://purl.org/dc/elements/1.1/"><metadata
     id="metadata90"><rdf:RDF><cc:Work
         rdf:about=""><dc:format>image/svg+xml</dc:format><dc:type
           rdf:resource="http://purl.org/dc/dcmitype/StillImage" /><dc:title>Gnome Symbolic Icon Theme</dc:title></cc:Work></rdf:RDF></metadata><sodipodi:namedview
     inkscape:cy="7.40625"
     pagecolor="#ffffff"
     borderopacity="1"
     showborder="true"
     inkscape:bbox-paths="false"
     guidetolerance="10"
     inkscape:object-paths="true"
     inkscape:window-width="1920"
     showguides="true"
     inkscape:object-nodes="true"
     inkscape:snap-bbox="true"
     inkscape:pageshadow="2"
     inkscape:guide-bbox="true"
     inkscape:snap-nodes="true"
     bordercolor="#666666"
     objecttolerance="10"
     id="namedview88"
     showgrid="true"
     inkscape:window-maximized="1"
     inkscape:window-x="1280"
     inkscape:snap-global="false"
     inkscape:window-y="0"
     gridtolerance="10"
     inkscape:window-height="1003"
     inkscape:snap-others="false"
     inkscape:snap-to-guides="true"
     inkscape:current-layer="g4953"
     inkscape:snap-bbox-midpoints="false"
     inkscape:zoom="32"
     inkscape:cx="0.890625"
     inkscape:snap-grids="true"
     inkscape:pageopacity="1"
     inkscape:pagecheckerboard="true"
     inkscape:showpageshadow="0"
     inkscape:deskcolor="#d1d1d1"><inkscape:grid
       spacingx="1"
       spacingy="1"
       id="grid4866"
       empspacing="2"
       enabled="true"
       type="xygrid"
       snapvisiblegridlinesonly="true"
       visible="true"
       originx="0"
       originy="0" /></sodipodi:namedview><title
     id="title9167">Gnome Symbolic Icon Theme</title><defs
     id="defs7386" /><g
     inkscape:label="status"
     transform="translate(-442.0002,-462.00001)"
     inkscape:groupmode="layer"
     id="layer9"
     style="display:inline" /><g
     inkscape:label="devices"
     transform="translate(-442.0002,-462.00001)"
     inkscape:groupmode="layer"
     id="layer10" /><g
     inkscape:label="apps"
     transform="translate(-442.0002,-462.00001)"
     inkscape:groupmode="layer"
     id="layer11" /><g
     inkscape:label="places"
     transform="translate(-442.0002,-462.00001)"
     inkscape:groupmode="layer"
     id="layer13" /><g
     inkscape:label="mimetypes"
     transform="translate(-442.0002,-462.00001)"
     inkscape:groupmode="layer"
     id="layer14" /><g
     inkscape:label="emblems"
     transform="translate(-442.0002,-462.00001)"
     inkscape:groupmode="layer"
     id="layer15"
     style="display:inline" /><g
     inkscape:label="emotes"
     transform="translate(-442.0002,-462.00001)"
     inkscape:groupmode="layer"
     id="g71291"
     style="display:inline" /><g
     inkscape:label="categories"
     transform="translate(-442.0002,-462.00001)"
     inkscape:groupmode="layer"
     id="g4953"
     style="display:inline"><g
       style="fill:#bebebe;stroke-width:1.5"
       id="g254"
       transform="matrix(0.01666667,0,0,0.01666667,442.01687,478.33334)"><path
         d="m 754,-81 q -8,0 -15,-2.5 -7,-2.5 -13,-8.5 L 522,-296 q -6,-6 -8.5,-13 -2.5,-7 -2.5,-15 0,-8 2.5,-15 2.5,-7 8.5,-13 l 85,-85 q 6,-6 13,-8.5 7,-2.5 15,-2.5 8,0 15,2.5 7,2.5 13,8.5 l 204,204 q 6,6 8.5,13 2.5,7 2.5,15 0,8 -2.5,15 -2.5,7 -8.5,13 l -85,85 q -6,6 -13,8.5 -7,2.5 -15,2.5 z m 0,-95 29,-29 -147,-147 -29,29 z m -549,96 q -8,0 -15.5,-3 -7.5,-3 -13.5,-9 l -84,-84 q -6,-6 -9,-13.5 -3,-7.5 -3,-15.5 0,-8 3,-15 3,-7 9,-13 l 212,-212 h 85 l 34,-34 -165,-165 H 201 L 80,-765 193,-878 314,-757 v 57 l 165,165 116,-116 -43,-43 56,-56 H 495 l -28,-28 142,-142 28,28 v 113 l 56,-56 142,142 q 17,17 26,38.5 9,21.5 9,45.5 0,24 -9,46 -9,22 -26,39 l -85,-85 -56,56 -42,-42 -207,207 v 84 L 233,-92 q -6,6 -13,9 -7,3 -15,3 z m 0,-96 170,-170 v -29 h -29 l -170,170 z m 0,0 -29,-29 15,14 z m 549,0 29,-29 z"
         id="path245"
         style="stroke-width:1.5" /></g></g><g
     inkscape:label="actions"
     transform="translate(-442.0002,-462.00001)"
     inkscape:groupmode="layer"
     id="layer12"
     style="display:inline" /></svg>
