<?xml version="1.0" encoding="UTF-8" standalone="no"?>
<svg
   viewBox="0 0 16 16"
   version="1.1"
   id="svg13"
   sodipodi:docname="hicolor_status_scalable_hb-item-reconlock-symbolic.svg"
   inkscape:version="1.2.2 (b0a8486541, 2022-12-01)"
   width="16"
   height="16"
   xmlns:inkscape="http://www.inkscape.org/namespaces/inkscape"
   xmlns:sodipodi="http://sodipodi.sourceforge.net/DTD/sodipodi-0.dtd"
   xmlns="http://www.w3.org/2000/svg"
   xmlns:svg="http://www.w3.org/2000/svg"
   xmlns:rdf="http://www.w3.org/1999/02/22-rdf-syntax-ns#"
   xmlns:cc="http://creativecommons.org/ns#"
   xmlns:dc="http://purl.org/dc/elements/1.1/">
  <title
     id="title687">Item Reconciled Lock</title>
  <metadata
     id="metadata17">
    <rdf:RDF>
      <cc:Work
         rdf:about="">
        <dc:format>image/svg+xml</dc:format>
        <dc:type
           rdf:resource="http://purl.org/dc/dcmitype/StillImage" />
        <dc:title>Item Reconciled Lock</dc:title>
        <dc:creator>
          <cc:Agent>
            <dc:title>Maxime DOYEN</dc:title>
          </cc:Agent>
        </dc:creator>
        <dc:source>https://www.gethomebank.org</dc:source>
      </cc:Work>
    </rdf:RDF>
  </metadata>
  <sodipodi:namedview
     pagecolor="#ffffff"
     bordercolor="#666666"
     borderopacity="1"
     objecttolerance="10"
     gridtolerance="10"
     guidetolerance="10"
     inkscape:pageopacity="0"
     inkscape:pageshadow="2"
     inkscape:window-width="1920"
     inkscape:window-height="1003"
     id="namedview15"
     showgrid="true"
     inkscape:zoom="14.508511"
     inkscape:cx="22.228332"
     inkscape:cy="16.335239"
     inkscape:window-x="1440"
     inkscape:window-y="0"
     inkscape:window-maximized="1"
     inkscape:current-layer="svg13"
     fit-margin-top="0"
     fit-margin-left="0"
     fit-margin-right="0"
     fit-margin-bottom="0"
     inkscape:pagecheckerboard="0"
     inkscape:snap-global="false"
     inkscape:showpageshadow="0"
     inkscape:deskcolor="#d1d1d0">
    <inkscape:grid
       type="xygrid"
       id="grid818" />
  </sodipodi:namedview>
  <defs
     id="defs4">
    <style
       id="style2">
.cls-1 { 
    fill:#545;
}
</style>
  </defs>
  <path
     d="M 10,15 C 9.716667,15 9.479167,14.90417 9.2875,14.7125 9.095834,14.520833 9,14.283333 9,14 V 11 C 9,10.716667 9.09583,10.479167 9.2875,10.2875 9.479167,10.095834 9.716667,9.9999999 10.000002,9.9999999 V 9 c 0,-0.55 0.195833,-1.0208333 0.5875,-1.4125 C 10.979169,7.1958333 11.450002,7 12.000002,7 c 0.55,0 1.020834,0.1958333 1.412499,0.5875 C 13.804168,7.9791667 14.000002,8.45 14.000002,9 v 0.9999999 c 0.283334,0 0.520834,0.09583 0.7125,0.2875001 0.191667,0.191667 0.2875,0.429167 0.2875,0.7125 v 3 c 0,0.283333 -0.09583,0.520833 -0.2875,0.7125 C 14.520836,14.904167 14.283336,15 14.000002,15 Z m 1,-5.0000001 h 2 V 9 C 13,8.7166667 12.90417,8.4791667 12.7125,8.2875 12.520834,8.0958333 12.283334,8 12,8 11.716667,8 11.479167,8.095833 11.2875,8.2875 11.095834,8.4791667 11,8.7166667 11,9 Z"
     id="path521"
     style="fill:#bebebe;stroke-width:0.025" />
  <path
     d="m 8.0000002,15.000001 c 0,0 -1.8783335,-0.18375 -2.7300002,-0.55125 -0.8516666,-0.3675 -1.5924999,-0.86625 -2.2224999,-1.49625 -0.63,-0.63 -1.12875,-1.370834 -1.49625,-2.222501 C 1.18375,9.8783333 1,8.9683332 1,7.9999999 1,7.0316666 1.18375,6.1216666 1.5512501,5.2699999 1.9187501,4.4183333 2.4175001,3.6775 3.0475001,3.0475 3.6775001,2.4174999 4.4183334,1.9187499 5.27,1.55125 6.1216667,1.18375 7.0316667,1 8.0000002,1 8.7583339,1 9.4758339,1.1108333 10.1525,1.3325 10.829167,1.5541667 11.453333,1.8633333 12.025,2.2599999 L 11.01,3.2925 C 10.566667,3.0124999 10.094167,2.7937499 9.5925008,2.6362499 c -0.5016669,-0.1575 -1.0325005,-0.23625 -1.5925006,-0.23625 -1.5516668,0 -2.8729168,0.5454167 -3.9637501,1.63625 -1.0908333,1.0908333 -1.63625,2.4120833 -1.63625,3.96375 0,1.5516667 0.5454163,2.8729171 1.6362501,3.9637511 0.5454166,0.545417 0.8696554,0.819319 1.6560663,1.186622 0.8127604,0.379609 2.3076837,0.449628 2.3076837,0.449628 z M 7.02,11.220001 4.0450001,8.2449999 l 0.98,-0.98 1.9949999,1.995 7,-7.0175 L 15,3.2225 Z"
     id="path133"
     style="fill:#bebebe;stroke-width:0.025"
     sodipodi:nodetypes="csssssssssccssssssccccccccc" />
</svg>
