<?xml version="1.0" encoding="UTF-8" standalone="no"?>
<!-- Created with Inkscape (http://www.inkscape.org/) -->

<svg
   id="svg7384"
   height="16"
   width="16"
   version="1.1"
   inkscape:version="1.2.2 (b0a8486541, 2022-12-01)"
   sodipodi:docname="hicolor_actions_scalable_hb-view-line-symbolic.svg"
   xmlns:inkscape="http://www.inkscape.org/namespaces/inkscape"
   xmlns:sodipodi="http://sodipodi.sourceforge.net/DTD/sodipodi-0.dtd"
   xmlns="http://www.w3.org/2000/svg"
   xmlns:svg="http://www.w3.org/2000/svg"
   xmlns:rdf="http://www.w3.org/1999/02/22-rdf-syntax-ns#"
   xmlns:cc="http://creativecommons.org/ns#"
   xmlns:dc="http://purl.org/dc/elements/1.1/">
  <title
     id="title1049">View Line</title>
  <defs
     id="defs12" />
  <sodipodi:namedview
     pagecolor="#ffffff"
     bordercolor="#666666"
     borderopacity="1"
     objecttolerance="10"
     gridtolerance="10"
     guidetolerance="10"
     inkscape:pageopacity="0"
     inkscape:pageshadow="2"
     inkscape:window-width="1920"
     inkscape:window-height="1003"
     id="namedview10"
     showgrid="true"
     inkscape:zoom="33.125"
     inkscape:cx="6.0528302"
     inkscape:cy="6.4"
     inkscape:window-x="1440"
     inkscape:window-y="0"
     inkscape:window-maximized="1"
     inkscape:current-layer="svg7384"
     inkscape:snap-global="false"
     inkscape:pagecheckerboard="0"
     inkscape:showpageshadow="0"
     inkscape:deskcolor="#d1d1d1">
    <inkscape:grid
       type="xygrid"
       id="grid4487" />
  </sodipodi:namedview>
  <metadata
     id="metadata90">
    <rdf:RDF>
      <cc:Work
         rdf:about="">
        <dc:format>image/svg+xml</dc:format>
        <dc:type
           rdf:resource="http://purl.org/dc/dcmitype/StillImage" />
        <dc:creator>
          <cc:Agent>
            <dc:title>Maxime DOYEN</dc:title>
          </cc:Agent>
        </dc:creator>
        <dc:source>https://www.gethomebank.org</dc:source>
        <dc:title>View Line</dc:title>
      </cc:Work>
    </rdf:RDF>
  </metadata>
  <path
     id="path2544"
     style="color:#000000;fill:#bebebe;stroke-linejoin:round;stroke-miterlimit:0;-inkscape-stroke:none"
     d="M 7.640625 0.11328125 C 6.651614 0.11268675 5.8372962 0.92505146 5.8378906 1.9140625 C 5.8383394 2.4119734 6.0453155 2.8645159 6.3769531 3.1914062 L 4.4960938 7.1894531 C 4.376975 7.1642187 4.2531593 7.1504506 4.1269531 7.1503906 L 4.125 7.1503906 C 3.5274122 7.1506746 2.9943618 7.4486449 2.6660156 7.9023438 L 0.83984375 7.046875 A 0.50005 0.50005 0 0 0 0.18164062 7.2910156 A 0.50005 0.50005 0 0 0 0.41601562 7.953125 L 2.3261719 8.8476562 C 2.324229 8.8813221 2.3242495 8.9151058 2.3242188 8.9492188 C 2.3236243 9.9382297 3.1379422 10.750594 4.1269531 10.75 C 5.1150857 10.74953 5.9263753 9.9375823 5.9257812 8.9492188 C 5.9253281 8.4462404 5.7140218 7.9897236 5.3769531 7.6621094 L 7.2558594 3.6699219 C 7.3652361 3.6940283 7.478236 3.7079774 7.59375 3.7109375 L 9.5273438 11.708984 C 9.0226588 12.029408 8.6851641 12.593456 8.6855469 13.230469 C 8.6849526 14.21948 9.4992705 15.031845 10.488281 15.03125 C 11.476264 15.030359 12.28575 14.218451 12.285156 13.230469 C 12.285485 12.683046 12.036117 12.190677 11.646484 11.859375 A 0.50029216 0.50029216 0 0 0 11.664062 11.832031 L 13.816406 7.1914062 C 13.891778 7.2011313 13.969029 7.207078 14.046875 7.2070312 C 15.033829 7.2061419 15.842861 6.3951576 15.84375 5.4082031 C 15.844344 4.4202205 15.034857 3.6083125 14.046875 3.6074219 C 13.057864 3.6068276 12.243546 4.4191923 12.244141 5.4082031 C 12.244639 5.9614696 12.500241 6.460076 12.898438 6.7910156 L 10.755859 11.412109 A 0.50029216 0.50029216 0 0 0 10.746094 11.449219 C 10.662056 11.436925 10.575539 11.429766 10.488281 11.429688 L 10.486328 11.429688 L 8.5605469 3.4570312 C 9.084418 3.1413529 9.4369128 2.5657663 9.4375 1.9140625 C 9.4380941 0.92607975 8.6286075 0.11417178 7.640625 0.11328125 z M 7.6386719 1.1132812 C 8.0863216 1.1136847 8.4377692 1.4664125 8.4375 1.9140625 C 8.4370971 2.3612155 8.0858247 2.7124877 7.6386719 2.7128906 C 7.1910219 2.7131598 6.8382941 2.3617124 6.8378906 1.9140625 C 6.8376213 1.4659154 7.1905247 1.113012 7.6386719 1.1132812 z M 14.044922 4.6074219 C 14.492571 4.6078254 14.844019 4.9605533 14.84375 5.4082031 C 14.843347 5.8553561 14.492074 6.2066284 14.044922 6.2070312 C 13.597272 6.2073003 13.244544 5.8558529 13.244141 5.4082031 C 13.243871 4.9600562 13.596774 4.6071526 14.044922 4.6074219 z M 4.125 8.1503906 A 0.50005 0.50005 0 0 0 4.1269531 8.1503906 C 4.5746063 8.1501215 4.925378 8.5015688 4.9257812 8.9492188 C 4.9260506 9.3973657 4.5751002 9.7502693 4.1269531 9.75 A 0.50005 0.50005 0 0 0 4.125 9.75 C 3.6768529 9.7502693 3.3239494 9.3973657 3.3242188 8.9492188 C 3.324622 8.5015688 3.67735 8.1501215 4.125 8.1503906 z M 10.486328 12.429688 C 10.933978 12.43009 11.285425 12.782818 11.285156 13.230469 C 11.285425 13.678118 10.933978 14.030846 10.486328 14.03125 C 10.038182 14.031519 9.6852776 13.678615 9.6855469 13.230469 C 9.6852776 12.782321 10.038182 12.429418 10.486328 12.429688 z " />
</svg>
