<?xml version="1.0" encoding="UTF-8" standalone="no"?>
<!-- Created with Inkscape (http://www.inkscape.org/) -->

<svg
   id="svg7384"
   height="16"
   width="16"
   version="1.1"
   sodipodi:docname="hicolor_status_scalable_prf-backup-symbolic.svg"
   inkscape:version="1.1.2 (0a00cf5339, 2022-02-04)"
   xmlns:inkscape="http://www.inkscape.org/namespaces/inkscape"
   xmlns:sodipodi="http://sodipodi.sourceforge.net/DTD/sodipodi-0.dtd"
   xmlns="http://www.w3.org/2000/svg"
   xmlns:svg="http://www.w3.org/2000/svg"
   xmlns:rdf="http://www.w3.org/1999/02/22-rdf-syntax-ns#"
   xmlns:cc="http://creativecommons.org/ns#"
   xmlns:dc="http://purl.org/dc/elements/1.1/">
  <defs
     id="defs12" />
  <sodipodi:namedview
     pagecolor="#ffffff"
     bordercolor="#666666"
     borderopacity="1"
     objecttolerance="10"
     gridtolerance="10"
     guidetolerance="10"
     inkscape:pageopacity="0"
     inkscape:pageshadow="2"
     inkscape:window-width="1920"
     inkscape:window-height="1043"
     id="namedview10"
     showgrid="true"
     showguides="true"
     inkscape:guide-bbox="true"
     inkscape:zoom="22.627417"
     inkscape:cx="-5.8778251"
     inkscape:cy="10.275145"
     inkscape:window-x="0"
     inkscape:window-y="0"
     inkscape:window-maximized="1"
     inkscape:current-layer="svg7384"
     inkscape:snap-global="false"
     inkscape:pagecheckerboard="0">
    <inkscape:grid
       type="xygrid"
       id="grid815" />
  </sodipodi:namedview>
  <metadata
     id="metadata90">
    <rdf:RDF>
      <cc:Work
         rdf:about="">
        <dc:format>image/svg+xml</dc:format>
        <dc:type
           rdf:resource="http://purl.org/dc/dcmitype/StillImage" />
        <dc:title>HomeBank Symbolic Icon Theme</dc:title>
      </cc:Work>
    </rdf:RDF>
  </metadata>
  <title
     id="title9167">HomeBank Symbolic Icon Theme</title>
  <path
     d="m 8,9.5555556 q -0.6416667,0 -1.0986111,-0.4569445 Q 6.4444444,8.6416667 6.4444444,8 q 0,-0.6416667 0.4569445,-1.0986111 Q 7.3583333,6.4444444 8,6.4444444 q 0.6416667,0 1.0986111,0.4569445 Q 9.5555556,7.3583333 9.5555556,8 q 0,0.6416667 -0.4569445,1.0986111 Q 8.6416667,9.5555556 8,9.5555556 Z M 8,15 Q 5.2972222,15 3.3138889,13.220833 1.3305556,11.441667 1.0388889,8.7777778 H 2.6333333 Q 2.9055556,10.8 4.4319444,12.122222 5.9583333,13.444444 8,13.444444 q 2.275,0 3.859722,-1.584722 Q 13.444444,10.275 13.444444,8 q 0,-2.275 -1.584722,-3.8597222 Q 10.275,2.5555556 8,2.5555556 q -1.3416667,0 -2.5083333,0.6222222 Q 4.325,3.8 3.5277778,4.8888889 H 5.6666667 V 6.4444444 H 1 V 1.7777778 H 2.5555556 V 3.6055556 Q 3.5472222,2.3611111 4.9763889,1.6805556 6.4055556,1 8,1 q 1.4583333,0 2.731944,0.5541667 1.273612,0.5541666 2.216667,1.4972222 0.943056,0.9430555 1.497222,2.2166667 Q 15,6.5416667 15,8 q 0,1.4583333 -0.554167,2.731944 -0.554166,1.273612 -1.497222,2.216667 -0.943055,0.943056 -2.216667,1.497222 Q 9.4583333,15 8,15 Z"
     id="path2"
     style="fill:#bebebe;stroke-width:0.0194444;" />
</svg>
