<?xml version="1.0" encoding="UTF-8" standalone="no"?>
<!-- Created with Inkscape (http://www.inkscape.org/) -->

<svg
   id="svg7384"
   height="16"
   width="16"
   version="1.1"
   sodipodi:docname="hicolor_actions_scalable_hb-ope-show-symbolic.svg"
   inkscape:version="1.1.2 (0a00cf5339, 2022-02-04)"
   xmlns:inkscape="http://www.inkscape.org/namespaces/inkscape"
   xmlns:sodipodi="http://sodipodi.sourceforge.net/DTD/sodipodi-0.dtd"
   xmlns="http://www.w3.org/2000/svg"
   xmlns:svg="http://www.w3.org/2000/svg"
   xmlns:rdf="http://www.w3.org/1999/02/22-rdf-syntax-ns#"
   xmlns:cc="http://creativecommons.org/ns#"
   xmlns:dc="http://purl.org/dc/elements/1.1/">
  <defs
     id="defs13" />
  <sodipodi:namedview
     pagecolor="#ffffff"
     bordercolor="#666666"
     borderopacity="1"
     objecttolerance="10"
     gridtolerance="10"
     guidetolerance="10"
     inkscape:pageopacity="0"
     inkscape:pageshadow="2"
     inkscape:window-width="1920"
     inkscape:window-height="1043"
     id="namedview11"
     showgrid="true"
     inkscape:zoom="29.5"
     inkscape:cx="6.1186441"
     inkscape:cy="6.1186441"
     inkscape:window-x="0"
     inkscape:window-y="0"
     inkscape:window-maximized="1"
     inkscape:current-layer="svg7384"
     inkscape:pagecheckerboard="0">
    <inkscape:grid
       type="xygrid"
       id="grid4490" />
  </sodipodi:namedview>
  <metadata
     id="metadata90">
    <rdf:RDF>
      <cc:Work
         rdf:about="">
        <dc:format>image/svg+xml</dc:format>
        <dc:type
           rdf:resource="http://purl.org/dc/dcmitype/StillImage" />
        <dc:title>Gnome Symbolic Icon Theme</dc:title>
      </cc:Work>
    </rdf:RDF>
  </metadata>
  <title
     id="title9167">Gnome Symbolic Icon Theme</title>
  <path
     d="M 9.454546,6.4909091 V 5.2545455 Q 10.054546,5 10.681818,4.8727273 11.309091,4.7454545 12,4.7454545 q 0.472727,0 0.927273,0.072727 Q 13.381818,4.8909091 13.818182,5 V 6.1636364 Q 13.381818,6 12.936364,5.9181818 12.490909,5.8363636 12,5.8363636 q -0.690909,0 -1.327273,0.1727273 -0.636363,0.1727273 -1.218181,0.4818182 z m 0,3.9999999 V 9.254546 Q 10.054546,9 10.681818,8.8727273 11.309091,8.7454545 12,8.7454545 q 0.472727,0 0.927273,0.072727 Q 13.381818,8.8909091 13.818182,9 v 1.163636 Q 13.381818,10 12.936364,9.918182 12.490909,9.836364 12,9.836364 q -0.690909,0 -1.327273,0.163636 -0.636363,0.163636 -1.218181,0.490909 z m 0,-1.9999999 V 7.2545455 Q 10.054546,7 10.681818,6.8727273 11.309091,6.7454545 12,6.7454545 q 0.472727,0 0.927273,0.072727 Q 13.381818,6.8909091 13.818182,7 V 8.1636364 Q 13.381818,8 12.936364,7.9181818 12.490909,7.8363636 12,7.8363636 q -0.690909,0 -1.327273,0.1727273 -0.636363,0.1727273 -1.218181,0.4818182 z M 4,10.927273 q 0.8545455,0 1.6636364,0.190909 0.8090909,0.190909 1.6090909,0.572727 V 4.5272727 Q 6.5272727,4.0909091 5.6909091,3.8727273 4.8545455,3.6545455 4,3.6545455 q -0.6545455,0 -1.3,0.1272727 Q 2.0545455,3.9090909 1.4545455,4.1636364 V 11.363636 Q 2.0909091,11.145455 2.7181818,11.036364 3.3454545,10.927273 4,10.927273 Z m 4.7272727,0.763636 Q 9.527273,11.309091 10.336364,11.118182 11.145455,10.927273 12,10.927273 q 0.654546,0 1.281818,0.109091 0.627273,0.109091 1.263637,0.327272 V 4.1636364 Q 13.945455,3.9090909 13.3,3.7818182 12.654546,3.6545455 12,3.6545455 q -0.854545,0 -1.690909,0.2181818 Q 9.472727,4.0909091 8.7272727,4.5272727 Z M 8,13.836364 Q 7.1272727,13.145455 6.1090909,12.763636 5.0909091,12.381818 4,12.381818 q -0.7636364,0 -1.5,0.2 -0.7363636,0.2 -1.4090909,0.563637 -0.3818182,0.2 -0.7363636,-0.01818 Q 0,12.909091 0,12.490909 V 3.7272727 q 0,-0.2 0.1,-0.3818181 Q 0.2,3.1636364 0.4,3.0727273 1.2363636,2.6363636 2.1454545,2.4181818 3.0545455,2.2 4,2.2 5.0545454,2.2 6.0636364,2.4727273 7.0727273,2.7454546 8,3.2909091 8.9272727,2.7454546 9.936364,2.4727273 10.945455,2.2 12,2.2 q 0.945455,0 1.854546,0.2181818 0.90909,0.2181818 1.745454,0.6545455 0.2,0.090909 0.3,0.2727273 0.1,0.1818181 0.1,0.3818181 v 8.7636363 q 0,0.418182 -0.354546,0.636364 -0.354545,0.218182 -0.736363,0.01818 Q 14.236364,12.781818 13.5,12.581818 q -0.736364,-0.2 -1.5,-0.2 -1.090909,0 -2.109091,0.381818 Q 8.8727273,13.145455 8,13.836364 Z M 4.3636364,7.7636364 Z"
     id="path2"
     style="stroke-width:0.0181818;fill:#bebebe" />
</svg>
