<?xml version="1.0" encoding="UTF-8" standalone="no"?>
<svg
   height="24px"
   viewBox="0 -960 960 960"
   width="24px"
   fill="#5f6368"
   version="1.1"
   id="svg4"
   sodipodi:docname="hicolor_actions_scalable_hb-clear2-symbolic.svg"
   inkscape:version="1.2.2 (b0a8486541, 2022-12-01)"
   xmlns:inkscape="http://www.inkscape.org/namespaces/inkscape"
   xmlns:sodipodi="http://sodipodi.sourceforge.net/DTD/sodipodi-0.dtd"
   xmlns="http://www.w3.org/2000/svg"
   xmlns:svg="http://www.w3.org/2000/svg">
  <defs
     id="defs8" />
  <sodipodi:namedview
     id="namedview6"
     pagecolor="#ffffff"
     bordercolor="#111111"
     borderopacity="1"
     inkscape:showpageshadow="0"
     inkscape:pageopacity="0"
     inkscape:pagecheckerboard="1"
     inkscape:deskcolor="#d1d1d1"
     showgrid="false"
     inkscape:zoom="9.8333333"
     inkscape:cx="11.745763"
     inkscape:cy="12"
     inkscape:window-width="1920"
     inkscape:window-height="1003"
     inkscape:window-x="1280"
     inkscape:window-y="0"
     inkscape:window-maximized="1"
     inkscape:current-layer="svg4" />
  <path
     d="M440-520h80v-280q0-17-11.5-28.5T480-840q-17 0-28.5 11.5T440-800v280ZM200-360h560v-80H200v80Zm-58 240h98v-80q0-17 11.5-28.5T280-240q17 0 28.5 11.5T320-200v80h120v-80q0-17 11.5-28.5T480-240q17 0 28.5 11.5T520-200v80h120v-80q0-17 11.5-28.5T680-240q17 0 28.5 11.5T720-200v80h98l-40-160H182l-40 160Zm676 80H142q-39 0-63-31t-14-69l55-220v-80q0-33 23.5-56.5T200-520h160v-280q0-50 35-85t85-35q50 0 85 35t35 85v280h160q33 0 56.5 23.5T840-440v80l55 220q13 38-11.5 69T818-40Zm-58-400H200h560Zm-240-80h-80 80Z"
     id="path2" style="fill:#bebebe" />
</svg>
