<?xml version="1.0" encoding="UTF-8" standalone="no"?>
<!-- Created with Inkscape (http://www.inkscape.org/) -->

<svg
   id="svg7384"
   height="16"
   width="16"
   version="1.1"
   sodipodi:docname="hicolor_status_scalable_prf-euro-symbolic.svg"
   inkscape:version="1.1.2 (0a00cf5339, 2022-02-04)"
   xmlns:inkscape="http://www.inkscape.org/namespaces/inkscape"
   xmlns:sodipodi="http://sodipodi.sourceforge.net/DTD/sodipodi-0.dtd"
   xmlns="http://www.w3.org/2000/svg"
   xmlns:svg="http://www.w3.org/2000/svg"
   xmlns:rdf="http://www.w3.org/1999/02/22-rdf-syntax-ns#"
   xmlns:cc="http://creativecommons.org/ns#"
   xmlns:dc="http://purl.org/dc/elements/1.1/">
  <defs
     id="defs12" />
  <sodipodi:namedview
     pagecolor="#ffffff"
     bordercolor="#666666"
     borderopacity="1"
     objecttolerance="10"
     gridtolerance="10"
     guidetolerance="10"
     inkscape:pageopacity="0"
     inkscape:pageshadow="2"
     inkscape:window-width="1920"
     inkscape:window-height="1043"
     id="namedview10"
     showgrid="true"
     inkscape:zoom="29.5"
     inkscape:cx="1.4915254"
     inkscape:cy="5.4067797"
     inkscape:window-x="0"
     inkscape:window-y="0"
     inkscape:window-maximized="1"
     inkscape:current-layer="svg7384"
     inkscape:snap-global="false"
     inkscape:pagecheckerboard="0">
    <inkscape:grid
       type="xygrid"
       id="grid826" />
  </sodipodi:namedview>
  <metadata
     id="metadata90">
    <rdf:RDF>
      <cc:Work
         rdf:about="">
        <dc:format>image/svg+xml</dc:format>
        <dc:type
           rdf:resource="http://purl.org/dc/dcmitype/StillImage" />
        <dc:title>HomeBank Symbolic Icon Theme</dc:title>
      </cc:Work>
    </rdf:RDF>
  </metadata>
  <title
     id="title9167">HomeBank Symbolic Icon Theme</title>
  <path
     d="M 10.333333,15 Q 8.0388889,15 6.2500001,13.697222 4.4611112,12.394444 3.7222223,10.333333 H 1 V 8.7777778 H 3.3722223 Q 3.313889,8.3111111 3.3236112,7.9125 3.3333334,7.5138889 3.3722223,7.2222222 H 1 V 5.6666667 H 3.7222223 Q 4.4611112,3.6055556 6.2500001,2.3027778 8.0388889,1 10.333333,1 11.675,1 12.870833,1.4763889 14.066667,1.9527778 15,2.7888889 l -1.108333,1.0888889 q -0.719445,-0.6222222 -1.623611,-0.9722222 -0.904167,-0.35 -1.934723,-0.35 -1.6527774,0 -2.9555551,0.8652777 Q 6.0750001,4.2861111 5.413889,5.6666667 h 4.919444 V 7.2222222 H 4.9472223 q -0.077778,0.525 -0.058333,0.9236111 0.019444,0.3986111 0.058333,0.6319445 H 10.333333 V 10.333333 H 5.413889 q 0.6611111,1.380556 1.9638889,2.245834 1.3027777,0.865277 2.9555551,0.865277 1.030556,0 1.934723,-0.35 0.904166,-0.35 1.623611,-0.972222 L 15,13.211111 q -0.933333,0.836111 -2.129167,1.3125 Q 11.675,15 10.333333,15 Z"
     id="path2"
     style="fill:#bebebe;stroke-width:0.0194444;" />
</svg>
