<?xml version="1.0" encoding="UTF-8" standalone="no"?>
<!-- Created with Inkscape (http://www.inkscape.org/) -->

<svg
   width="16"
   height="16"
   id="svg2"
   sodipodi:version="0.32"
   inkscape:version="1.2.2 (b0a8486541, 2022-12-01)"
   version="1.0"
   sodipodi:docname="hicolor_status_scalable_prf-interface-theme-symbolic.svg"
   inkscape:output_extension="org.inkscape.output.svg.inkscape"
   xml:space="preserve"
   xmlns:inkscape="http://www.inkscape.org/namespaces/inkscape"
   xmlns:sodipodi="http://sodipodi.sourceforge.net/DTD/sodipodi-0.dtd"
   xmlns="http://www.w3.org/2000/svg"
   xmlns:svg="http://www.w3.org/2000/svg"
   xmlns:rdf="http://www.w3.org/1999/02/22-rdf-syntax-ns#"
   xmlns:cc="http://creativecommons.org/ns#"
   xmlns:dc="http://purl.org/dc/elements/1.1/"><defs
     id="defs4" /><sodipodi:namedview
     id="base"
     pagecolor="#ffffff"
     bordercolor="#666666"
     borderopacity="1.0"
     gridtolerance="10000"
     guidetolerance="10"
     objecttolerance="10"
     inkscape:pageopacity="0.0"
     inkscape:pageshadow="2"
     inkscape:zoom="10.291667"
     inkscape:cx="8.1133601"
     inkscape:cy="23.999999"
     inkscape:document-units="px"
     inkscape:current-layer="layer1"
     showgrid="true"
     inkscape:window-width="1920"
     inkscape:window-height="1003"
     inkscape:window-x="1280"
     inkscape:window-y="0"
     inkscape:pagecheckerboard="0"
     inkscape:window-maximized="1"
     inkscape:showpageshadow="0"
     inkscape:deskcolor="#d1d1d1"><inkscape:grid
       type="xygrid"
       id="grid302"
       originx="0"
       originy="0" /></sodipodi:namedview><metadata
     id="metadata7"><rdf:RDF><cc:Work
         rdf:about=""><dc:format>image/svg+xml</dc:format><dc:type
           rdf:resource="http://purl.org/dc/dcmitype/StillImage" /></cc:Work></rdf:RDF></metadata><g
     inkscape:label="Layer 1"
     inkscape:groupmode="layer"
     id="layer1"><g
       style="fill:#bebebe;stroke-width:1.49762"
       id="g142"
       transform="matrix(0.01669316,0,0,0.01669316,-0.0127168,16.012717)"><path
         d="m 240,-522 -40,22 q -14,8 -30,4 -16,-4 -24,-18 L 66,-654 q -8,-14 -4,-30 4,-16 18,-24 l 230,-132 h 70 q 9,0 14.5,5.5 5.5,5.5 5.5,14.5 v 20 q 0,33 23.5,56.5 23.5,23.5 56.5,23.5 33,0 56.5,-23.5 Q 560,-767 560,-800 v -20 q 0,-9 5.5,-14.5 5.5,-5.5 14.5,-5.5 h 70 l 230,132 q 14,8 18,24 4,16 -4,30 l -80,140 q -8,14 -23.5,17.5 Q 775,-493 760,-501 l -40,-20 v 361 q 0,17 -11.5,28.5 Q 697,-120 680,-120 H 280 q -17,0 -28.5,-11.5 Q 240,-143 240,-160 Z m 80,-134 v 456 h 320 v -456 l 124,68 42,-70 -172,-100 q -15,51 -56.5,84.5 Q 536,-640 480,-640 424,-640 382.5,-673.5 341,-707 326,-758 l -172,100 42,70 z m 160,177 z"
         id="path133"
         style="stroke-width:1.49762" /></g></g></svg>
