<?xml version="1.0" encoding="UTF-8" standalone="no"?>
<svg
   height="16"
   version="1.1"
   viewBox="0 0 16 16"
   width="16"
   xml:space="preserve"
   id="svg12"
   sodipodi:docname="hicolor_actions_scalable_hb-payee-symbolic.svg"
   inkscape:version="1.2.2 (b0a8486541, 2022-12-01)"
   xmlns:inkscape="http://www.inkscape.org/namespaces/inkscape"
   xmlns:sodipodi="http://sodipodi.sourceforge.net/DTD/sodipodi-0.dtd"
   xmlns="http://www.w3.org/2000/svg"
   xmlns:svg="http://www.w3.org/2000/svg"
   xmlns:rdf="http://www.w3.org/1999/02/22-rdf-syntax-ns#"
   xmlns:cc="http://creativecommons.org/ns#"
   xmlns:dc="http://purl.org/dc/elements/1.1/"><title
     id="title1051">Payee</title><metadata
     id="metadata18"><rdf:RDF><cc:Work
         rdf:about=""><dc:format>image/svg+xml</dc:format><dc:type
           rdf:resource="http://purl.org/dc/dcmitype/StillImage" /><dc:creator><cc:Agent><dc:title>Maxime DOYEN</dc:title></cc:Agent></dc:creator><dc:source>https://www.gethomebank.org</dc:source><dc:title>Payee</dc:title></cc:Work></rdf:RDF></metadata><defs
     id="defs16" /><sodipodi:namedview
     pagecolor="#ffffff"
     bordercolor="#666666"
     borderopacity="1"
     objecttolerance="10"
     gridtolerance="10"
     guidetolerance="10"
     inkscape:pageopacity="0"
     inkscape:pageshadow="2"
     inkscape:window-width="1920"
     inkscape:window-height="1003"
     id="namedview14"
     showgrid="true"
     inkscape:snap-global="false"
     inkscape:zoom="23.5"
     inkscape:cx="18.276596"
     inkscape:cy="11.617021"
     inkscape:window-x="1440"
     inkscape:window-y="0"
     inkscape:window-maximized="1"
     inkscape:current-layer="svg12"
     inkscape:pagecheckerboard="0"
     inkscape:showpageshadow="0"
     inkscape:deskcolor="#d1d1d1"><inkscape:grid
       type="xygrid"
       id="grid828" /></sodipodi:namedview><style
     type="text/css"
     id="style2">
	.st0{fill:none;stroke:#434345;stroke-width:2;stroke-linecap:round;stroke-linejoin:round;stroke-miterlimit:10;}
	.st1{fill:#434345;}
</style><path
     id="path1105"
     style="fill:#bebebe;stroke:none;stroke-width:0.0249999;fill-opacity:1"
     d="M 9 1 C 8.3031665 1 7.6914563 1.2097666 7.1640625 1.6289062 C 8.2965844 1.6665439 9.2725169 2.0928286 10.089844 2.9101562 C 10.90717 3.7274842 11.333456 4.7034157 11.371094 5.8359375 C 11.790233 5.3085435 12 4.6968335 12 4 C 12 3.1750016 11.706638 2.4683582 11.119141 1.8808594 C 10.531641 1.2933607 9.8249984 1 9 1 z M 9 8.1503906 C 8.1750016 8.1503906 7.362499 8.2457036 6.5625 8.4394531 C 5.9084306 8.5978604 5.2623574 8.8234089 4.625 9.1113281 C 5.2126446 9.0271218 5.8066308 8.9824219 6.4042969 8.9824219 C 7.4844286 8.9824219 8.5463483 9.1194934 9.59375 9.3945312 C 10.64115 9.6695605 11.672832 10.082751 12.6875 10.632812 C 13.162104 10.898972 13.543678 11.285314 13.830078 11.791016 C 14.116476 12.296715 14.259766 12.283424 14.259766 12.886719 L 14.259766 13 L 15 13 L 15 10.900391 C 15 10.475391 14.890625 10.483203 14.671875 10.126953 C 14.453124 9.7707035 14.16328 9.4999996 13.800781 9.3125 C 13.025784 8.9250007 12.237498 8.6332026 11.4375 8.4394531 C 10.637501 8.2457035 9.8249984 8.1503906 9 8.1503906 z " /><g
     id="Layer_2"
     transform="translate(0,-16)" /><path
     d="M 1,15 V 13.237499 C 1,12.799999 1.1125,12.403124 1.337499,12.046874 1.5625,11.690625 1.875,11.424999 2.275,11.249999 3.1875,10.85 4.009375,10.562498 4.740624,10.387499 5.471875,10.212499 6.225,10.125 7,10.125 c 0.775,0 1.525,0.08749 2.25,0.262499 0.725,0.174999 1.543749,0.462501 2.456248,0.8625 0.400001,0.175 0.715625,0.440626 0.946877,0.796875 C 12.884374,12.403124 13,12.799999 13,13.237499 V 15 Z M 7,9.1017187 c -0.905737,0 -1.646795,-0.288189 -2.223174,-0.864566 C 4.200449,7.6607745 3.91226,6.9197165 3.91226,6.0139794 3.91226,5.1082426 4.200449,4.367185 4.776826,3.7908069 5.353205,3.2144286 6.094263,2.9262395 7,2.9262395 c 0.905737,0 1.646795,0.2881891 2.223173,0.8645674 0.576378,0.5763781 0.864567,1.3174357 0.864567,2.2231725 0,0.9057371 -0.288189,1.6467951 -0.864567,2.2231733 C 8.646795,8.8135297 7.905737,9.1017187 7,9.1017187 Z M 2.125,13.874999 h 9.749999 v -0.6375 c 0,-0.199998 -0.05938,-0.39375 -0.178126,-0.58125 C 11.578124,12.46875 11.431248,12.3375 11.256249,12.2625 10.356249,11.8625 9.6,11.593748 8.9875,11.45625 8.375,11.318749 7.7125,11.249999 7,11.249999 c -0.7125,0 -1.378125,0.06875 -1.996875,0.206251 C 4.384375,11.593748 3.625,11.8625 2.725,12.2625 2.55,12.3375 2.40625,12.46875 2.29375,12.656249 2.18125,12.843749 2.125,13.037501 2.125,13.237499 Z M 7,7.8666237 c 0.535208,0 0.977785,-0.1749722 1.327728,-0.5249162 0.349944,-0.349944 0.524916,-0.79252 0.524916,-1.3277281 0,-0.5352081 -0.174972,-0.9777843 -0.524916,-1.3277281 C 7.977785,4.3363075 7.535208,4.1613355 7,4.1613355 c -0.535209,0 -0.977784,0.1749721 -1.327728,0.5249158 -0.349944,0.3499438 -0.524916,0.79252 -0.524916,1.3277281 0,0.5352081 0.174972,0.9777841 0.524916,1.3277281 C 6.022216,7.6916515 6.464791,7.8666237 7,7.8666237 Z"
     id="path90-5"
     style="fill:#bebebe;stroke-width:0.361991"
     sodipodi:nodetypes="csscssscssccsssssssssccsscssscsscsssssssss" /></svg>
