<?xml version="1.0" encoding="UTF-8" standalone="no"?>
<!-- Created with Inkscape (http://www.inkscape.org/) -->

<svg
   id="svg7384"
   height="16"
   width="16"
   version="1.1"
   sodipodi:docname="hicolor_actions_scalable_hb-ope-edit-symbolic.svg"
   inkscape:version="1.2.2 (b0a8486541, 2022-12-01)"
   xmlns:inkscape="http://www.inkscape.org/namespaces/inkscape"
   xmlns:sodipodi="http://sodipodi.sourceforge.net/DTD/sodipodi-0.dtd"
   xmlns="http://www.w3.org/2000/svg"
   xmlns:svg="http://www.w3.org/2000/svg"
   xmlns:rdf="http://www.w3.org/1999/02/22-rdf-syntax-ns#"
   xmlns:cc="http://creativecommons.org/ns#"
   xmlns:dc="http://purl.org/dc/elements/1.1/">
  <title
     id="title1049">Txn Edit</title>
  <defs
     id="defs9" />
  <sodipodi:namedview
     pagecolor="#ffffff"
     bordercolor="#666666"
     borderopacity="1"
     objecttolerance="10"
     gridtolerance="10"
     guidetolerance="10"
     inkscape:pageopacity="0"
     inkscape:pageshadow="2"
     inkscape:window-width="1920"
     inkscape:window-height="1003"
     id="namedview7"
     showgrid="true"
     inkscape:zoom="14.75"
     inkscape:cx="25.864407"
     inkscape:cy="14.101695"
     inkscape:window-x="1440"
     inkscape:window-y="0"
     inkscape:window-maximized="1"
     inkscape:current-layer="svg7384"
     inkscape:snap-global="false"
     inkscape:pagecheckerboard="0"
     inkscape:showpageshadow="0"
     inkscape:deskcolor="#d1d1d1">
    <inkscape:grid
       type="xygrid"
       id="grid825" />
  </sodipodi:namedview>
  <metadata
     id="metadata90">
    <rdf:RDF>
      <cc:Work
         rdf:about="">
        <dc:format>image/svg+xml</dc:format>
        <dc:type
           rdf:resource="http://purl.org/dc/dcmitype/StillImage" />
        <dc:creator>
          <cc:Agent>
            <dc:title>Maxime DOYEN</dc:title>
          </cc:Agent>
        </dc:creator>
        <dc:source>https://www.gethomebank.org</dc:source>
        <dc:title>Txn Edit</dc:title>
      </cc:Work>
    </rdf:RDF>
  </metadata>
  <path
     id="path2"
     style="fill:#bebebe;stroke-width:0.0175"
     d="m 2.4,13.599999 q -0.5775,0 -0.9887499,-0.411249 Q 1,12.7775 1,12.2 V 2.4000001 Q 1,1.8225 1.4112501,1.4112501 1.8225,1 2.4,1 h 9.8 Q 12.7775,1 13.188751,1.4112501 13.6,1.8225 13.6,2.4000001 v 4.69 Q 13.2675,6.9325 12.9175,6.8187501 12.5675,6.705 12.2,6.6525001 v -4.2525 H 2.4 V 12.2 h 4.235 q 0.0525,0.384999 0.1662499,0.734999 0.1137497,0.350001 0.27125,0.665 z M 2.4,11.5 v 0.7 -9.7999999 4.2525 -0.0525 z m 1.3999999,-0.700001 h 2.8525 q 0.0525,-0.367499 0.16625,-0.717499 0.1137498,-0.3499998 0.25375,-0.6824999 h -3.2725 z m 0,-2.7999989 h 4.2699999 q 0.56,-0.5249999 1.2512501,-0.875 Q 10.0125,6.775 10.8,6.6525001 v -0.0525 H 3.7999999 Z m 0,-2.8 H 10.8 V 3.8 H 3.7999999 Z M 11.5,8 C 10.531667,8 9.7059382,8.3409374 9.0234375,9.0234375 8.3409375,9.7059374 8,10.531667 8,11.5 8,12.468333 8.3409375,13.294062 9.0234375,13.976562 9.7059382,14.659062 10.531667,15 11.5,15 12.468333,15 13.294063,14.659062 13.976562,13.976562 14.659063,13.294062 15,12.468333 15,11.5 15,10.531667 14.659063,9.7059374 13.976562,9.0234375 13.294063,8.3409374 12.468333,8 11.5,8 Z m 1.164062,1.4003906 c 0.06999,0 0.137501,0.012813 0.203126,0.039063 0.06562,0.02625 0.125235,0.064687 0.177734,0.1171875 l 0.361328,0.3691406 c 0.0525,0.04813 0.09117,0.1043008 0.115234,0.1699218 0.02406,0.06562 0.03516,0.133125 0.03516,0.203125 0,0.06562 -0.01112,0.129924 -0.03516,0.19336 -0.02406,0.06344 -0.06273,0.121327 -0.115234,0.173828 l -2.933594,2.933593 H 9.3574219 V 12.484375 L 12.296875,9.5507812 c 0.04813,-0.048124 0.104526,-0.085077 0.167969,-0.1113281 0.06344,-0.02625 0.129219,-0.039063 0.199218,-0.039063 z m 0,0.5253906 0.367188,0.3671878 z m -0.740234,0.7343748 -2.0410155,2.046875 v 0.367188 H 10.25 l 2.046875,-2.041016 -0.189453,-0.189453 z" />
</svg>
