<?xml version="1.0" encoding="UTF-8" standalone="no"?>
<!-- Created with Inkscape (http://www.inkscape.org/) -->

<svg
   id="svg7384"
   height="16"
   width="16"
   version="1.1"
   inkscape:version="1.2.2 (b0a8486541, 2022-12-01)"
   sodipodi:docname="hicolor_actions_scalable_hb-rep-balance-symbolic.svg"
   xml:space="preserve"
   xmlns:inkscape="http://www.inkscape.org/namespaces/inkscape"
   xmlns:sodipodi="http://sodipodi.sourceforge.net/DTD/sodipodi-0.dtd"
   xmlns="http://www.w3.org/2000/svg"
   xmlns:svg="http://www.w3.org/2000/svg"
   xmlns:rdf="http://www.w3.org/1999/02/22-rdf-syntax-ns#"
   xmlns:cc="http://creativecommons.org/ns#"
   xmlns:dc="http://purl.org/dc/elements/1.1/"><title
     id="title1168">Report Balance</title><path
     style="fill:#bebebe;stroke-linejoin:round;stroke-miterlimit:0;-inkscape-stroke:none"
     d="M 7.6230469,0.20898438 C 6.6340349,0.20838988 5.8216712,1.0207536 5.8222656,2.0097656 5.8227137,2.5068871 6.0310278,2.9565454 6.3613281,3.2832031 L 4.4316406,7.3808594 C 4.3131563,7.3560624 4.234829,7.2460183 4.109375,7.2460937 3.5142115,7.2457359 3.0591252,7.585211 2.7304688,8.0351563 L 0.82421875,7.1425781 0.3984375,8.0488281 2.34375,8.9589844 c -0.00185,0.032901 -0.035126,0.05261 -0.035156,0.085937 C 2.3079994,10.033934 3.1203631,10.846298 4.109375,10.845703 5.0983869,10.846298 5.9107506,10.033934 5.9101562,9.0449219 5.9097034,8.5424586 5.6939653,8.093054 5.3574219,7.765625 L 7.2851562,3.6679688 c 0.1050843,0.023065 0.176294,0.1155602 0.2871094,0.1191406 l 1.9628907,8.1269536 c -0.4887902,0.323353 -0.8656101,0.786842 -0.8652344,1.412109 -5.943e-4,0.989012 0.8117694,1.801375 1.8007811,1.800781 0.987983,-8.9e-4 1.799422,-0.812798 1.798828,-1.800781 5.94e-4,-0.987984 -0.810845,-1.799891 -1.798828,-1.800781 L 8.515625,3.4355469 C 9.0242828,3.1165492 9.4212984,2.6496426 9.421875,2.0097656 9.422469,1.0217819 8.6110304,0.2098749 7.6230469,0.20898438 Z m 0,1.00000002 C 8.0706971,1.2093879 8.4221442,1.5621153 8.421875,2.0097656 8.4214721,2.456919 8.0702002,2.8081908 7.6230469,2.8085938 7.1753965,2.8088629 6.8226691,2.4574159 6.8222656,2.0097656 6.8219963,1.5616181 7.1748994,1.208715 7.6230469,1.2089844 Z M 14.029297,3.703125 c -0.989012,-5.943e-4 -1.801376,0.8117694 -1.800781,1.8007812 4.97e-4,0.5518355 0.283714,1.0012112 0.679687,1.3320313 l -2.167969,4.6718755 0.90625,0.421875 2.183594,-4.7089849 c 0.07491,0.0096 0.121842,0.082078 0.199219,0.082031 0.986955,-8.895e-4 1.797939,-0.8118727 1.798828,-1.7988282 C 15.828719,4.5159226 15.01728,3.7040156 14.029297,3.703125 Z m 0,1 c 0.44765,4.035e-4 0.799097,0.3531309 0.798828,0.8007812 -4.03e-4,0.4471534 -0.351675,0.7984252 -0.798828,0.7988282 -0.44765,2.691e-4 -0.800378,-0.3511779 -0.800781,-0.7988282 -2.7e-4,-0.4481474 0.352633,-0.8010505 0.800781,-0.8007812 z M 4.109375,8.2460938 C 4.5570253,8.2458246 4.9097528,8.5972716 4.9101562,9.0449219 4.9104256,9.4930693 4.5575225,9.8459725 4.109375,9.8457031 3.6612275,9.8459725 3.3083244,9.4930693 3.3085938,9.0449219 3.3089972,8.5972716 3.6617247,8.2458246 4.109375,8.2460938 Z m 6.361328,4.2792972 c 0.44765,4.03e-4 0.799097,0.353131 0.798828,0.800781 2.69e-4,0.44765 -0.351178,0.800378 -0.798828,0.800781 -0.448147,2.69e-4 -0.8010504,-0.352634 -0.8007811,-0.800781 -2.693e-4,-0.448148 0.3526341,-0.801051 0.8007811,-0.800781 z"
     id="path493-3" /><defs
     id="defs10"><inkscape:path-effect
       effect="bspline"
       id="path-effect1287"
       is_visible="true"
       lpeversion="1"
       weight="33.333333"
       steps="2"
       helper_size="0"
       apply_no_weight="true"
       apply_with_weight="true"
       only_selected="false" /><inkscape:path-effect
       effect="bspline"
       id="path-effect1283"
       is_visible="true"
       lpeversion="1"
       weight="33.333333"
       steps="2"
       helper_size="0"
       apply_no_weight="true"
       apply_with_weight="true"
       only_selected="false" /><inkscape:path-effect
       effect="bspline"
       id="path-effect1279"
       is_visible="true"
       lpeversion="1"
       weight="33.333333"
       steps="2"
       helper_size="0"
       apply_no_weight="true"
       apply_with_weight="true"
       only_selected="false" /><inkscape:path-effect
       effect="bspline"
       id="path-effect1275"
       is_visible="true"
       lpeversion="1"
       weight="33.333333"
       steps="2"
       helper_size="0"
       apply_no_weight="true"
       apply_with_weight="true"
       only_selected="false" /><inkscape:path-effect
       effect="bspline"
       id="path-effect1271"
       is_visible="true"
       lpeversion="1"
       weight="33.333333"
       steps="2"
       helper_size="0"
       apply_no_weight="true"
       apply_with_weight="true"
       only_selected="false" /><linearGradient
       id="linearGradient11152"><stop
         id="stop11154"
         offset="0"
         style="stop-color:#0009c4;stop-opacity:1;" /><stop
         id="stop11156"
         offset="1"
         style="stop-color:#504ffc;stop-opacity:1;" /></linearGradient><linearGradient
       id="linearGradient10735"><stop
         id="stop10737"
         offset="0"
         style="stop-color:#c0c0c0;stop-opacity:0;" /><stop
         id="stop10739"
         offset="1"
         style="stop-color:#c0c0c0;stop-opacity:0;" /></linearGradient></defs><sodipodi:namedview
     pagecolor="#ffffff"
     bordercolor="#666666"
     borderopacity="1"
     objecttolerance="10"
     gridtolerance="10"
     guidetolerance="10"
     inkscape:pageopacity="0"
     inkscape:pageshadow="2"
     inkscape:window-width="1920"
     inkscape:window-height="1003"
     id="namedview8"
     showgrid="true"
     inkscape:zoom="36.854803"
     inkscape:cx="1.6144436"
     inkscape:cy="8.5741877"
     inkscape:window-x="1440"
     inkscape:window-y="0"
     inkscape:window-maximized="1"
     inkscape:current-layer="svg7384"
     inkscape:object-nodes="false"
     inkscape:pagecheckerboard="0"
     inkscape:showpageshadow="0"
     inkscape:deskcolor="#d1d1d1"><inkscape:grid
       type="xygrid"
       id="grid3214"
       originx="0"
       originy="0"
       spacingx="1.0666667"
       spacingy="1.0666667" /></sodipodi:namedview><metadata
     id="metadata90"><rdf:RDF><cc:Work
         rdf:about=""><dc:format>image/svg+xml</dc:format><dc:type
           rdf:resource="http://purl.org/dc/dcmitype/StillImage" /><dc:creator><cc:Agent><dc:title>Maxime DOYEN</dc:title></cc:Agent></dc:creator><dc:source>https://www.gethomebank.org</dc:source><dc:title>Report Balance</dc:title></cc:Work></rdf:RDF></metadata><g
     id="g831"
     transform="matrix(0.025,0,0,0.025,-17.85194,16.421162)" /><path
     style="color:#000000;fill:#bebebe;stroke-dasharray:2, 1;-inkscape-stroke:none"
     d="m 14.978516,11.5 -2,0.002 0.002,1 2,-0.002 z m -3,0.002 -2.0000004,0.002 0.00195,1 2.0000002,-0.002 z m -3.0000004,0.0039 -2,0.002 0.00195,1 2.0000001,-0.002 z m -3,0.002 -2,0.002 0.00195,1 1.9999999,-0.002 z m -3,0.002 -1.99999997,0.002 0.001953,1 2.00000005,-0.002 z"
     id="path1285" /></svg>
