<?xml version="1.0" encoding="UTF-8" standalone="no"?>
<svg
   width="16"
   height="16"
   version="1.1"
   id="svg8"
   sodipodi:docname="hicolor_actions_scalable_text-casesensitive-symbolic.svg"
   inkscape:version="1.2.2 (b0a8486541, 2022-12-01)"
   xmlns:inkscape="http://www.inkscape.org/namespaces/inkscape"
   xmlns:sodipodi="http://sodipodi.sourceforge.net/DTD/sodipodi-0.dtd"
   xmlns="http://www.w3.org/2000/svg"
   xmlns:svg="http://www.w3.org/2000/svg"
   xmlns:rdf="http://www.w3.org/1999/02/22-rdf-syntax-ns#"
   xmlns:cc="http://creativecommons.org/ns#"
   xmlns:dc="http://purl.org/dc/elements/1.1/">
  <title
     id="title1049">Text Case Sensitive</title>
  <metadata
     id="metadata14">
    <rdf:RDF>
      <cc:Work
         rdf:about="">
        <dc:format>image/svg+xml</dc:format>
        <dc:type
           rdf:resource="http://purl.org/dc/dcmitype/StillImage" />
        <dc:creator>
          <cc:Agent>
            <dc:title>Maxime DOYEN</dc:title>
          </cc:Agent>
        </dc:creator>
        <dc:source>https://www.gethomebank.org</dc:source>
        <dc:title>Text Case Sensitive</dc:title>
      </cc:Work>
    </rdf:RDF>
  </metadata>
  <defs
     id="defs12" />
  <sodipodi:namedview
     pagecolor="#ffffff"
     bordercolor="#666666"
     borderopacity="1"
     objecttolerance="10"
     gridtolerance="10"
     guidetolerance="10"
     inkscape:pageopacity="0"
     inkscape:pageshadow="2"
     inkscape:window-width="1920"
     inkscape:window-height="1003"
     id="namedview10"
     showgrid="true"
     inkscape:zoom="29.5"
     inkscape:cx="0.62711864"
     inkscape:cy="5.7288136"
     inkscape:window-x="1440"
     inkscape:window-y="0"
     inkscape:window-maximized="1"
     inkscape:current-layer="svg8"
     inkscape:pagecheckerboard="0"
     inkscape:showpageshadow="0"
     inkscape:deskcolor="#d1d1d1">
    <inkscape:grid
       type="xygrid"
       id="grid827" />
  </sodipodi:namedview>
  <text
     xml:space="preserve"
     style="font-style:normal;font-weight:normal;font-size:12.5px;line-height:25px;font-family:sans-serif;text-align:center;letter-spacing:0px;word-spacing:0px;text-anchor:middle;fill:#000000;fill-opacity:1;stroke:none;stroke-width:1px;stroke-linecap:butt;stroke-linejoin:miter;stroke-opacity:1"
     x="9.2881355"
     y="25.355932"
     id="text825" />
  <path
     d="M 1,12.241433 4.271028,3.5186916 h 1.5700935 l 3.271028,8.7227414 H 7.6074766 L 6.8224299,10.017134 H 3.2897196 L 2.5046729,12.241433 Z M 3.7476636,8.7523365 H 6.364486 L 5.0996885,5.1323988 h -0.087227 z m 8.0467294,3.7289715 q -1.068536,0 -1.679128,-0.556074 -0.6105921,-0.556075 -0.6105921,-1.515577 0,-0.9158875 0.7087231,-1.4937691 0.708722,-0.5778817 1.820872,-0.5778817 0.501558,0 0.926791,0.076324 0.425234,0.076324 0.73053,0.2507788 V 8.3598131 q 0,-0.5887851 -0.403427,-0.9376947 -0.403427,-0.3489097 -1.101246,-0.3489097 -0.457944,0 -0.861371,0.1962617 -0.403427,0.1962617 -0.686916,0.5669782 L 9.7009346,7.1386293 q 0.4143304,-0.5887851 1.0467294,-0.894081 0.632398,-0.305296 1.461059,-0.305296 1.352025,0 2.071651,0.6433022 Q 15,7.2258567 15,8.4470405 v 3.8380065 h -1.286604 v -0.741433 h -0.06542 q -0.283489,0.436137 -0.76324,0.686916 -0.479751,0.250778 -1.090343,0.250778 z m 0.218068,-1.090342 q 0.697819,0 1.188474,-0.490655 0.490654,-0.490654 0.490654,-1.188473 -0.305296,-0.1744548 -0.69782,-0.2616822 -0.392523,-0.087227 -0.719626,-0.087227 -0.697819,0 -1.068535,0.2725856 -0.370717,0.2725857 -0.370717,0.7741436 0,0.436137 0.327103,0.708722 0.327103,0.272586 0.850467,0.272586 z"
     id="path2"
     style="fill:#bebebe;stroke-width:0.0218069;" />
</svg>
