<?xml version="1.0" encoding="UTF-8" standalone="no"?>
<!-- Created with Inkscape (http://www.inkscape.org/) -->

<svg
   id="svg7384"
   height="16"
   width="16"
   version="1.1"
   inkscape:version="1.2.2 (b0a8486541, 2022-12-01)"
   sodipodi:docname="hicolor_actions_scalable_eye-not-looking-symbolic.svg"
   xmlns:inkscape="http://www.inkscape.org/namespaces/inkscape"
   xmlns:sodipodi="http://sodipodi.sourceforge.net/DTD/sodipodi-0.dtd"
   xmlns="http://www.w3.org/2000/svg"
   xmlns:svg="http://www.w3.org/2000/svg"
   xmlns:rdf="http://www.w3.org/1999/02/22-rdf-syntax-ns#"
   xmlns:cc="http://creativecommons.org/ns#"
   xmlns:dc="http://purl.org/dc/elements/1.1/">
  <title
     id="title1058">Eye Not Looking</title>
  <defs
     id="defs12">
    <linearGradient
       id="linearGradient5606"
       inkscape:swatch="solid">
      <stop
         style="stop-color:#000000;stop-opacity:1;"
         offset="0"
         id="stop5608" />
    </linearGradient>
    <filter
       style="color-interpolation-filters:sRGB"
       id="filter7554">
      <feBlend
         mode="darken"
         in2="BackgroundImage"
         id="feBlend7556" />
    </filter>
    <filter
       style="color-interpolation-filters:sRGB"
       id="filter7554-5">
      <feBlend
         mode="darken"
         in2="BackgroundImage"
         id="feBlend7556-6" />
    </filter>
    <filter
       id="filter7554-1"
       style="color-interpolation-filters:sRGB">
      <feBlend
         id="feBlend7556-8"
         in2="BackgroundImage"
         mode="darken" />
    </filter>
  </defs>
  <sodipodi:namedview
     pagecolor="#ffffff"
     bordercolor="#666666"
     borderopacity="1"
     objecttolerance="10"
     gridtolerance="10"
     guidetolerance="10"
     inkscape:pageopacity="0"
     inkscape:pageshadow="2"
     inkscape:window-width="1920"
     inkscape:window-height="1003"
     id="namedview10"
     showgrid="true"
     inkscape:zoom="33.625"
     inkscape:cx="8.0148699"
     inkscape:cy="6.9888476"
     inkscape:window-x="1440"
     inkscape:window-y="0"
     inkscape:window-maximized="1"
     inkscape:current-layer="svg7384"
     inkscape:pagecheckerboard="0"
     inkscape:showpageshadow="0"
     inkscape:deskcolor="#d1d1d1">
    <inkscape:grid
       type="xygrid"
       id="grid3219" />
  </sodipodi:namedview>
  <metadata
     id="metadata90">
    <rdf:RDF>
      <cc:Work
         rdf:about="">
        <dc:format>image/svg+xml</dc:format>
        <dc:type
           rdf:resource="http://purl.org/dc/dcmitype/StillImage" />
        <dc:title>Eye Not Looking</dc:title>
        <dc:creator>
          <cc:Agent>
            <dc:title>Maxime DOYEN</dc:title>
          </cc:Agent>
        </dc:creator>
        <dc:source>https://www.gethomebank.org</dc:source>
      </cc:Work>
    </rdf:RDF>
  </metadata>
  <g
     id="g833"
     transform="matrix(0.01590909,0,0,0.01590909,0.3636364,15.190908)">
    <path
       d="m 644,-428 -58,-58 q 9,-47 -27,-88 -36,-41 -93,-32 l -58,-58 q 17,-8 34.5,-12 17.5,-4 37.5,-4 75,0 127.5,52.5 52.5,52.5 52.5,127.5 0,20 -4,37.5 -4,17.5 -12,34.5 z m 128,126 -58,-56 q 38,-29 67.5,-63.5 Q 811,-456 832,-500 782,-601 688.5,-660.5 595,-720 480,-720 q -29,0 -57,4 -28,4 -55,12 l -62,-62 q 41,-17 84,-25.5 43,-8.5 90,-8.5 151,0 269,83.5 118,83.5 171,216.5 -23,59 -60.5,109.5 Q 822,-340 772,-302 Z m 20,246 -168,-166 q -35,11 -70.5,16.5 Q 518,-200 480,-200 329,-200 211,-283.5 93,-367 40,-500 q 21,-53 53,-98.5 32,-45.5 73,-81.5 l -110,-112 56,-56 736,736 z M 222,-624 q -29,26 -53,57 -24,31 -41,67 50,101 143.5,160.5 93.5,59.5 208.5,59.5 20,0 39,-2.5 19,-2.5 39,-5.5 l -36,-38 q -11,3 -21,4.5 -10,1.5 -21,1.5 -75,0 -127.5,-52.5 Q 300,-425 300,-500 q 0,-11 1.5,-21 1.5,-10 4.5,-21 z m 319,93 z m -151,75 z"
       id="path2-3"
       style="fill:#bebebe;" />
  </g>
</svg>
