<?xml version="1.0" encoding="UTF-8" standalone="no"?>
<svg
   height="16"
   width="16"
   version="1.1"
   id="svg4"
   sodipodi:docname="hicolor_actions_scalable_list-move-after-symbolic.svg"
   inkscape:version="1.2.2 (b0a8486541, 2022-12-01)"
   xmlns:inkscape="http://www.inkscape.org/namespaces/inkscape"
   xmlns:sodipodi="http://sodipodi.sourceforge.net/DTD/sodipodi-0.dtd"
   xmlns="http://www.w3.org/2000/svg"
   xmlns:svg="http://www.w3.org/2000/svg"
   xmlns:rdf="http://www.w3.org/1999/02/22-rdf-syntax-ns#"
   xmlns:cc="http://creativecommons.org/ns#"
   xmlns:dc="http://purl.org/dc/elements/1.1/">
  <title
     id="title1152">List Move After</title>
  <defs
     id="defs8" />
  <sodipodi:namedview
     id="namedview6"
     pagecolor="#ffffff"
     bordercolor="#666666"
     borderopacity="1.0"
     inkscape:pageshadow="2"
     inkscape:pageopacity="0.0"
     inkscape:pagecheckerboard="0"
     showgrid="false"
     inkscape:zoom="18.5"
     inkscape:cx="-1.0540541"
     inkscape:cy="16.972973"
     inkscape:window-width="1920"
     inkscape:window-height="1003"
     inkscape:window-x="1440"
     inkscape:window-y="0"
     inkscape:window-maximized="1"
     inkscape:current-layer="svg4"
     inkscape:showpageshadow="0"
     inkscape:deskcolor="#d1d1d1" />
  <path
     d="M 4.991785,13.809203 4.2751183,13.092537 5.7084517,11.659203 q -1.8,0.116667 -3.2583334,-1.175 Q 0.991785,9.1925367 0.991785,7.1425367 q 0,-1.95 1.3583333,-3.3083337 1.3583334,-1.3583333 3.3083334,-1.3583333 h 2 v 1 h -2 q -1.5166667,0 -2.5916667,1.075 -1.075,1.075 -1.075,2.591667 0,1.566666 1.0916667,2.566666 1.0916666,1.0000003 2.675,0.9666673 L 4.2751183,9.1925367 4.991785,8.4758697 7.6584517,11.142537 Z m 4,-0.666666 V 8.4758697 h 6 v 4.6666673 z m 0,-6.0000003 v -4.666667 h 6 v 4.666667 z m 1,-1 h 4 v -2.666667 h -4 z"
     id="path2"
     style="stroke-width:0.333333;fill:#bebebe;fill-opacity:1" />
  <metadata
     id="metadata1150">
    <rdf:RDF>
      <cc:Work
         rdf:about="">
        <dc:creator>
          <cc:Agent>
            <dc:title>Maxime DOYEN</dc:title>
          </cc:Agent>
        </dc:creator>
        <dc:source>https://www.gethomebank.org</dc:source>
        <dc:title>List Move After</dc:title>
      </cc:Work>
    </rdf:RDF>
  </metadata>
</svg>
