<?xml version="1.0" encoding="UTF-8" standalone="no"?>
<!-- Created with Inkscape (http://www.inkscape.org/) -->

<svg
   width="24"
   height="24"
   id="svg2"
   sodipodi:version="0.32"
   inkscape:version="1.2.2 (b0a8486541, 2022-12-01)"
   version="1.0"
   sodipodi:docname="Default_actions_scalable_hb-life-energy.svg"
   inkscape:output_extension="org.inkscape.output.svg.inkscape"
   xml:space="preserve"
   xmlns:inkscape="http://www.inkscape.org/namespaces/inkscape"
   xmlns:sodipodi="http://sodipodi.sourceforge.net/DTD/sodipodi-0.dtd"
   xmlns:xlink="http://www.w3.org/1999/xlink"
   xmlns="http://www.w3.org/2000/svg"
   xmlns:svg="http://www.w3.org/2000/svg"
   xmlns:rdf="http://www.w3.org/1999/02/22-rdf-syntax-ns#"
   xmlns:cc="http://creativecommons.org/ns#"
   xmlns:dc="http://purl.org/dc/elements/1.1/"><title
     id="title1190">Life Energy</title><defs
     id="defs4"><linearGradient
       x1="2.5845931"
       y1="15.187757"
       x2="46.006142"
       y2="15.270951"
       id="SVGID_1_"
       gradientUnits="userSpaceOnUse"
       gradientTransform="rotate(-90.109776,23.999,15.225999)"><stop
         id="stop248"
         style="stop-color:#9b9b9b;stop-opacity:1"
         offset="0" /><stop
         id="stop250"
         style="stop-color:#ececec;stop-opacity:1"
         offset="1" /></linearGradient><linearGradient
       x1="12.222552"
       y1="15.212818"
       x2="7.1934476"
       y2="15.203182"
       id="SVGID_2_"
       xlink:href="#linearGradient3315"
       gradientUnits="userSpaceOnUse"
       gradientTransform="matrix(1.1891136,3.6233541e-4,3.6233542e-4,1.0000007,-1.3658872,-0.002617)"
       spreadMethod="pad"><stop
         id="stop265"
         style="stop-color:#a9a9a9;stop-opacity:1"
         offset="0" /><stop
         id="stop267"
         style="stop-color:#7e7e7e;stop-opacity:1"
         offset="1" /></linearGradient><linearGradient
       id="linearGradient3315"><stop
         id="stop3317"
         style="stop-color:#ffffff;stop-opacity:1"
         offset="0" /><stop
         id="stop3319"
         style="stop-color:#ffffff;stop-opacity:0"
         offset="1" /></linearGradient><linearGradient
       x1="38.306515"
       y1="15.233056"
       x2="12.151486"
       y2="15.182944"
       id="SVGID_3_"
       xlink:href="#SVGID_2_"
       gradientUnits="userSpaceOnUse"
       gradientTransform="matrix(0.56442553,0,0,0.45223691,-26.941995,4.7273659)"
       spreadMethod="pad"><stop
         id="stop274"
         style="stop-color:#bebebe;stop-opacity:1"
         offset="0" /><stop
         id="stop276"
         style="stop-color:#8c8c8c;stop-opacity:1"
         offset="1" /></linearGradient><linearGradient
       inkscape:collect="always"
       xlink:href="#linearGradient3315"
       id="linearGradient5315"
       x1="29.782742"
       y1="34.36095"
       x2="4.8377304"
       y2="34.827732"
       gradientUnits="userSpaceOnUse"
       gradientTransform="matrix(0,-0.49209108,0.5,0,-0.9960617,24.032142)" /><linearGradient
       inkscape:collect="always"
       xlink:href="#linearGradient3166"
       id="linearGradient3172"
       x1="23.964657"
       y1="10.91593"
       x2="23.964657"
       y2="40.923775"
       gradientUnits="userSpaceOnUse"
       gradientTransform="matrix(0.5,0,0,0.48981881,1e-6,-0.9701954)" /><linearGradient
       id="linearGradient3166"><stop
         style="stop-color:#8ae234;stop-opacity:1;"
         offset="0"
         id="stop3168" /><stop
         style="stop-color:#73d216;stop-opacity:1;"
         offset="1"
         id="stop3170" /></linearGradient></defs><sodipodi:namedview
     id="base"
     pagecolor="#ffffff"
     bordercolor="#666666"
     borderopacity="1.0"
     gridtolerance="10000"
     guidetolerance="10"
     objecttolerance="10"
     inkscape:pageopacity="0.0"
     inkscape:pageshadow="2"
     inkscape:zoom="29.10923"
     inkscape:cx="21.38497"
     inkscape:cy="19.237884"
     inkscape:document-units="px"
     inkscape:current-layer="layer1"
     showgrid="true"
     inkscape:window-width="1920"
     inkscape:window-height="1003"
     inkscape:window-x="1440"
     inkscape:window-y="0"
     inkscape:pagecheckerboard="0"
     inkscape:window-maximized="1"
     inkscape:showpageshadow="2"
     inkscape:deskcolor="#d1d1d1"><inkscape:grid
       type="xygrid"
       id="grid244" /></sodipodi:namedview><metadata
     id="metadata7"><rdf:RDF><cc:Work
         rdf:about=""><dc:format>image/svg+xml</dc:format><dc:type
           rdf:resource="http://purl.org/dc/dcmitype/StillImage" /><dc:creator><cc:Agent><dc:title>Maxime DOYEN</dc:title></cc:Agent></dc:creator><dc:source>https://www.gethomebank.org</dc:source><dc:title>Life Energy</dc:title></cc:Work></rdf:RDF></metadata><g
     inkscape:label="Layer 1"
     inkscape:groupmode="layer"
     id="layer1"><g
       id="g26454"
       transform="translate(-699.93118,-49.015764)"><g
         transform="translate(-10)"
         style="opacity:0.8"
         id="g26458" /></g><g
       id="g238"
       style="opacity:0.3;stroke-width:2.00111435;stroke-dasharray:none"
       transform="matrix(-9.5744227e-4,-0.49972065,0.49972065,-9.5744227e-4,4.0393833,24.003785)"><g
         id="g240"
         style="stroke-width:2.00111435;stroke-dasharray:none"><path
           d="M 38.274,4.975 H 6.851 c -0.541,0 -0.979,0.438 -0.979,0.979 v 18.733 c 0,0.54 0.439,0.979 0.979,0.979 h 31.424 c 0.54,0 0.979,-0.439 0.979,-0.979 V 5.954 c 0,-0.541 -0.44,-0.979 -0.98,-0.979 z M 37.256,23.667 H 7.87 V 6.973 H 37.256 Z M 45.089,8.43 V 3.957 C 45.089,1.774 43.312,0 41.13,0 H 3.957 C 1.774,0 0,1.774 0,3.957 v 22.538 c 0,2.183 1.774,3.957 3.957,3.957 H 41.13 c 2.183,0 3.959,-1.774 3.959,-3.957 v -4.519 c 1.609,-0.039 2.909,-1.357 2.909,-2.977 v -7.591 c 0,-1.618 -1.3,-2.939 -2.909,-2.978 z m 0.91,10.569 c 0,0.541 -0.438,0.979 -0.979,0.979 h -1.93 v 6.518 c 0,1.082 -0.877,1.958 -1.959,1.958 H 3.958 C 2.876,28.454 2,27.578 2,26.496 V 3.958 C 2,2.876 2.877,1.999 3.958,1.999 h 37.173 c 1.082,0 1.959,0.877 1.959,1.959 v 6.471 h 1.93 c 0.541,0 0.979,0.438 0.979,0.979 z"
           id="path242"
           style="stroke-width:2.00111435;stroke-dasharray:none" /></g></g><g
       id="g245"
       style="stroke-width:2"
       transform="matrix(0.5,0,0,0.5,-0.36959811,4.3905941)"><linearGradient
         x1="2.5845931"
         y1="15.187757"
         x2="46.006142"
         y2="15.270951"
         id="linearGradient7637"
         gradientUnits="userSpaceOnUse"
         gradientTransform="rotate(-90.109776,23.999,15.225999)"><stop
           id="stop7639"
           style="stop-color:#9b9b9b;stop-opacity:1"
           offset="0" /><stop
           id="stop7641"
           style="stop-color:#ececec;stop-opacity:1"
           offset="1" /></linearGradient><path
         d="m 28.709716,-5.8040642 0.0037,1.9299965 6.517988,-0.012488 c 1.081998,-0.00207 1.959676,0.873247 1.961749,1.955245 l 0.07122,37.1729317 c 0.0021,1.081998 -0.872247,1.959675 -1.954245,1.961748 l -22.536959,0.04318 c -1.081998,0.0021 -1.960677,-0.873245 -1.962748,-1.954243 L 10.7392,-1.8806261 c -0.0021,-1.081998 0.873245,-1.9606767 1.955243,-1.9627498 l 6.470988,-0.012398 -0.0037,-1.9299964 c -0.001,-0.540999 0.436124,-0.9798374 0.977123,-0.980874 l 7.589986,-0.014542 c 0.541999,-0.00104 0.979837,0.4361234 0.980874,0.9771224 z m -14.011927,5.79285702 c -0.540999,0.0010365 -0.978157,0.44087492 -0.977122,0.98087393 l 0.06021,31.42394225 c 10e-4,0.540999 0.439875,0.978159 0.980874,0.977123 l 18.732965,-0.03589 c 0.539999,-0.001 0.978157,-0.440875 0.977123,-0.980874 L 34.411629,0.93002354 c -10e-4,-0.53999901 -0.440875,-0.97815709 -0.980874,-0.97712247 z"
         id="path252"
         style="fill:url(#SVGID_1_);stroke-width:2" /></g><g
       id="g255"
       style="opacity:0.15;stroke-width:2"
       transform="matrix(-9.5797573e-4,-0.49999908,0.49999908,-9.5797573e-4,4.0015257,24.072519)"><g
         id="g257"
         style="stroke-width:2"><path
           d="M 38.274,3.975 H 6.85 c -1.091,0 -1.979,0.887 -1.979,1.978 v 18.735 c 0,1.091 0.889,1.979 1.979,1.979 h 31.424 c 1.091,0 1.979,-0.889 1.979,-1.979 V 5.953 C 40.254,4.862 39.365,3.975 38.274,3.975 Z m 0.98,20.712 c 0,0.54 -0.439,0.979 -0.979,0.979 H 6.851 c -0.541,0 -0.979,-0.439 -0.979,-0.979 V 5.954 c 0,-0.541 0.439,-0.979 0.979,-0.979 h 31.424 c 0.54,0 0.979,0.438 0.979,0.979 z M 45.02,10.429 H 43.09 V 3.958 c 0,-1.082 -0.877,-1.959 -1.959,-1.959 H 3.958 C 2.876,1.999 2,2.876 2,3.958 v 22.537 c 0,1.082 0.877,1.958 1.958,1.958 h 37.173 c 1.082,0 1.959,-0.876 1.959,-1.958 v -6.518 h 1.93 c 0.541,0 0.979,-0.438 0.979,-0.979 v -7.59 c 0,-0.541 -0.438,-0.979 -0.979,-0.979 z m -0.021,8.57 -1.909,-0.021 c -0.553,0 -1,0.447 -1,1 v 6.517 c 0,0.527 -0.432,0.959 -0.959,0.959 H 3.957 C 3.429,27.454 3,27.022 3,26.495 V 3.958 C 3,3.431 3.429,3 3.957,3 h 37.174 c 0.527,0 0.959,0.431 0.959,0.959 v 6.471 c 0,0.553 0.447,1 1,1 h 1.931 z"
           id="path259"
           style="fill:#ffffff;stroke-width:2" /></g></g><rect
       width="14.742784"
       height="8.2904081"
       x="-20.073502"
       y="7.4597831"
       transform="matrix(-0.00153514,-0.99999882,0.99999714,-0.00239126,0,0)"
       id="rect278"
       style="opacity:0.3;fill:url(#SVGID_3_);fill-opacity:1;stroke-width:1" /><path
       style="fill:url(#linearGradient3172);fill-opacity:1;stroke:#4e9a06;stroke-width:1;stroke-linecap:butt;stroke-linejoin:miter;stroke-dasharray:none;stroke-opacity:1;font-variation-settings:normal;opacity:1;vector-effect:none;stroke-miterlimit:4;stroke-dashoffset:0;-inkscape-stroke:none;marker:none;marker-start:none;marker-mid:none;marker-end:none;stop-color:#000000;stop-opacity:1"
       d="m 9.488543,22.45101 c 0.418789,-1.274083 0.191351,-1.720249 1.817059,-2.890635 m 0.01741,0.1251 c -1.416503,-1.763784 -1.283256,-3.401974 -0.7793,-5.308331 1.468008,-2.938366 3.396287,-4.063588 6.291133,-5.0480915 l 5.577071,-0.1016629 -2.213026,3.4031544 1.075992,2.095158 -0.127606,3.942872 c -3.295273,3.887764 -7.891139,3.423938 -9.824254,1.0169 z"
       id="path569"
       sodipodi:nodetypes="ccsccccccs" /><path
       style="font-variation-settings:normal;opacity:0.354;vector-effect:none;fill:none;fill-opacity:1;stroke:url(#linearGradient5315);stroke-width:1;stroke-linecap:butt;stroke-linejoin:miter;stroke-miterlimit:4;stroke-dasharray:none;stroke-dashoffset:0;stroke-opacity:1;-inkscape-stroke:none;marker:none;marker-start:none;marker-mid:none;marker-end:none;stop-color:#000000;stop-opacity:1"
       d="m 12.142837,19.037866 c -1.115043,-1.388652 -1.026948,-2.751357 -0.630244,-4.25226 1.107204,-2.533655 2.926811,-3.541962 5.499694,-4.463447 l 3.592209,-0.04095 -1.60824,2.324941 1.263869,2.29525 -0.116281,3.40348 c -2.593973,3.060891 -6.479291,2.628085 -8.000999,0.732989 z"
       id="path569-5"
       sodipodi:nodetypes="sccccccss" /><path
       style="fill:none;fill-opacity:1;stroke:#4e9a06;stroke-width:1;stroke-linecap:round;stroke-linejoin:miter;stroke-dasharray:none;stroke-opacity:1"
       d="M 14.051521,16.898536 13.817526,13.817945"
       id="path571"
       sodipodi:nodetypes="cc" /><path
       style="fill:none;fill-opacity:1;stroke:#4e9a06;stroke-width:0.999999;stroke-linecap:round;stroke-linejoin:miter;stroke-dasharray:none;stroke-opacity:1"
       d="m 16.05312,14.685721 0.285456,-2.911297"
       id="path573"
       sodipodi:nodetypes="cc" /><path
       style="fill:none;fill-opacity:1;stroke:#4e9a06;stroke-width:0.999999;stroke-linecap:round;stroke-linejoin:miter;stroke-dasharray:none;stroke-opacity:1"
       d="m 13.786492,17.183749 4.787059,0.377358"
       id="path575"
       sodipodi:nodetypes="cc" /><path
       style="fill:none;fill-opacity:1;stroke:#4e9a06;stroke-width:0.999999;stroke-linecap:round;stroke-linejoin:miter;stroke-dasharray:none;stroke-opacity:1"
       d="m 16.735088,14.214677 2.292079,0.247991"
       id="path577"
       sodipodi:nodetypes="cc" /><path
       style="fill:none;fill-opacity:1;stroke:#4e9a06;stroke-width:1;stroke-linecap:round;stroke-linejoin:miter;stroke-dasharray:none;stroke-opacity:1"
       d="m 11.348205,19.558243 6.896391,-6.865217"
       id="path1230"
       sodipodi:nodetypes="cc" /></g></svg>
