<?xml version="1.0" encoding="UTF-8" standalone="no"?>
<svg
   width="24"
   height="24"
   xml:space="preserve"
   version="1.1"
   id="svg28"
   sodipodi:docname="Default_actions_scalable_hb-rep-vehicle.svg"
   inkscape:version="1.2.2 (b0a8486541, 2022-12-01)"
   xmlns:inkscape="http://www.inkscape.org/namespaces/inkscape"
   xmlns:sodipodi="http://sodipodi.sourceforge.net/DTD/sodipodi-0.dtd"
   xmlns:xlink="http://www.w3.org/1999/xlink"
   xmlns="http://www.w3.org/2000/svg"
   xmlns:svg="http://www.w3.org/2000/svg"
   xmlns:rdf="http://www.w3.org/1999/02/22-rdf-syntax-ns#"
   xmlns:cc="http://creativecommons.org/ns#"
   xmlns:dc="http://purl.org/dc/elements/1.1/"><title
   id="title1061">Report Vehicle</title><sodipodi:namedview
   id="namedview30"
   pagecolor="#ffffff"
   bordercolor="#111111"
   borderopacity="1"
   inkscape:showpageshadow="0"
   inkscape:pageopacity="0"
   inkscape:pagecheckerboard="1"
   inkscape:deskcolor="#d1d1d1"
   showgrid="true"
   inkscape:zoom="22.273864"
   inkscape:cx="9.8097034"
   inkscape:cy="13.872761"
   inkscape:window-width="1920"
   inkscape:window-height="1003"
   inkscape:window-x="1440"
   inkscape:window-y="0"
   inkscape:window-maximized="1"
   inkscape:current-layer="svg28"
   showguides="true"><inkscape:grid
     type="xygrid"
     id="grid3455" /></sodipodi:namedview>
  <defs
   id="defs8"><linearGradient
     inkscape:collect="always"
     id="linearGradient877"><stop
       style="stop-color:#ffffff;stop-opacity:1;"
       offset="0"
       id="stop873" /><stop
       style="stop-color:#ffffff;stop-opacity:0;"
       offset="1"
       id="stop875" /></linearGradient><radialGradient
     xlink:href="#a"
     id="b"
     gradientUnits="userSpaceOnUse"
     gradientTransform="matrix(1.52177 0 0 .20751 1.8 7.2)"
     cx="6.7"
     cy="73.6"
     fx="6.7"
     fy="73.6"
     r="7.2" /><linearGradient
     id="a">
      <stop
   offset="0"
   style="stop-color:#000;stop-opacity:1"
   id="stop3" />
      <stop
   offset="1"
   style="stop-color:#000;stop-opacity:0"
   id="stop5" />
    </linearGradient><linearGradient
     inkscape:collect="always"
     xlink:href="#linearGradient877"
     id="linearGradient879"
     x1="1.7798625"
     y1="1.7818099"
     x2="22.177288"
     y2="22.271532"
     gradientUnits="userSpaceOnUse" /></defs>
  <path
   style="fill:#eeeeec;stroke:#000000;stroke-width:0.5;stroke-linecap:round;stroke-linejoin:round;stroke-dasharray:none;stroke-opacity:1"
   d="m 6.5,10.5 5.5,-0.6 5.5,0.6 v 3 l -3.5,0.3 -0.654,3.682555 -3,0.03489 L 10,13.8 6.5,13.5 Z"
   id="path2908"
   sodipodi:nodetypes="cccccccccc" /><circle
   style="fill:#eeeeec;stroke:#000000;stroke-width:0.499999;stroke-linecap:round;stroke-linejoin:round;stroke-opacity:1;stop-color:#000000"
   id="path2825"
   cx="12"
   cy="12"
   r="3.0000005" /><ellipse
   style="display:inline;overflow:visible;visibility:visible;opacity:.5;fill:url(#b);fill-opacity:1;fill-rule:nonzero;stroke:none;stroke-width:.799997;stroke-linecap:butt;stroke-linejoin:miter;stroke-miterlimit:4;stroke-dashoffset:0;stroke-opacity:1;marker:none;marker-start:none;marker-mid:none;marker-end:none"
   cx="12"
   cy="22.5"
   rx="11"
   ry="1.5"
   id="ellipse10" />
  
<path
   id="path1033"
   style="fill:#555753;stroke:#000000;stroke-width:0.5;stroke-linecap:round;stroke-linejoin:round;stroke-opacity:1;stop-color:#000000"
   d="M 12,1.25 C 6.0629389,1.25 1.25,6.0629389 1.25,12 1.2500006,17.937061 6.0629393,22.749999 12,22.749999 17.93706,22.749998 22.749998,17.93706 22.749999,12 22.749999,6.0629393 17.937061,1.2500006 12,1.25 Z m -0.157971,3.0714285 c 3.648482,3.956e-4 6.792903,2.5680886 7.5226,6.1428565 H 17.5 v 3.071429 h 1.86063 C 18.744788,16.548777 16.3906,18.903751 13.377743,19.5206 V 17.5 h -3.071428 v 2.018601 C 7.2932515,18.902759 4.9382772,16.548572 4.3214285,13.535714 H 6.5 V 10.464285 H 4.3214285 C 5.0509747,6.8902528 8.1942979,4.3227739 11.842029,4.3214285 Z M 12,10.608 c -0.716107,0.0069 -1.383793,0.635305 -1.392,1.392 -0.0073,0.669393 0.523869,1.395182 1.392,1.392 0.871529,-0.0032 1.386857,-0.586276 1.392,-1.392 0.0051,-0.796251 -0.628073,-1.399406 -1.392,-1.392 z"
   sodipodi:nodetypes="sssssccccccccccccccsssss" /><circle
   style="opacity:0.36436937;fill:none;stroke:url(#linearGradient879);stroke-width:0.5;stroke-linecap:square;stroke-linejoin:round;stroke-dashoffset:0.7;stroke-opacity:1;stop-color:#000000"
   id="path293"
   r="10.25"
   cy="12"
   cx="11.999999" /><metadata
   id="metadata1059"><rdf:RDF><cc:Work
       rdf:about=""><dc:creator><cc:Agent><dc:title>Maxime DOYEN</dc:title></cc:Agent></dc:creator><dc:source>https://www.gethomebank.org</dc:source><dc:title>Report Vehicle</dc:title></cc:Work></rdf:RDF></metadata></svg>
