<?xml version="1.0" encoding="UTF-8" standalone="no"?>
<!-- Created with Inkscape (http://www.inkscape.org/) -->

<svg
   width="24"
   height="24"
   id="svg4908"
   sodipodi:version="0.32"
   inkscape:version="1.2.2 (b0a8486541, 2022-12-01)"
   sodipodi:docname="Default_actions_scalable_hb-account.svg"
   inkscape:output_extension="org.inkscape.output.svg.inkscape"
   inkscape:export-filename="/home/andreas/project/misc icons/32x32/actions/bookmark-view.png"
   inkscape:export-xdpi="90"
   inkscape:export-ydpi="90"
   version="1.0"
   sodipodi:modified="true"
   xmlns:inkscape="http://www.inkscape.org/namespaces/inkscape"
   xmlns:sodipodi="http://sodipodi.sourceforge.net/DTD/sodipodi-0.dtd"
   xmlns:xlink="http://www.w3.org/1999/xlink"
   xmlns="http://www.w3.org/2000/svg"
   xmlns:svg="http://www.w3.org/2000/svg"
   xmlns:rdf="http://www.w3.org/1999/02/22-rdf-syntax-ns#"
   xmlns:cc="http://creativecommons.org/ns#"
   xmlns:dc="http://purl.org/dc/elements/1.1/">
  <defs
     id="defs4910">
    <linearGradient
       inkscape:collect="always"
       id="linearGradient5060">
      <stop
         style="stop-color:black;stop-opacity:1;"
         offset="0"
         id="stop5062" />
      <stop
         style="stop-color:black;stop-opacity:0;"
         offset="1"
         id="stop5064" />
    </linearGradient>
    <linearGradient
       id="linearGradient5048">
      <stop
         style="stop-color:black;stop-opacity:0;"
         offset="0"
         id="stop5050" />
      <stop
         id="stop5056"
         offset="0.5"
         style="stop-color:black;stop-opacity:1;" />
      <stop
         style="stop-color:black;stop-opacity:0;"
         offset="1"
         id="stop5052" />
    </linearGradient>
    <linearGradient
       inkscape:collect="always"
       id="linearGradient6212">
      <stop
         style="stop-color:#ffffff;stop-opacity:1;"
         offset="0"
         id="stop6214" />
      <stop
         style="stop-color:#ffffff;stop-opacity:0;"
         offset="1"
         id="stop6216" />
    </linearGradient>
    <linearGradient
       inkscape:collect="always"
       xlink:href="#linearGradient6212"
       id="linearGradient6496"
       x1="35.283695"
       y1="7.9827366"
       x2="35.194096"
       y2="6.3250184"
       gradientUnits="userSpaceOnUse"
       gradientTransform="matrix(0.5,0,0,0.5,0.26960748,-1.0002225)" />
    <linearGradient
       inkscape:collect="always"
       xlink:href="#linearGradient6212"
       id="linearGradient3497"
       gradientUnits="userSpaceOnUse"
       gradientTransform="matrix(0.5,0,0,0.5,0.26960723,27.499777)"
       x1="36.5625"
       y1="-16.999678"
       x2="36.5625"
       y2="-20.594276" />
    <linearGradient
       inkscape:collect="always"
       xlink:href="#linearGradient6212"
       id="linearGradient3499"
       gradientUnits="userSpaceOnUse"
       gradientTransform="matrix(0.5,0,0,0.5,-12.730393,27.499777)"
       x1="36.5625"
       y1="-16.999678"
       x2="36.5625"
       y2="-20.594276" />
    <linearGradient
       inkscape:collect="always"
       xlink:href="#linearGradient5060"
       id="linearGradient5601"
       x1="23.643883"
       y1="14.324039"
       x2="23.643883"
       y2="12.600467"
       gradientUnits="userSpaceOnUse"
       gradientTransform="matrix(0.5,0,0,0.5,0.26960748,-0.50022714)" />
    <linearGradient
       inkscape:collect="always"
       xlink:href="#linearGradient6212"
       id="linearGradient5578"
       gradientUnits="userSpaceOnUse"
       x1="19.375"
       y1="17.749723"
       x2="19.375"
       y2="42.944225"
       gradientTransform="matrix(0.5,0,0,0.5,0.26960748,-1.0002225)" />
    <linearGradient
       inkscape:collect="always"
       xlink:href="#linearGradient3275"
       id="linearGradient5581"
       gradientUnits="userSpaceOnUse"
       gradientTransform="matrix(0.464286,0,0,0.555,1.1088874,-1.852728)"
       x1="18.250002"
       y1="11.918621"
       x2="28.615379"
       y2="11.952705" />
    <linearGradient
       id="linearGradient3275">
      <stop
         id="stop3277"
         offset="0"
         style="stop-color:#e7e7e4;stop-opacity:1;" />
      <stop
         style="stop-color:white;stop-opacity:1;"
         offset="0.32432431"
         id="stop5589" />
      <stop
         id="stop5591"
         offset="0.83564645"
         style="stop-color:white;stop-opacity:1;" />
      <stop
         id="stop3279"
         offset="1"
         style="stop-color:#d3d7cf;stop-opacity:1" />
    </linearGradient>
    <linearGradient
       inkscape:collect="always"
       xlink:href="#linearGradient3162"
       id="linearGradient5584"
       gradientUnits="userSpaceOnUse"
       x1="22.625"
       y1="20.624619"
       x2="22.625"
       y2="38.75"
       gradientTransform="matrix(0.5,0,0,0.5,0.26960748,-1.0002225)" />
    <linearGradient
       id="linearGradient3162">
      <stop
         style="stop-color:#5273a4;stop-opacity:1;"
         offset="0"
         id="stop3164" />
      <stop
         style="stop-color:#3465a4;stop-opacity:1;"
         offset="1"
         id="stop3166" />
    </linearGradient>
    <linearGradient
       inkscape:collect="always"
       xlink:href="#linearGradient5060"
       id="linearGradient5587"
       gradientUnits="userSpaceOnUse"
       gradientTransform="matrix(0.5,0,0,0.5,14.769607,-0.50022714)"
       x1="-6.4523492"
       y1="17.329243"
       x2="-6.4965434"
       y2="13.086602" />
    <linearGradient
       inkscape:collect="always"
       xlink:href="#linearGradient3392"
       id="linearGradient3408"
       gradientUnits="userSpaceOnUse"
       gradientTransform="matrix(-0.5,0,0,0.5,33.769607,-1.5002225)"
       x1="56.500004"
       y1="13.926061"
       x2="56.500004"
       y2="35.466221" />
    <linearGradient
       id="linearGradient3412">
      <stop
         style="stop-color:#4e9a06;stop-opacity:1;"
         offset="0"
         id="stop3414" />
      <stop
         style="stop-color:#87d23f;stop-opacity:1;"
         offset="1"
         id="stop3416" />
    </linearGradient>
    <linearGradient
       inkscape:collect="always"
       xlink:href="#linearGradient6212"
       id="linearGradient6512"
       x1="-71.724426"
       y1="8.4029417"
       x2="-71.637245"
       y2="6.193233"
       gradientUnits="userSpaceOnUse"
       gradientTransform="matrix(0.5,0,0,0.5,41.769607,-1.0002225)" />
    <linearGradient
       inkscape:collect="always"
       xlink:href="#linearGradient6212"
       id="linearGradient3410"
       gradientUnits="userSpaceOnUse"
       gradientTransform="matrix(0.5,0,0,0.5,0.26960723,23.499777)"
       x1="5.3916893"
       y1="-38.885746"
       x2="5.3916893"
       y2="8.9339542" />
    <linearGradient
       inkscape:collect="always"
       xlink:href="#linearGradient3412"
       id="linearGradient3380"
       gradientUnits="userSpaceOnUse"
       gradientTransform="matrix(0.5,0,0,0.5,-9.7303928,-1.500227)"
       x1="56.500004"
       y1="13.926061"
       x2="56.500004"
       y2="33.869427" />
    <linearGradient
       id="linearGradient3392">
      <stop
         id="stop3394"
         offset="0"
         style="stop-color:#555753;stop-opacity:1" />
      <stop
         id="stop3396"
         offset="1"
         style="stop-color:#888a85;stop-opacity:1" />
    </linearGradient>
    <radialGradient
       inkscape:collect="always"
       xlink:href="#linearGradient5060"
       id="radialGradient3286"
       cx="24.3125"
       cy="39"
       fx="24.3125"
       fy="39"
       r="22.5625"
       gradientTransform="matrix(0.23118,0,0,0.16343493,6.3990675,12.313317)"
       gradientUnits="userSpaceOnUse" />
    <linearGradient
       inkscape:collect="always"
       xlink:href="#linearGradient6212"
       id="linearGradient1099"
       gradientUnits="userSpaceOnUse"
       gradientTransform="matrix(-0.5,0,0,0.5,23.769607,23.499773)"
       x1="5.3916893"
       y1="-38.885746"
       x2="5.3916893"
       y2="8.9339542" />
  </defs>
  <sodipodi:namedview
     id="base"
     pagecolor="#ffffff"
     bordercolor="#666666"
     borderopacity="1.0"
     inkscape:pageopacity="0.0"
     inkscape:pageshadow="2"
     inkscape:zoom="44.471578"
     inkscape:cx="11.591673"
     inkscape:cy="17.201998"
     inkscape:current-layer="layer1"
     showgrid="true"
     inkscape:grid-bbox="true"
     inkscape:document-units="px"
     inkscape:window-width="1920"
     inkscape:window-height="1003"
     inkscape:window-x="1440"
     inkscape:window-y="0"
     width="48px"
     height="48px"
     showguides="true"
     inkscape:guide-bbox="true"
     inkscape:showpageshadow="2"
     inkscape:pagecheckerboard="0"
     inkscape:deskcolor="#d1d1d1"
     inkscape:window-maximized="1">
    <inkscape:grid
       type="xygrid"
       id="grid385" />
  </sodipodi:namedview>
  <metadata
     id="metadata4913">
    <rdf:RDF>
      <cc:Work
         rdf:about="">
        <dc:format>image/svg+xml</dc:format>
        <dc:type
           rdf:resource="http://purl.org/dc/dcmitype/StillImage" />
        <dc:title>New Address Book</dc:title>
        <dc:date>December 2006</dc:date>
        <dc:creator>
          <cc:Agent>
            <dc:title>Andreas Nilsson</dc:title>
          </cc:Agent>
        </dc:creator>
        <dc:subject>
          <rdf:Bag>
            <rdf:li>address</rdf:li>
            <rdf:li>book</rdf:li>
            <rdf:li>contact</rdf:li>
          </rdf:Bag>
        </dc:subject>
        <cc:license
           rdf:resource="http://creativecommons.org/licenses/GPL/2.0/" />
        <dc:source>http://www.gnome.org</dc:source>
      </cc:Work>
      <cc:License
         rdf:about="http://creativecommons.org/licenses/GPL/2.0/">
        <cc:permits
           rdf:resource="http://web.resource.org/cc/Reproduction" />
        <cc:permits
           rdf:resource="http://web.resource.org/cc/Distribution" />
        <cc:requires
           rdf:resource="http://web.resource.org/cc/Notice" />
        <cc:permits
           rdf:resource="http://web.resource.org/cc/DerivativeWorks" />
        <cc:requires
           rdf:resource="http://web.resource.org/cc/ShareAlike" />
        <cc:requires
           rdf:resource="http://web.resource.org/cc/SourceCode" />
      </cc:License>
    </rdf:RDF>
  </metadata>
  <g
     id="layer1"
     inkscape:label="Layer 1"
     inkscape:groupmode="layer">
    <ellipse
       style="opacity:0.188571;fill:url(#radialGradient3286);fill-opacity:1;stroke:none;stroke-width:0.417684;stroke-linecap:round;stroke-linejoin:round;stroke-miterlimit:4;stroke-dasharray:none;stroke-dashoffset:1.4;stroke-opacity:1"
       id="path3270"
       cx="12.019631"
       cy="18.687281"
       rx="5.2159986"
       ry="3.6875002" />
    <path
       sodipodi:nodetypes="cccccccccccc"
       id="path3372"
       d="m 21.519609,2.999773 c 0,6.3336377 0,12.667275 0,19.000913 3.07e-4,0.788685 -0.868902,0.787213 -1.442237,0.749084 -1.322009,-0.0098 -2.646018,0.01987 -3.966754,-0.01517 -0.808726,-0.203356 -0.548075,-1.1401 -0.591011,-1.754424 0,-5.993469 0,-11.9869379 0,-17.980407 -0.166667,-0.4166667 -0.333333,-0.8333333 -0.5,-1.25 0,0.8333333 0,1.6666667 0,2.5 0,-0.5 0,-1 0,-1.5 1.833333,0 3.666667,0 5.5,0 0.05953,-0.2274175 -0.131431,-1.1689094 0.119532,-0.8505849 0.29349,0.3668616 0.58698,0.7337233 0.88047,1.1005849 z"
       style="fill:url(#linearGradient3380);fill-opacity:1;stroke:#4e9a06;stroke-width:0.5;stroke-linecap:square;stroke-linejoin:round;stroke-miterlimit:7.1;stroke-dashoffset:1.4;stroke-opacity:1" />
    <path
       sodipodi:nodetypes="ccccccc"
       id="path3378"
       d="m 16.019604,3.2529043 c 0,6.2281226 0,12.4562447 0,18.6843677 0.150144,0.535177 0.851594,0.233174 1.269224,0.3125 1.179249,-0.0162 2.36495,0.03248 3.540144,-0.02448 0.358071,-0.311636 0.122791,-0.879122 0.190635,-1.308524 0,-5.887954 0,-11.7759077 0,-17.6638617 -1.666668,0 -3.333335,0 -5.000003,0 z"
       style="opacity:0.7;fill:none;fill-opacity:1;stroke:url(#linearGradient1099);stroke-width:0.5;stroke-linecap:round;stroke-linejoin:miter;stroke-miterlimit:7.1;stroke-dashoffset:1.4;stroke-opacity:1" />
    <path
       sodipodi:nodetypes="cccccccccccc"
       id="path3400"
       d="m 2.5196052,2.9997775 c 0,6.3336375 0,12.6672755 0,19.0009125 -3.075e-4,0.788685 0.8689027,0.787213 1.4422372,0.749084 1.3220092,-0.0098 2.6460183,0.01987 3.9667543,-0.01517 0.8087259,-0.203355 0.5480744,-1.1401 0.5910105,-1.754424 0,-5.993469 0,-11.9869376 0,-17.9804065 0.1666667,-0.4166667 0.3333333,-0.8333333 0.5,-1.25 0,0.8333333 0,1.6666667 0,2.5 0,-0.5 0,-1 0,-1.5 -1.8333333,0 -3.6666667,0 -5.5,0 C 3.4600805,2.52236 3.6510379,1.5808681 3.4000749,1.8991926 3.106585,2.2660542 2.8130951,2.6329159 2.5196052,2.9997775 Z"
       style="fill:url(#linearGradient3408);fill-opacity:1;stroke:#2e3436;stroke-width:0.5;stroke-linecap:square;stroke-linejoin:round;stroke-miterlimit:7.1;stroke-dashoffset:1.4;stroke-opacity:1" />
    <path
       id="path3402"
       d="M 3.5586697,2.0154025 C 3.4036739,2.3407297 2.5033665,2.8732383 3.1914822,2.9997775 4.7909895,2.990051 6.3927071,3.0192108 7.9908361,2.9852382 8.5692096,2.8236756 8.8837128,1.7388218 8.0438527,1.6722003 6.6199491,1.3739237 5.0611304,1.4007222 3.6893455,1.9089562 Z"
       style="fill:#babdb6;fill-rule:evenodd;stroke:none;stroke-width:0.4;stroke-linecap:butt;stroke-linejoin:round;stroke-miterlimit:4;stroke-dasharray:none;stroke-opacity:1"
       sodipodi:nodetypes="ccccccc" />
    <path
       sodipodi:nodetypes="ccccccc"
       id="path3404"
       d="M 3.3946072,2.5779025 C 2.8411681,2.9234052 3.1185584,3.400447 3.7160785,3.2497775 5.1114569,3.2297522 6.5137095,3.2903552 7.9046714,3.2185275 8.5926987,2.4654703 7.5411946,1.9751111 6.8148221,2.030568 5.6800186,1.9972662 4.388431,1.9576543 3.3946072,2.5779025 Z"
       style="fill:#d9d9d5;fill-opacity:1;fill-rule:evenodd;stroke:url(#linearGradient6512);stroke-width:0.5;stroke-linecap:butt;stroke-linejoin:miter;stroke-miterlimit:4;stroke-opacity:1" />
    <path
       sodipodi:nodetypes="ccccccc"
       id="path3406"
       d="m 8.0196107,3.2529088 c 0,6.2281224 0,12.4562452 0,18.6843672 -0.1501445,0.535177 -0.8515942,0.233174 -1.2692242,0.3125 -1.1792488,-0.0162 -2.3649496,0.03248 -3.540144,-0.02448 C 2.852172,21.913658 3.0874514,21.346172 3.0196077,20.91677 c 0,-5.887954 0,-11.7759074 0,-17.6638612 1.6666677,0 3.3333353,0 5.000003,0 z"
       style="opacity:0.7;fill:none;fill-opacity:1;stroke:url(#linearGradient3410);stroke-width:0.5;stroke-linecap:round;stroke-linejoin:miter;stroke-miterlimit:7.1;stroke-dashoffset:1.4;stroke-opacity:1" />
    <path
       style="fill:url(#linearGradient5587);fill-opacity:1;fill-rule:evenodd;stroke:none;stroke-width:0.4;stroke-linecap:butt;stroke-linejoin:round;stroke-miterlimit:4;stroke-dasharray:none;stroke-opacity:1"
       d="m 9.6914826,1.202898 c -0.28125,1.734375 -0.5625,3.46875 -0.84375,5.203125 0.3882931,0.4439713 1.0478698,0.1770717 1.5699444,0.25 1.493836,-0.012393 2.991162,0.024764 4.482822,-0.018532 0.538318,-0.2264993 0.09926,-0.8637957 0.11742,-1.3017741 -0.223396,-1.3776063 -0.446791,-2.7552127 -0.670187,-4.132819 -1.461949,0.680764 -3.209862,0.7853572 -4.6562494,0 z"
       id="path3265"
       sodipodi:nodetypes="ccccccc" />
    <path
       sodipodi:nodetypes="ccccccccccc"
       id="path3133"
       d="M 15.519609,6.7595205 C 15.344569,12.0568 15.196594,17.355849 15.004614,22.652021 c -0.194127,0.814632 -1.132649,0.556084 -1.74615,0.597748 -1.215708,-0.0098 -2.43341,0.01981 -3.6478459,-0.01517 C 8.8098206,23.031122 9.0563566,22.094602 8.9872092,21.480695 8.8396109,16.553049 8.6562381,11.622755 8.5309982,6.6967641 8.8605346,4.8811004 9.1900711,3.0654367 9.5196076,1.249773 c 0.011553,0.659301 0.023107,1.318602 0.03466,1.977903 1.6582914,0.00736 3.3165824,0.01473 4.9748734,0.022095 -0.0032,-0.6666667 -0.0063,-1.3333333 -0.0095,-2 0.333323,1.8365832 0.666645,3.6731663 0.999968,5.5097495 z"
       style="fill:url(#linearGradient5584);fill-opacity:1;stroke:#204a87;stroke-width:0.5;stroke-linecap:square;stroke-linejoin:round;stroke-miterlimit:7.1;stroke-dashoffset:1.4;stroke-opacity:1" />
    <path
       style="fill:url(#linearGradient5581);fill-opacity:1;fill-rule:evenodd;stroke:none;stroke-width:0.4;stroke-linecap:butt;stroke-linejoin:round;stroke-miterlimit:4;stroke-dasharray:none;stroke-opacity:1"
       d="m 9.6914826,1.781023 c -0.28125,1.5416667 -0.5625,3.0833333 -0.84375,4.625 0.3882931,0.4439713 1.0478698,0.1770717 1.5699444,0.25 1.493836,-0.012393 2.991162,0.024764 4.482822,-0.018532 0.541588,-0.2270626 0.08576,-0.8614706 0.09639,-1.2981503 C 14.7805,4.1532349 14.564116,2.9671289 14.347732,1.781023 c -1.552245,0.1357271 -3.113767,-0.3248969 -4.6562494,0 z"
       id="path3147"
       sodipodi:nodetypes="ccccccc" />
    <path
       style="opacity:0.5;fill:none;fill-opacity:1;stroke:url(#linearGradient5578);stroke-width:0.5;stroke-linecap:square;stroke-linejoin:round;stroke-miterlimit:7.1;stroke-dasharray:none;stroke-dashoffset:1.4;stroke-opacity:1"
       d="m 9.0196076,6.749773 c 0.172459,5.286243 0.3061503,10.576414 0.502813,15.860204 0.3047229,0.309167 0.8446674,0.08896 1.2520674,0.155426 1.203307,-0.01262 2.411216,0.02511 3.61168,-0.01861 0.292066,-0.30491 0.104706,-0.821592 0.178502,-1.21892 0.151646,-4.926035 0.303291,-9.852069 0.454937,-14.778104 -2,0 -4,0 -5.9999994,0 z"
       id="path3143"
       sodipodi:nodetypes="ccsccsccc" />
    <path
       sodipodi:nodetypes="ccccc"
       style="fill:#babdb6;fill-opacity:1;fill-rule:evenodd;stroke:none;stroke-width:0.5;stroke-linecap:butt;stroke-linejoin:round;stroke-miterlimit:4;stroke-dasharray:none;stroke-opacity:1"
       d="M 9.6289826,2.160379 C 9.518354,1.3141385 10.557802,1.3459388 11.151595,1.1695238 12.210904,0.98613168 13.303172,1.166734 14.300857,1.5431915 14.73316,2.5564459 13.826535,1.8568702 13.228619,1.7742457 12.02511,1.509969 10.760139,1.6984591 9.6289826,2.160379 Z"
       id="path3156" />
    <path
       style="opacity:0.262857;fill:url(#linearGradient5601);fill-opacity:1;fill-rule:evenodd;stroke:none;stroke-width:0.5px;stroke-linecap:butt;stroke-linejoin:miter;stroke-opacity:1"
       d="m 9.1968306,6.6175985 c 1.9298124,0.014732 3.8596244,0.029463 5.7894364,0.044195 C 14.868416,6.1461948 14.750565,5.6305962 14.632714,5.1149975 12.864947,5.056072 11.09718,4.9971465 9.3294131,4.938221 9.2852189,5.4980135 9.2410248,6.057806 9.1968306,6.6175985 Z"
       id="path5593" />
    <path
       style="fill:none;fill-opacity:1;fill-rule:evenodd;stroke:#ffffff;stroke-width:0.5;stroke-linecap:butt;stroke-linejoin:miter;stroke-miterlimit:4;stroke-dasharray:none;stroke-opacity:1"
       d="M 14.198964,2.365192 C 12.859432,1.6762477 11.159597,1.5836463 9.8345736,2.358131 9.5776474,3.7767885 9.3207213,5.195446 9.0637951,6.6141035 c 0.4025915,0.2739858 0.9662599,0.076463 1.4401799,0.1363725 1.410685,0 2.821371,0 4.232057,0 0.452077,-0.1839233 0.01084,-0.8130324 0.0361,-1.2034841 C 14.581076,4.4863919 14.39002,3.425792 14.198964,2.365192 Z"
       id="path3302"
       sodipodi:nodetypes="ccccccc" />
    <path
       id="path3292"
       d="m 10.019607,7.749773 c 0.04167,1 0.08333,2 0.125,3 1.25,0 2.5,0 3.75,0 0.04167,-1 0.08333,-2 0.125,-3 -1.333333,0 -2.666667,0 -4,0 z"
       style="fill:#cfcfc9;fill-opacity:1;stroke:#e2e2e2;stroke-width:0.5;stroke-linecap:round;stroke-linejoin:round;stroke-miterlimit:4;stroke-dashoffset:1.4;stroke-opacity:1" />
    <ellipse
       style="fill:#888a85;fill-opacity:1;stroke:#204a87;stroke-width:0.499999;stroke-linecap:round;stroke-linejoin:round;stroke-miterlimit:4;stroke-dasharray:none;stroke-dashoffset:1.4;stroke-opacity:1"
       id="path3294"
       cx="12.019607"
       cy="19.999777"
       rx="1.4999993"
       ry="1.2500015" />
    <path
       style="fill:#d3d7cf;fill-opacity:1;stroke:none;stroke-width:0.5;stroke-linecap:round;stroke-linejoin:round;stroke-miterlimit:4;stroke-dasharray:none;stroke-dashoffset:1.4;stroke-opacity:1"
       d="m 12.019607,19.50758 c -1.279877,-0.245503 -1.540323,1.464034 -0.204249,1.517515 1.051441,0.365673 2.060527,-1.287999 0.631497,-1.474789 l -0.207374,-0.03209 z"
       id="path3296"
       sodipodi:nodetypes="ccscc" />
    <rect
       ry="0"
       rx="0"
       y="4.7497759"
       x="4.0196095"
       height="3.5000021"
       width="2.9999986"
       id="rect3354"
       style="fill:#eeeeec;fill-opacity:1;stroke:#ffffff;stroke-width:0.5;stroke-linecap:round;stroke-linejoin:round;stroke-miterlimit:4;stroke-dasharray:none;stroke-dashoffset:1.4;stroke-opacity:1" />
    <ellipse
       style="fill:#babdb6;fill-opacity:1;stroke:#2e3436;stroke-width:0.500002;stroke-linecap:round;stroke-linejoin:round;stroke-miterlimit:4;stroke-dasharray:none;stroke-dashoffset:1.4;stroke-opacity:1"
       id="path3364"
       cx="5.5196047"
       cy="18.749784"
       rx="1.4999993"
       ry="1.4999974" />
    <path
       style="fill:url(#linearGradient3499);fill-opacity:1;stroke:none;stroke-width:0.5;stroke-linecap:round;stroke-linejoin:round;stroke-miterlimit:4;stroke-dasharray:none;stroke-dashoffset:1.4;stroke-opacity:1"
       d="M 5.5196072,17.999777 C 3.8714371,17.926285 4.208616,20.351124 5.7544346,19.980164 7.1482264,19.733374 6.8678709,17.99779 5.5196072,17.999777 Z"
       id="path3366" />
    <ellipse
       style="fill:#babdb6;fill-opacity:1;stroke:#4e9a06;stroke-width:0.5;stroke-linecap:round;stroke-linejoin:round;stroke-miterlimit:4;stroke-dasharray:none;stroke-dashoffset:1.4;stroke-opacity:1"
       id="path3386"
       cx="18.519606"
       cy="18.749779"
       rx="1.4999993"
       ry="1.4999974" />
    <rect
       ry="0"
       rx="0"
       y="4.7497759"
       x="17.019608"
       height="3.5000021"
       width="2.9999986"
       id="rect3384"
       style="fill:#eeeeec;fill-opacity:1;stroke:#ffffff;stroke-width:0.5;stroke-linecap:round;stroke-linejoin:round;stroke-miterlimit:4;stroke-dasharray:none;stroke-dashoffset:1.4;stroke-opacity:1" />
    <path
       id="path3388"
       d="m 18.519607,17.999777 c -1.64817,-0.07349 -1.310991,2.351347 0.234827,1.980387 1.393792,-0.24679 1.113437,-1.982375 -0.234827,-1.980387 z"
       style="fill:url(#linearGradient3497);fill-opacity:1;stroke:none;stroke-width:0.5;stroke-linecap:round;stroke-linejoin:round;stroke-miterlimit:4;stroke-dasharray:none;stroke-dashoffset:1.4;stroke-opacity:1" />
    <path
       id="path3572"
       d="m 20.480545,2.0262665 c 0.154996,0.325327 1.055303,0.8578365 0.367187,0.984375 -1.599507,-0.00973 -3.201225,0.019433 -4.799354,-0.014539 -0.578373,-0.1615626 -0.892877,-1.2464164 -0.05302,-1.3130379 1.423903,-0.2982767 2.982722,-0.2714782 4.354507,0.2367559 z"
       style="fill:#babdb6;fill-rule:evenodd;stroke:none;stroke-width:0.4;stroke-linecap:butt;stroke-linejoin:round;stroke-miterlimit:4;stroke-dasharray:none;stroke-opacity:1"
       sodipodi:nodetypes="ccccccc" />
    <path
       sodipodi:nodetypes="ccccccc"
       id="path3574"
       d="m 20.644607,2.5887665 c 0.553439,0.3455027 0.276049,0.8225445 -0.321471,0.671875 -1.395379,-0.020025 -2.797632,0.040578 -4.188594,-0.03125 -0.688026,-0.7530581 0.363478,-1.243416 1.08985,-1.1879596 1.134804,-0.033302 2.426391,-0.072914 3.420215,0.5473346 z"
       style="fill:#d9d9d5;fill-opacity:1;fill-rule:evenodd;stroke:url(#linearGradient6496);stroke-width:0.5;stroke-linecap:butt;stroke-linejoin:miter;stroke-miterlimit:4;stroke-opacity:1" />
    <path
       sodipodi:nodetypes="cccc"
       id="path3580"
       d="m 11.613357,6.4997703 c 0.08333,-1.2552079 0.166667,-2.5104157 0.25,-3.7656236 0.03125,1.2552079 0.0625,2.5104157 0.09375,3.7656236 -0.114583,0 -0.229167,0 -0.34375,0 z"
       style="fill:#babdb6;fill-opacity:1;fill-rule:evenodd;stroke:none;stroke-width:0.489939px;stroke-linecap:butt;stroke-linejoin:miter;stroke-opacity:1" />
    <path
       sodipodi:nodetypes="cccc"
       id="path3582"
       d="m 13.113357,6.4997703 c 0,-1.0501739 0,-2.1003478 0,-3.1505217 0.114583,1.0501739 0.229167,2.1003478 0.34375,3.1505217 -0.114583,0 -0.229167,0 -0.34375,0 z"
       style="fill:#babdb6;fill-opacity:1;fill-rule:evenodd;stroke:none;stroke-width:0.489939px;stroke-linecap:butt;stroke-linejoin:miter;stroke-opacity:1" />
    <path
       sodipodi:nodetypes="cccc"
       id="path3586"
       d="m 10.113357,6.4997703 c 0.130208,-0.7001159 0.260417,-1.4002319 0.390625,-2.1003478 -0.01562,0.7001159 -0.03125,1.4002319 -0.04687,2.1003478 -0.114585,0 -0.22917,0 -0.343755,0 z"
       style="fill:#babdb6;fill-opacity:1;fill-rule:evenodd;stroke:none;stroke-width:0.489939px;stroke-linecap:butt;stroke-linejoin:miter;stroke-opacity:1" />
    <path
       id="path6514"
       d="m 10.977937,8.749773 c 0.694444,0 1.388888,0 2.083332,0"
       style="opacity:0.222857;fill:none;fill-rule:evenodd;stroke:#000000;stroke-width:0.5px;stroke-linecap:square;stroke-linejoin:miter;stroke-opacity:1" />
    <path
       style="opacity:0.222857;fill:none;fill-rule:evenodd;stroke:#000000;stroke-width:0.5px;stroke-linecap:square;stroke-linejoin:miter;stroke-opacity:1"
       d="m 10.936275,9.749773 c 0.694444,0 1.388888,0 2.083332,0"
       id="path6516" />
    <path
       style="opacity:0.1;fill:none;fill-rule:evenodd;stroke:#000000;stroke-width:0.499998px;stroke-linecap:square;stroke-linejoin:miter;stroke-opacity:1"
       d="m 17.547379,5.749773 c 0.661378,0 1.322755,0 1.984133,0"
       id="path6524" />
    <path
       id="path6526"
       d="m 17.507701,6.749773 c 0.661377,0 1.322755,0 1.984132,0"
       style="opacity:0.1;fill:none;fill-rule:evenodd;stroke:#000000;stroke-width:0.499998px;stroke-linecap:square;stroke-linejoin:miter;stroke-opacity:1" />
    <path
       id="path6530"
       d="m 4.5473843,5.749773 c 0.6613775,0 1.322755,0 1.9841325,0"
       style="opacity:0.1;fill:none;fill-rule:evenodd;stroke:#000000;stroke-width:0.499998px;stroke-linecap:square;stroke-linejoin:miter;stroke-opacity:1" />
    <path
       style="opacity:0.1;fill:none;fill-rule:evenodd;stroke:#000000;stroke-width:0.499998px;stroke-linecap:square;stroke-linejoin:miter;stroke-opacity:1"
       d="m 4.5077061,6.749773 c 0.6613775,0 1.322755,0 1.9841325,0"
       id="path6532" />
  </g>
</svg>
