<?xml version="1.0" encoding="UTF-8" standalone="no"?>
<!-- Created with Inkscape (http://www.inkscape.org/) -->

<svg
   width="24"
   height="24"
   id="svg4289"
   sodipodi:version="0.32"
   inkscape:version="1.2.2 (b0a8486541, 2022-12-01)"
   version="1.0"
   sodipodi:docname="Default_actions_scalable_hb-ope-delete.svg"
   inkscape:export-filename="/home/andreas/project/gnome-icon-theme/scalable/actions/list-add.png"
   inkscape:export-xdpi="90"
   inkscape:export-ydpi="90"
   inkscape:output_extension="org.inkscape.output.svg.inkscape"
   sodipodi:modified="true"
   xml:space="preserve"
   xmlns:inkscape="http://www.inkscape.org/namespaces/inkscape"
   xmlns:sodipodi="http://sodipodi.sourceforge.net/DTD/sodipodi-0.dtd"
   xmlns:xlink="http://www.w3.org/1999/xlink"
   xmlns="http://www.w3.org/2000/svg"
   xmlns:svg="http://www.w3.org/2000/svg"
   xmlns:rdf="http://www.w3.org/1999/02/22-rdf-syntax-ns#"
   xmlns:cc="http://creativecommons.org/ns#"
   xmlns:dc="http://purl.org/dc/elements/1.1/"><title
     id="title1228">Transaction Delete</title><defs
     id="defs4291"><linearGradient
       inkscape:collect="always"
       id="linearGradient2091"><stop
         style="stop-color:#000000;stop-opacity:1;"
         offset="0"
         id="stop2093" /><stop
         style="stop-color:#000000;stop-opacity:0;"
         offset="1"
         id="stop2095" /></linearGradient><linearGradient
       id="linearGradient5048"><stop
         style="stop-color:black;stop-opacity:0;"
         offset="0"
         id="stop5050" /><stop
         id="stop5056"
         offset="0.5"
         style="stop-color:black;stop-opacity:1;" /><stop
         style="stop-color:black;stop-opacity:0;"
         offset="1"
         id="stop5052" /></linearGradient><linearGradient
       id="linearGradient15218"><stop
         style="stop-color:#f8f8f7;stop-opacity:1;"
         offset="0"
         id="stop15220" /><stop
         id="stop2269"
         offset="0.59928656"
         style="stop-color:#e8e8e8;stop-opacity:1;" /><stop
         style="stop-color:#e2e2de;stop-opacity:1;"
         offset="1"
         id="stop15222" /></linearGradient><linearGradient
       id="linearGradient4238"><stop
         id="stop4240"
         style="stop-color:#8d909a;stop-opacity:1;"
         offset="0" /><stop
         offset="0.39999998"
         style="stop-color:#e5e5e5;stop-opacity:1;"
         id="stop3792" /><stop
         id="stop4242"
         style="stop-color:#8d909a;stop-opacity:1;"
         offset="1" /></linearGradient><linearGradient
       xlink:href="#linearGradient4238"
       id="linearGradient4746-3"
       gradientUnits="userSpaceOnUse"
       gradientTransform="matrix(0.45754817,0,0,0.47298439,-1.837284,-3.6558699)"
       spreadMethod="reflect"
       x1="10.572186"
       y1="26.410894"
       x2="32.427807"
       y2="26.410894" /><linearGradient
       y2="43"
       x2="24"
       y1="13.506023"
       x1="24"
       gradientTransform="matrix(0.33333337,0.11166313,0,0.30309867,-2e-8,-0.0262891)"
       gradientUnits="userSpaceOnUse"
       id="linearGradient5141"
       xlink:href="#linearGradient2091" /><linearGradient
       xlink:href="#linearGradient2091"
       id="linearGradient4748-3-4"
       gradientUnits="userSpaceOnUse"
       gradientTransform="matrix(0.33333342,0.11166313,0,0.30309867,-4e-6,0.18933422)"
       x1="24"
       y1="13.506023"
       x2="24"
       y2="43" /><linearGradient
       xlink:href="#linearGradient2091"
       id="linearGradient3289-0-6"
       gradientUnits="userSpaceOnUse"
       gradientTransform="matrix(0.33333342,0.01405066,0,0.30511322,-0.333335,0.88521945)"
       x1="24"
       y1="15.502284"
       x2="24"
       y2="45" /><linearGradient
       xlink:href="#linearGradient2091"
       id="linearGradient3286-0-8"
       gradientUnits="userSpaceOnUse"
       gradientTransform="matrix(0.33333342,0.01405066,0,0.30511322,0.333331,0.88521945)"
       x1="24"
       y1="15.502284"
       x2="24"
       y2="45" /><linearGradient
       y2="28.903023"
       x2="32.180862"
       y1="13.828948"
       x1="32.180862"
       gradientTransform="matrix(0.72972969,0,0,0.72972969,-14.514409,-6.081971)"
       gradientUnits="userSpaceOnUse"
       id="linearGradient5227-8"
       xlink:href="#linearGradient4404-56-1-1" /><linearGradient
       id="linearGradient4404-56-1-1"><stop
         id="stop4406-5-6-9"
         style="stop-color:#ffffff;stop-opacity:1"
         offset="0" /><stop
         id="stop4408-9-5-4"
         style="stop-color:#ffffff;stop-opacity:0.23529412"
         offset="0.09090912" /><stop
         id="stop4410-63-5-2"
         style="stop-color:#ffffff;stop-opacity:0.15686275"
         offset="0.81818187" /><stop
         id="stop4412-0-6-0"
         style="stop-color:#ffffff;stop-opacity:0.39215687"
         offset="1" /></linearGradient><linearGradient
       xlink:href="#linearGradient4238-0"
       id="linearGradient5420"
       gradientUnits="userSpaceOnUse"
       gradientTransform="matrix(0.45754817,0,0,0.47298439,-1.837284,-3.6558699)"
       spreadMethod="reflect"
       x1="34.613369"
       y1="26.410894"
       x2="19.314434"
       y2="26.410894" /><linearGradient
       id="linearGradient4238-0"><stop
         offset="0"
         style="stop-color:#8d909a;stop-opacity:1"
         id="stop4240-2" /><stop
         offset="1"
         style="stop-color:#e5e5e5;stop-opacity:1"
         id="stop4242-27" /></linearGradient><linearGradient
       y2="28.903023"
       x2="32.180862"
       y1="13.828948"
       x1="32.180862"
       gradientTransform="matrix(0.72972969,0,0,0.72972969,3.516668,-7.0913942)"
       gradientUnits="userSpaceOnUse"
       id="linearGradient5330"
       xlink:href="#linearGradient4404-56-1-1" /><linearGradient
       inkscape:collect="always"
       xlink:href="#linearGradient15218"
       id="linearGradient3643"
       gradientUnits="userSpaceOnUse"
       gradientTransform="matrix(0.58532949,0,0,0.49411719,-1.095164,-0.72941399)"
       x1="20.794008"
       y1="18.378813"
       x2="35.596001"
       y2="39.60046" /></defs><sodipodi:namedview
     id="base"
     pagecolor="#ffffff"
     bordercolor="#666666"
     borderopacity="1.0"
     inkscape:pageopacity="0.0"
     inkscape:pageshadow="2"
     inkscape:zoom="31.333333"
     inkscape:cx="12.909575"
     inkscape:cy="15.287234"
     inkscape:current-layer="layer1"
     showgrid="true"
     inkscape:grid-bbox="true"
     inkscape:document-units="px"
     width="48px"
     height="48px"
     showguides="false"
     inkscape:guide-bbox="true"
     inkscape:window-width="1920"
     inkscape:window-height="1003"
     inkscape:window-x="1440"
     inkscape:window-y="0"
     inkscape:showpageshadow="2"
     inkscape:pagecheckerboard="0"
     inkscape:deskcolor="#d1d1d1"
     inkscape:window-maximized="1"><inkscape:grid
       type="xygrid"
       id="grid194" /></sodipodi:namedview><metadata
     id="metadata4294"><rdf:RDF><cc:Work
         rdf:about=""><dc:format>image/svg+xml</dc:format><dc:type
           rdf:resource="http://purl.org/dc/dcmitype/StillImage" /><dc:creator><cc:Agent><dc:title>Maxime DOYEN</dc:title></cc:Agent></dc:creator><dc:source>https://www.gethomebank.org</dc:source><dc:title>Transaction Delete</dc:title></cc:Work></rdf:RDF></metadata><g
     id="layer1"
     inkscape:label="Layer 1"
     inkscape:groupmode="layer"><g
       id="layer6"
       inkscape:label="Shadow"
       transform="matrix(0.32140519,0,0,0.32140519,-16.187669,-2.9182583)"
       style="stroke-width:3.11133" /><g
       style="display:inline;stroke-width:3.11133"
       inkscape:label="Base"
       id="g2170"
       transform="matrix(0.32140519,0,0,0.32140519,-16.187669,-2.9182583)" /><g
       inkscape:label="Layer 1"
       id="g5398"
       transform="matrix(0.32140519,0,0,0.32140519,-57.497935,6.2504669)"
       style="stroke-width:3.11133" /><g
       id="layer5"
       inkscape:label="shadiw"
       transform="matrix(0.32140519,0,0,0.32140519,-57.497935,6.2504669)"
       style="stroke-width:3.11133" /><g
       id="layer4"
       inkscape:label="white"
       transform="matrix(0.32140519,0,0,0.32140519,-57.497935,6.2504669)"
       style="stroke-width:3.11133" /><g
       transform="matrix(0.32140519,0,0,0.32140519,-82.888177,3.5651767)"
       style="display:inline;stroke-width:3.11133"
       id="g3678"
       inkscape:label="Layer 1" /><g
       transform="matrix(0.32140519,0,0,0.32140519,-82.888177,3.5651767)"
       inkscape:label="bottom"
       id="g3680"
       style="stroke-width:3.11133" /><g
       transform="matrix(0.32140519,0,0,0.32140519,-82.888177,3.5651767)"
       style="display:inline;stroke-width:3.11133"
       inkscape:label="back"
       id="layer2" /><g
       id="g3698"
       inkscape:label="shadiw"
       transform="matrix(0.32140519,0,0,0.32140519,-32.580455,6.4281272)"
       style="stroke-width:3.11133" /><g
       id="g3760"
       inkscape:label="shadiw"
       transform="matrix(0.32140519,0,0,0.32140519,21.521262,8.1188049)"
       style="stroke-width:3.11133" /><g
       transform="matrix(0.32140519,0,0,0.32140519,-92.31711,-4.805861)"
       inkscape:label="Shadow"
       id="g5431"
       style="stroke-width:3.11133" /><g
       transform="matrix(0.32140519,0,0,0.32140519,-92.31711,-4.805861)"
       id="g4258"
       inkscape:label="Base"
       style="display:inline;stroke-width:3.11133" /><g
       transform="matrix(0.32140519,0,0,0.32140519,-92.31711,-4.805861)"
       inkscape:label="new"
       id="g5440"
       style="stroke-width:3.11133" /><g
       transform="matrix(0.32140519,0,0,0.32140519,-82.213059,-0.22869853)"
       style="display:inline;stroke-width:3.11133"
       id="g3928"
       inkscape:label="Layer 1" /><g
       transform="matrix(0.32140519,0,0,0.32140519,-82.213059,-0.22869853)"
       inkscape:label="bottom"
       id="g3930"
       style="stroke-width:3.11133" /><g
       transform="matrix(0.32140519,0,0,0.32140519,-82.213059,-0.22869853)"
       style="display:inline;stroke-width:3.11133"
       inkscape:label="back"
       id="g3932" /><g
       id="g3934"
       inkscape:label="shadiw"
       transform="matrix(0.32140519,0,0,0.32140519,-31.905337,2.6342523)"
       style="stroke-width:3.11133" /><g
       id="g3936"
       inkscape:label="shadiw"
       transform="matrix(0.32140519,0,0,0.32140519,22.19638,4.32493)"
       style="stroke-width:3.11133" /><g
       transform="matrix(0.32140519,0,0,0.32140519,-91.641992,-8.5997362)"
       inkscape:label="Shadow"
       id="g3961"
       style="stroke-width:3.11133" /><g
       transform="matrix(0.32140519,0,0,0.32140519,-91.641992,-8.5997362)"
       id="g3963"
       inkscape:label="Base"
       style="display:inline;stroke-width:3.11133" /><g
       transform="matrix(0.32140519,0,0,0.32140519,-91.641992,-8.5997362)"
       inkscape:label="new"
       id="layer7"
       style="stroke-width:3.11133" /><g
       id="g563"><path
         style="fill:none;stroke:#888a85;stroke-width:1px;stroke-linecap:round;stroke-linejoin:round;stroke-opacity:1"
         d="m 2.5,4.3519687 0.02541,18.0000013 16.974591,-1e-6"
         id="path4076"
         sodipodi:nodetypes="ccc" /><rect
         style="fill:url(#linearGradient3643);fill-opacity:1;fill-rule:evenodd;stroke:#888a85;stroke-width:0.999998;stroke-linecap:butt;stroke-linejoin:miter;stroke-miterlimit:4;stroke-dasharray:none;stroke-dashoffset:0;stroke-opacity:1"
         id="rect4238-6-7"
         width="17.000004"
         height="18"
         x="4.450438"
         y="2.499999"
         rx="0.24695967"
         ry="0.22658768" /><rect
         style="color:#000000;display:inline;overflow:visible;visibility:visible;fill:#999999;fill-opacity:1;fill-rule:evenodd;stroke:none;stroke-width:0.463738;stroke-linecap:butt;stroke-linejoin:miter;stroke-miterlimit:4;stroke-dasharray:none;stroke-dashoffset:0;stroke-opacity:1;marker:none;marker-start:none;marker-mid:none;marker-end:none"
         id="rect4248-2-3"
         width="10"
         height="0.99999994"
         x="-17.950439"
         y="6.000001"
         transform="scale(-1,1)" /><rect
         style="color:#000000;display:inline;overflow:visible;visibility:visible;fill:#999999;fill-opacity:1;fill-rule:evenodd;stroke:none;stroke-width:0.463738;stroke-linecap:butt;stroke-linejoin:miter;stroke-miterlimit:4;stroke-dasharray:none;stroke-dashoffset:0;stroke-opacity:1;marker:none;marker-start:none;marker-mid:none;marker-end:none"
         id="rect4248-3-6-6"
         width="10"
         height="0.99999994"
         x="-17.950439"
         y="9.000001"
         transform="scale(-1,1)" /><rect
         style="color:#000000;display:inline;overflow:visible;visibility:visible;fill:#999999;fill-opacity:1;fill-rule:evenodd;stroke:none;stroke-width:0.463738;stroke-linecap:butt;stroke-linejoin:miter;stroke-miterlimit:4;stroke-dasharray:none;stroke-dashoffset:0;stroke-opacity:1;marker:none;marker-start:none;marker-mid:none;marker-end:none"
         id="rect4248-6-1-1"
         width="10"
         height="0.99999994"
         x="-17.950439"
         y="12.000001"
         transform="scale(-1,1)" /><rect
         style="color:#000000;display:inline;overflow:visible;visibility:visible;fill:#999999;fill-opacity:1;fill-rule:evenodd;stroke:none;stroke-width:0.463738;stroke-linecap:butt;stroke-linejoin:miter;stroke-miterlimit:4;stroke-dasharray:none;stroke-dashoffset:0;stroke-opacity:1;marker:none;marker-start:none;marker-mid:none;marker-end:none"
         id="rect4248-7-8-2"
         width="10"
         height="0.99999994"
         x="-17.950439"
         y="15"
         transform="scale(-1,1)" /><rect
         style="fill:none;fill-opacity:1;fill-rule:evenodd;stroke:#ffffff;stroke-width:0.999994;stroke-linecap:butt;stroke-linejoin:miter;stroke-miterlimit:4;stroke-dasharray:none;stroke-dashoffset:0;stroke-opacity:1"
         id="rect2245-7-9"
         width="15"
         height="16.000004"
         x="5.4504399"
         y="3.500001"
         rx="0"
         ry="0" /></g><g
       id="layer3"
       transform="matrix(0.875,0,0,0.875,9.8642161,9)"><path
         style="display:inline;overflow:visible;visibility:visible;fill:url(#linearGradient4746-3);fill-opacity:1;fill-rule:nonzero;stroke:none;stroke-width:1.01885;marker:none"
         id="path4744"
         d="m 3,4.03125 v 9.4375 C 3,13.620953 3.2258817,14.02174 4.03125,14.375 4.8366183,14.72826 6.137732,15 8,15 9.8622686,15 11.163382,14.72826 11.96875,14.375 12.774118,14.02174 13,13.620953 13,13.46875 v -9.4375 z"
         transform="matrix(1,0,0,1.0408342,0,-0.16461299)" /><path
         style="color:#000000;display:inline;overflow:visible;visibility:visible;opacity:0.5;fill:none;stroke:#161b28;stroke-width:1;stroke-linecap:butt;stroke-linejoin:miter;stroke-miterlimit:4;stroke-dasharray:none;stroke-dashoffset:0;stroke-opacity:1;marker:none;enable-background:accumulate"
         d="M 2.5,3.5 V 14 c 0,0.828427 2.4624339,1.5 5.5,1.5 3.037566,0 5.5,-0.671573 5.5,-1.5 V 3.5 Z"
         id="path5019" /><path
         style="display:inline;overflow:visible;visibility:visible;opacity:0.15;fill:url(#linearGradient5141);fill-opacity:1;fill-rule:nonzero;stroke:none;stroke-width:0.999922;marker:none;enable-background:accumulate"
         id="path3772-3-2"
         d="M 4.5,5.5748208 C 4.777,5.6676128 5,5.9450884 5,6.1969635 V 14.227251 C 5,14.479127 4.777,14.607198 4.5,14.514405 4.223,14.421615 4,14.144137 4,13.892262 V 5.861974 C 4,5.610099 4.223,5.4820286 4.5,5.5748208 Z" /><path
         style="display:inline;overflow:visible;visibility:visible;opacity:0.15;fill:url(#linearGradient4748-3-4);fill-opacity:1;fill-rule:nonzero;stroke:none;stroke-width:0.999922;marker:none;enable-background:accumulate"
         id="path3287-8-4"
         d="M 11.499999,5.7155823 C 11.222999,5.8083743 11,6.08585 11,6.3377249 v 8.0302881 c 0,0.251876 0.222999,0.379947 0.499999,0.287154 C 11.776999,14.562377 12,14.284899 12,14.033024 V 6.0027355 C 12,5.7508605 11.776999,5.6227901 11.499999,5.7155823 Z" /><path
         style="display:inline;overflow:visible;visibility:visible;opacity:0.3;fill:url(#linearGradient3289-0-6);fill-opacity:1;fill-rule:nonzero;stroke:none;stroke-width:0.999922;marker:none;enable-background:accumulate"
         id="path3778-2-1"
         d="M 6.5,5.9043505 C 6.777,5.9160275 7,6.1295473 7,6.3830964 V 14.46676 C 7,14.720309 6.777,14.91503 6.5,14.903353 6.223,14.891683 6,14.678156 6,14.424607 V 6.3409444 C 6,6.0873953 6.223,5.8926745 6.5,5.9043505 Z" /><path
         style="display:inline;overflow:visible;visibility:visible;opacity:0.3;fill:url(#linearGradient3286-0-8);fill-opacity:1;fill-rule:nonzero;stroke:none;stroke-width:0.999922;marker:none;enable-background:accumulate"
         id="path3293-9-3"
         d="M 9.5,5.9043505 C 9.222999,5.9160275 9,6.1295473 9,6.3830964 V 14.46676 c 0,0.253549 0.222999,0.44827 0.5,0.436593 0.277,-0.01167 0.500001,-0.225197 0.500001,-0.478746 V 6.3409444 C 10.000001,6.0873953 9.777,5.8926745 9.5,5.9043505 Z" /><path
         style="color:#000000;display:inline;overflow:visible;visibility:visible;opacity:1;fill:none;stroke:url(#linearGradient5227-8);stroke-width:1;stroke-linecap:round;stroke-linejoin:round;stroke-miterlimit:4;stroke-dasharray:none;stroke-dashoffset:0;stroke-opacity:1;marker:none;enable-background:accumulate"
         id="path5208"
         d="m 3.5,4.5 v 9.25 c 0.1473239,0.09118 0.4515636,0.259517 0.875,0.375 C 5.2475625,14.362972 6.5538323,14.5 8,14.5 c 1.4461677,0 2.752437,-0.137028 3.625,-0.375 0.423436,-0.115483 0.727676,-0.283818 0.875,-0.375 V 4.5 Z" /><path
         style="color:#000000;display:inline;overflow:visible;visibility:visible;opacity:0.5;fill:none;stroke:#161b28;stroke-width:1;stroke-linecap:butt;stroke-linejoin:miter;stroke-miterlimit:4;stroke-dasharray:none;stroke-dashoffset:0;stroke-opacity:1;marker:none;enable-background:accumulate"
         d="M 8,1 C 4.4101492,1 1.5,1.8657221 1.5,2.9336444 v 1.9336444 c 0,1.0679223 2.9101492,1.9336443 6.5,1.9336443 3.589851,0 6.5,-0.865722 6.5,-1.9336443 V 2.9336444 C 14.5,1.8657221 11.589851,1 8,1 Z"
         id="path5019-9" /><path
         style="color:#000000;display:inline;overflow:visible;visibility:visible;fill:url(#linearGradient5420);fill-opacity:1;fill-rule:nonzero;stroke:none;stroke-width:1.03944;marker:none;enable-background:accumulate"
         id="path5418"
         d="m 8,1.46875 c -1.7572026,0 -3.3544793,0.2196475 -4.46875,0.5625 -0.5571353,0.1714263 -0.9846671,0.3694792 -1.25,0.5625 C 2.0159171,2.7867708 1.96875,2.9230812 1.96875,3 v 2 c 0,0.076919 0.047167,0.2132292 0.3125,0.40625 0.2653329,0.1930208 0.6928647,0.3910737 1.25,0.5625 1.1142707,0.3428525 2.7115474,0.5625 4.46875,0.5625 1.7572027,0 3.354479,-0.2196475 4.46875,-0.5625 0.557135,-0.1714263 0.984667,-0.3694792 1.25,-0.5625 C 13.984083,5.2132292 14.03125,5.0769189 14.03125,5 V 3 c 0,-0.076919 -0.04717,-0.2132292 -0.3125,-0.40625 -0.265333,-0.1930208 -0.692865,-0.3910737 -1.25,-0.5625 C 11.354479,1.6883975 9.7572027,1.46875 8,1.46875 Z"
         transform="matrix(1,0,0,0.96682219,0,0.03317781)" /><path
         style="color:#000000;display:inline;overflow:visible;visibility:visible;opacity:0.7;fill:none;stroke:url(#linearGradient5330);stroke-width:1.93289;stroke-linecap:round;stroke-linejoin:round;stroke-miterlimit:4;stroke-dasharray:none;stroke-dashoffset:0;stroke-opacity:1;marker:none;enable-background:accumulate"
         id="path4564-1-6"
         d="m 33,3.5 a 7,3.5 0 1 1 -14,0 7,3.5 0 1 1 14,0 z"
         transform="matrix(0.79112049,0,0,-0.33833318,-12.56502,4.3522834)" /><path
         style="color:#000000;display:inline;overflow:visible;visibility:visible;fill:#dcdcdd;fill-opacity:1;fill-rule:nonzero;stroke:none;stroke-width:1.01885;marker:none;enable-background:accumulate"
         d="M 6,0.5 C 5.723,0.5 5.5,0.723 5.5,1 V 3 C 5.5,3.277 5.723,3.5 6,3.5 H 8 C 7.723,3.5 7.5,3.277 7.5,3 7.5,2.723 7.723,2.5 8,2.5 8.277,2.5 8.5,2.723 8.5,3 8.5,3.277 8.277,3.5 8,3.5 h 2 c 0.277,0 0.5,-0.223 0.5,-0.5 V 1 C 10.5,0.723 10.277,0.5 10,0.5 Z"
         id="rect4605-2-4-3" /><path
         style="color:#000000;display:inline;overflow:visible;visibility:visible;opacity:0.4;fill:none;stroke:#161b28;stroke-width:1;stroke-linecap:butt;stroke-linejoin:miter;stroke-miterlimit:4;stroke-dasharray:none;stroke-dashoffset:0;stroke-opacity:1;marker:none;enable-background:accumulate"
         d="M 6,0.5 C 5.723,0.5 5.5,0.723 5.5,1 V 3 C 5.5,3.277 5.723,3.5 6,3.5 H 8 C 7.723,3.5 7.5,3.277 7.5,3 7.5,2.4990498 7.499049,2.5 8,2.5 8.476067,2.5 8.5,2.523933 8.5,3 8.5,3.277 8.277,3.5 8,3.5 h 2 c 0.277,0 0.5,-0.223 0.5,-0.5 V 1 C 10.5,0.723 10.277,0.5 10,0.5 Z"
         id="rect4605-3-9" /></g></g></svg>
