<?xml version="1.0" encoding="UTF-8" standalone="no"?>
<!-- Created with Inkscape (http://www.inkscape.org/) -->

<svg
   width="24"
   height="24"
   id="svg8280"
   sodipodi:version="0.32"
   inkscape:version="1.2.2 (b0a8486541, 2022-12-01)"
   sodipodi:docname="Default_actions_scalable_hb-document-open.svg"
   inkscape:output_extension="org.inkscape.output.svg.inkscape"
   version="1.1"
   xml:space="preserve"
   xmlns:inkscape="http://www.inkscape.org/namespaces/inkscape"
   xmlns:sodipodi="http://sodipodi.sourceforge.net/DTD/sodipodi-0.dtd"
   xmlns="http://www.w3.org/2000/svg"
   xmlns:svg="http://www.w3.org/2000/svg"
   xmlns:rdf="http://www.w3.org/1999/02/22-rdf-syntax-ns#"
   xmlns:cc="http://creativecommons.org/ns#"
   xmlns:dc="http://purl.org/dc/elements/1.1/"><defs
     id="defs8282"><inkscape:path-effect
       effect="fill_between_many"
       method="originald"
       linkedpaths="#rect558-5,0,1|"
       id="path-effect1300" /></defs><sodipodi:namedview
     id="base"
     pagecolor="#ffffff"
     bordercolor="#666666"
     borderopacity="1.0"
     inkscape:pageopacity="0.0"
     inkscape:pageshadow="2"
     inkscape:zoom="31.333333"
     inkscape:cx="8.7606384"
     inkscape:cy="15.255319"
     inkscape:current-layer="layer1"
     showgrid="true"
     inkscape:grid-bbox="true"
     inkscape:document-units="px"
     inkscape:window-width="1920"
     inkscape:window-height="1003"
     inkscape:window-x="1440"
     inkscape:window-y="0"
     inkscape:showpageshadow="2"
     inkscape:pagecheckerboard="0"
     inkscape:deskcolor="#d1d1d1"
     inkscape:window-maximized="1"><inkscape:grid
       type="xygrid"
       id="grid988" /></sodipodi:namedview><metadata
     id="metadata8285"><rdf:RDF><cc:Work
         rdf:about=""><dc:format>image/svg+xml</dc:format><dc:type
           rdf:resource="http://purl.org/dc/dcmitype/StillImage" /></cc:Work></rdf:RDF></metadata><g
     id="layer1"
     inkscape:label="Layer 1"
     inkscape:groupmode="layer"><path
       id="path501"
       style="display:inline;vector-effect:none;fill:#c9b8a7;fill-opacity:1;stroke:#a08f7f;stroke-width:1;stroke-linecap:butt;stroke-linejoin:miter;stroke-miterlimit:4;stroke-dasharray:none;stroke-dashoffset:0;stroke-opacity:1;marker:none;marker-start:none;marker-mid:none;marker-end:none;paint-order:normal;enable-background:new"
       d="M 4.3085938 1.5 C 2.4990742 1.5 2.5 3.5 2.5 3.5 L 2.5 15.726562 C 2.524962 15.713502 2.5460367 15.697653 2.5722656 15.685547 C 2.6547851 15.647461 2.7441407 15.613281 2.8398438 15.585938 C 2.9355468 15.558594 3.0385743 15.538086 3.1484375 15.523438 C 3.2583007 15.508789 3.3750001 15.5 3.5 15.5 L 10 15.5 L 12 13.5 L 20.5 13.5 C 20.625 13.5 20.741699 13.508789 20.851562 13.523438 C 20.961426 13.538086 21.064453 13.558594 21.160156 13.585938 C 21.255859 13.613281 21.345215 13.647461 21.427734 13.685547 C 21.453963 13.697653 21.475038 13.713502 21.5 13.726562 L 21.5 5.5 C 21.5 5.5 21.500926 3.5 19.691406 3.5 L 10.642578 3.5 L 8.8339844 1.5 L 4.3085938 1.5 z " /><path
       inkscape:original-d="M 0,0"
       inkscape:path-effect="#path-effect1300"
       d="m 0.70132601,39.343198 v 0 -10.000001 0 H 11.701326 v 8.000001 z"
       id="path1302"
       class="UnoptimicedTransforms"
       style="fill:#ffffff"
       transform="translate(5.798674,-23.843197)" /><path
       id="rect558-5"
       style="fill:none;stroke:#888a85;stroke-width:1;stroke-linecap:round;stroke-linejoin:round;stop-color:#000000"
       d="m 0.70132601,39.343198 v 0 -10.000001 0 H 11.701326 v 8.000001"
       class="UnoptimicedTransforms"
       transform="translate(5.798674,-23.843197)" /><path
       style="fill:none;stroke:#babdb6;stroke-width:1px;stroke-linecap:butt;stroke-linejoin:miter;stroke-opacity:1"
       d="M 7.9999999,12.5 H 16"
       id="path623-7-6"
       sodipodi:nodetypes="cc" /><path
       style="fill:none;stroke:#babdb6;stroke-width:1px;stroke-linecap:butt;stroke-linejoin:miter;stroke-opacity:1"
       d="M 8.0060259,8.5 H 16.006026"
       id="path623-2"
       sodipodi:nodetypes="cc" /><path
       style="fill:none;stroke:#babdb6;stroke-width:1px;stroke-linecap:butt;stroke-linejoin:miter;stroke-opacity:1"
       d="m 8,10.5 h 8"
       id="path623-6-9"
       sodipodi:nodetypes="cc" /><path
       sodipodi:nodetypes="cccccccccc"
       inkscape:connector-curvature="0"
       style="display:inline;vector-effect:none;fill:#ded4ca;fill-opacity:1;stroke:#a08f7f;stroke-width:1;stroke-linecap:butt;stroke-linejoin:miter;stroke-miterlimit:4;stroke-dasharray:none;stroke-dashoffset:0;stroke-opacity:1;marker:none;marker-start:none;marker-mid:none;marker-end:none;paint-order:normal;enable-background:new"
       d="m 3.5000123,15.5 c -2,0 -2,2 -2,2 v 4.999831 H 20.000012 c 2.5,0 2.5,-2.5 2.5,-2.5 V 15.5 c 0,0 0,-2 -2,-2 h -8.5 l -2.000001,2 z"
       id="path1884" /></g></svg>
